{"glyphs":{"0":{"ha":694,"x_min":49,"x_max":646,"o":"m 646 432 q 569 93 646 204 q 347 -18 493 -18 q 125 93 201 -18 q 49 432 49 204 q 126 768 49 657 q 347 879 204 879 q 569 769 493 879 q 646 432 646 658 m 492 432 q 455 656 492 579 q 347 733 418 733 q 240 656 278 733 q 203 432 203 579 q 240 206 203 283 q 347 129 278 129 q 455 206 418 129 q 492 432 492 283 m 425 446 q 403 381 425 408 q 349 354 382 354 q 292 381 313 354 q 271 446 271 408 q 292 511 271 483 q 349 539 313 539 q 403 511 382 539 q 425 446 425 483 z "},"1":{"ha":694,"x_min":67,"x_max":638,"o":"m 296 142 l 296 622 q 207 573 257 594 q 122 539 157 551 l 67 681 q 139 713 100 693 q 217 756 178 732 q 290 806 256 779 q 350 860 325 832 l 467 860 l 467 142 l 638 142 l 638 0 l 115 0 l 115 142 l 296 142 z "},"2":{"ha":694,"x_min":60,"x_max":642,"o":"m 603 633 q 586 548 603 589 q 542 468 569 507 q 479 393 514 429 q 408 324 444 357 q 367 284 390 307 q 322 237 343 261 q 287 188 301 213 q 272 142 272 163 l 642 142 l 642 0 l 81 0 q 77 35 76 14 q 78 64 78 56 q 103 192 78 133 q 169 299 129 250 q 253 391 208 349 q 338 472 299 433 q 403 547 378 511 q 429 621 429 583 q 397 702 429 674 q 317 731 365 731 q 232 711 276 731 q 144 646 188 692 l 60 765 q 188 851 115 824 q 333 879 261 879 q 435 864 386 879 q 521 818 483 849 q 581 741 558 788 q 603 633 603 694 z "},"3":{"ha":694,"x_min":57,"x_max":626,"o":"m 296 -18 q 228 -13 264 -18 q 160 -1 193 -8 q 100 14 128 6 q 57 29 72 22 l 90 172 q 173 143 122 158 q 294 128 224 128 q 417 165 382 128 q 453 258 453 203 q 399 353 453 326 q 261 381 344 381 l 208 381 l 208 522 l 272 522 q 325 528 299 522 q 372 546 351 533 q 406 579 393 558 q 419 632 419 600 q 391 706 419 679 q 313 733 363 733 q 216 717 264 733 q 133 678 168 701 l 72 803 q 172 853 110 828 q 311 879 233 879 q 437 861 383 879 q 525 810 490 843 q 576 733 560 778 q 593 638 593 689 q 564 539 593 586 q 486 467 535 492 q 590 385 553 439 q 626 256 626 331 q 607 146 626 196 q 547 59 588 96 q 444 2 507 22 q 296 -18 382 -18 z "},"4":{"ha":694,"x_min":38,"x_max":660,"o":"m 396 646 q 344 578 371 614 q 292 502 318 542 q 243 422 267 463 q 201 343 219 382 l 396 343 l 396 646 m 567 860 l 567 343 l 660 343 l 660 203 l 567 203 l 567 0 l 396 0 l 396 203 l 38 203 l 38 328 q 106 451 64 382 q 197 592 147 519 q 303 734 247 664 q 414 860 358 804 l 567 860 z "},"5":{"ha":694,"x_min":49,"x_max":621,"o":"m 446 253 q 434 319 446 289 q 387 370 422 349 q 286 403 351 392 q 115 415 221 415 q 138 644 129 532 q 150 860 146 756 l 589 860 l 589 718 l 293 718 q 286 625 290 674 q 279 546 282 576 q 536 463 451 535 q 621 260 621 390 q 600 149 621 200 q 536 61 579 99 q 429 3 493 24 q 281 -18 365 -18 q 213 -14 247 -18 q 146 -3 178 -10 q 88 11 114 3 q 49 26 63 19 l 83 168 q 161 140 114 153 q 279 128 208 128 q 362 139 329 128 q 413 167 394 150 q 439 207 432 185 q 446 253 446 229 z "},"6":{"ha":694,"x_min":64,"x_max":632,"o":"m 335 408 q 281 403 308 408 q 235 388 253 397 q 233 363 233 375 q 232 336 232 350 q 238 259 232 296 q 257 193 243 222 q 295 147 271 164 q 356 129 319 129 q 406 143 385 129 q 440 178 426 157 q 459 224 453 199 q 465 272 465 249 q 436 373 465 338 q 335 408 407 408 m 357 550 q 484 528 432 550 q 569 468 536 506 q 617 381 603 431 q 632 275 632 331 q 616 174 632 225 q 567 79 600 122 q 482 9 533 36 q 360 -18 431 -18 q 140 72 215 -18 q 64 351 64 161 q 101 572 64 476 q 206 733 138 668 q 369 832 274 799 q 582 865 465 865 l 592 719 q 483 708 536 718 q 386 676 431 699 q 309 617 342 653 q 261 526 276 581 q 313 544 288 538 q 357 550 338 550 z "},"7":{"ha":694,"x_min":68,"x_max":629,"o":"m 183 0 q 213 188 188 89 q 273 385 238 288 q 350 569 308 482 q 429 718 392 656 l 68 718 l 68 860 l 629 860 l 629 731 q 547 610 592 688 q 463 433 503 532 q 394 223 424 335 q 357 0 364 111 l 183 0 z "},"8":{"ha":694,"x_min":53,"x_max":643,"o":"m 619 656 q 590 538 619 596 q 499 442 561 481 q 610 342 578 396 q 643 222 643 288 q 627 138 643 181 q 576 60 611 94 q 483 4 540 26 q 343 -18 426 -18 q 224 -2 278 -18 q 133 44 171 14 q 74 117 94 74 q 53 215 53 161 q 83 338 53 281 q 179 440 114 396 q 96 529 118 482 q 74 629 74 576 q 88 716 74 671 q 135 797 103 761 q 219 857 167 833 q 350 881 272 881 q 547 819 474 881 q 619 656 619 758 m 482 225 q 472 274 482 253 q 438 312 461 294 q 379 347 415 329 q 293 383 343 364 q 233 312 254 351 q 213 236 213 272 q 252 152 213 181 q 346 124 292 124 q 445 153 408 124 q 482 225 482 183 m 347 739 q 269 714 303 739 q 235 640 235 689 q 267 561 235 592 q 379 497 299 531 q 440 567 422 529 q 458 642 458 606 q 426 715 458 690 q 347 739 393 739 z "},"9":{"ha":694,"x_min":63,"x_max":635,"o":"m 363 457 q 418 463 389 457 q 465 478 447 468 q 467 505 467 489 q 468 536 468 521 q 462 606 468 571 q 441 671 456 642 q 402 718 426 700 q 342 736 378 736 q 290 724 311 736 q 255 693 268 713 q 235 647 242 674 q 229 592 229 621 q 260 492 229 526 q 363 457 290 457 m 340 315 q 213 337 265 315 q 126 396 160 358 q 78 483 93 433 q 63 589 63 532 q 80 691 63 639 q 131 785 97 743 q 217 855 165 828 q 338 882 268 882 q 558 785 482 882 q 635 514 635 688 q 599 292 635 389 q 495 131 563 196 q 333 31 428 65 q 121 -3 238 -3 l 115 144 q 314 192 226 146 q 438 339 401 239 q 340 315 383 315 z "},"\u0000":{"ha":694,"x_min":0,"x_max":0,"o":""},"\t":{"ha":694,"x_min":0,"x_max":0,"o":""}," ":{"ha":694,"x_min":0,"x_max":0,"o":""},"!":{"ha":694,"x_min":232,"x_max":463,"o":"m 446 632 q 444 542 446 582 q 438 466 442 503 q 430 393 435 429 q 419 313 425 357 l 278 313 q 266 394 271 357 q 257 467 261 431 q 251 542 253 503 q 249 632 249 582 l 249 860 l 446 860 l 446 632 m 463 99 q 427 14 463 44 q 347 -17 392 -17 q 267 14 303 -17 q 232 99 232 44 q 267 182 232 151 q 347 213 303 213 q 427 182 392 213 q 463 99 463 151 z "},"\"":{"ha":694,"x_min":121,"x_max":576,"o":"m 576 943 l 576 875 q 573 799 576 840 q 563 715 569 758 q 550 631 557 672 q 536 553 543 589 l 436 553 q 422 631 429 589 q 409 715 415 672 q 399 800 403 758 q 394 876 394 842 l 394 943 l 576 943 m 303 943 l 303 875 q 299 799 303 840 q 290 715 296 758 q 276 631 283 672 q 261 553 268 589 l 163 553 q 149 631 156 589 q 135 715 142 672 q 125 800 129 758 q 121 876 121 842 l 121 943 l 303 943 z "},"#":{"ha":694,"x_min":25,"x_max":671,"o":"m 192 649 l 232 860 l 374 860 l 332 649 l 443 649 l 483 860 l 625 860 l 585 649 l 671 649 l 671 507 l 557 507 l 528 354 l 671 354 l 671 213 l 501 213 l 461 0 l 319 0 l 360 213 l 249 213 l 210 0 l 68 0 l 108 213 l 25 213 l 25 354 l 135 354 l 164 507 l 25 507 l 25 649 l 192 649 m 276 354 l 388 354 l 415 507 l 306 507 l 276 354 z "},"$":{"ha":694,"x_min":47,"x_max":649,"o":"m 268 13 q 127 40 181 21 q 47 75 74 60 l 100 211 q 204 173 144 190 q 331 156 264 156 q 439 176 408 156 q 469 239 469 196 q 458 282 469 264 q 423 315 446 300 q 367 341 400 329 q 292 368 333 353 q 213 400 251 382 q 143 444 174 418 q 94 506 113 469 q 75 597 75 543 q 85 672 75 636 q 119 739 96 708 q 179 792 142 769 q 271 828 217 815 l 271 963 l 429 963 l 429 835 q 542 815 493 829 q 619 790 592 801 l 581 647 q 485 677 540 664 q 372 690 431 690 q 280 667 306 690 q 254 611 254 643 q 263 574 254 589 q 291 549 272 560 q 336 527 310 538 q 399 504 363 517 q 499 460 453 483 q 578 408 544 438 q 630 338 611 378 q 649 243 649 297 q 638 169 649 206 q 601 101 626 132 q 533 47 575 69 q 426 14 490 24 l 426 -135 l 268 -135 l 268 13 z "},"%":{"ha":694,"x_min":3,"x_max":692,"o":"m 126 0 l 3 0 l 568 860 l 692 860 l 126 0 m 368 197 q 410 358 368 303 q 524 413 451 413 q 639 358 597 413 q 681 197 681 303 q 639 37 681 92 q 524 -18 597 -18 q 410 37 451 -18 q 368 197 368 92 m 569 197 q 556 281 569 256 q 522 306 542 306 q 491 281 503 306 q 479 197 479 256 q 491 115 479 139 q 522 92 503 92 q 556 115 542 92 q 569 197 569 139 m 14 664 q 56 824 14 769 q 168 879 97 879 q 285 824 243 879 q 326 664 326 769 q 285 503 326 558 q 168 447 243 447 q 56 503 97 447 q 14 664 14 558 m 214 664 q 200 747 214 722 q 168 771 186 771 q 136 747 149 771 q 124 664 124 722 q 136 582 124 606 q 168 558 149 558 q 200 582 186 558 q 214 664 214 606 z "},"&":{"ha":694,"x_min":29,"x_max":669,"o":"m 507 0 q 474 74 492 40 q 376 10 426 32 q 278 -11 326 -11 q 169 8 215 -11 q 91 60 122 28 q 44 136 60 93 q 29 226 29 179 q 63 353 29 293 q 165 456 97 414 q 110 551 132 501 q 89 656 89 601 q 108 753 89 711 q 160 824 128 796 q 231 865 192 851 q 313 879 271 879 q 389 867 351 879 q 456 830 426 854 q 503 769 485 806 q 521 683 521 732 q 481 553 521 617 q 354 446 440 490 q 413 378 382 413 q 475 307 443 343 q 496 475 494 378 l 638 457 q 617 313 636 379 q 569 192 599 246 q 629 97 603 146 q 669 0 656 49 l 507 0 m 406 174 q 325 268 367 222 q 243 358 283 314 q 194 308 213 338 q 175 235 175 278 q 199 153 175 188 q 282 118 224 118 q 346 131 314 118 q 406 174 378 143 m 236 664 q 249 602 236 633 q 283 538 261 571 q 351 603 328 563 q 375 682 375 644 q 358 737 375 718 q 313 756 340 756 q 257 732 278 756 q 236 664 236 708 z "},"'":{"ha":694,"x_min":258,"x_max":440,"o":"m 440 943 l 440 851 q 437 776 440 817 q 427 692 433 735 q 414 606 421 649 q 400 528 407 564 l 300 528 q 286 606 293 564 q 273 692 279 649 q 263 776 267 735 q 258 851 258 817 l 258 943 l 440 943 z "},"(":{"ha":694,"x_min":131,"x_max":579,"o":"m 289 369 q 365 73 289 199 q 574 -131 440 -53 l 494 -236 q 218 24 306 -132 q 131 369 131 179 q 221 722 131 561 q 500 986 311 882 l 579 881 q 367 672 446 803 q 289 369 289 542 z "},")":{"ha":694,"x_min":118,"x_max":567,"o":"m 408 369 q 330 672 408 542 q 118 881 251 803 l 197 986 q 476 722 386 882 q 567 369 567 561 q 479 24 567 179 q 203 -236 392 -132 l 124 -131 q 333 73 257 -53 q 408 369 408 199 z "},"*":{"ha":694,"x_min":64,"x_max":636,"o":"m 350 519 q 338 479 346 503 q 320 432 329 456 q 301 388 311 408 q 281 353 290 367 l 254 318 l 124 411 l 150 446 q 177 476 160 460 q 213 510 194 493 q 251 541 232 526 q 285 565 271 556 q 242 565 267 565 q 193 567 218 565 q 144 574 168 569 q 106 583 121 578 l 64 597 l 115 749 l 157 736 q 193 719 172 731 q 235 693 214 707 q 276 665 256 679 q 310 640 296 651 q 297 680 304 657 q 284 728 290 703 q 274 776 278 753 q 269 817 269 800 l 269 860 l 431 860 l 431 817 q 426 776 431 800 q 416 728 422 753 q 402 680 410 703 q 389 640 394 657 q 424 664 403 650 q 466 691 444 678 q 508 715 488 704 q 546 732 529 726 l 586 746 l 636 592 l 594 579 q 554 571 578 574 q 506 566 531 568 q 456 564 481 564 q 414 564 432 564 q 449 540 429 554 q 488 509 468 525 q 524 476 507 493 q 550 446 540 460 l 576 411 l 446 317 l 421 351 q 401 386 411 365 q 381 431 390 407 q 363 478 371 456 q 350 519 356 501 z "},"+":{"ha":694,"x_min":56,"x_max":639,"o":"m 56 435 l 274 435 l 274 676 l 421 676 l 421 435 l 639 435 l 639 294 l 421 294 l 421 53 l 274 53 l 274 294 l 56 294 l 56 435 z "},",":{"ha":694,"x_min":175,"x_max":482,"o":"m 175 -101 q 226 -92 200 -96 q 274 -79 251 -87 q 315 -56 297 -71 q 344 -14 333 -40 q 263 28 292 -8 q 233 108 233 64 q 269 197 233 163 q 358 232 304 232 q 449 193 417 232 q 482 88 482 154 q 467 -10 482 39 q 417 -100 451 -58 q 329 -172 383 -142 q 197 -212 275 -203 l 175 -101 z "},"-":{"ha":694,"x_min":157,"x_max":538,"o":"m 157 440 l 538 440 l 538 272 l 157 272 l 157 440 z "},".":{"ha":694,"x_min":224,"x_max":472,"o":"m 472 110 q 435 17 472 49 q 349 -15 397 -15 q 301 -7 324 -15 q 262 17 279 1 q 234 56 244 33 q 224 110 224 79 q 234 162 224 139 q 262 200 244 185 q 301 224 279 215 q 349 232 324 232 q 435 200 397 232 q 472 110 472 168 z "},"/":{"ha":694,"x_min":65,"x_max":629,"o":"m 243 -229 l 65 -229 l 454 971 l 629 971 l 243 -229 z "},":":{"ha":694,"x_min":224,"x_max":472,"o":"m 472 110 q 435 17 472 49 q 349 -15 397 -15 q 301 -7 324 -15 q 262 17 279 1 q 234 56 244 33 q 224 110 224 79 q 234 162 224 139 q 262 200 244 185 q 301 224 279 215 q 349 232 324 232 q 435 200 397 232 q 472 110 472 168 m 472 531 q 435 438 472 469 q 349 406 397 406 q 301 414 324 406 q 262 438 279 422 q 234 477 244 454 q 224 531 224 500 q 234 583 224 560 q 262 621 244 606 q 301 644 279 636 q 349 653 324 653 q 435 621 397 653 q 472 531 472 589 z "},";":{"ha":694,"x_min":164,"x_max":472,"o":"m 164 -101 q 215 -92 189 -96 q 263 -79 240 -87 q 304 -56 286 -71 q 333 -14 322 -40 q 251 28 281 -8 q 222 108 222 64 q 258 197 222 163 q 347 232 293 232 q 438 193 406 232 q 471 88 471 154 q 456 -10 471 39 q 406 -100 440 -58 q 318 -172 372 -142 q 186 -212 264 -203 l 164 -101 m 472 531 q 435 438 472 469 q 349 406 397 406 q 301 414 324 406 q 262 438 279 422 q 234 477 244 454 q 224 531 224 500 q 234 583 224 560 q 262 621 244 606 q 301 644 279 636 q 349 653 324 653 q 435 621 397 653 q 472 531 472 589 z "},"<":{"ha":694,"x_min":63,"x_max":643,"o":"m 63 435 l 596 658 l 643 508 l 254 357 l 643 206 l 596 56 l 63 281 l 63 435 z "},"=":{"ha":694,"x_min":56,"x_max":639,"o":"m 56 571 l 639 571 l 639 429 l 56 429 l 56 571 m 56 300 l 639 300 l 639 158 l 56 158 l 56 300 z "},">":{"ha":694,"x_min":56,"x_max":638,"o":"m 638 279 l 104 54 l 56 204 l 446 356 l 56 507 l 104 657 l 638 433 l 638 279 z "},"?":{"ha":694,"x_min":96,"x_max":603,"o":"m 231 313 q 229 333 229 319 q 258 440 229 389 q 335 529 288 490 q 394 585 367 556 q 422 650 422 615 q 393 713 422 692 q 319 735 364 735 q 233 722 275 735 q 143 685 192 708 l 96 815 q 210 863 144 846 q 339 879 275 879 q 469 858 418 879 q 550 804 521 836 q 591 734 579 772 q 603 661 603 696 q 587 588 603 621 q 547 525 571 554 q 494 470 522 496 q 442 419 467 444 q 402 368 418 394 q 386 313 386 342 l 231 313 m 435 99 q 399 14 435 44 q 319 -17 364 -17 q 276 -9 297 -17 q 239 14 256 -1 q 213 50 222 29 q 203 99 203 71 q 213 147 203 125 q 239 183 222 168 q 276 205 256 197 q 319 213 297 213 q 363 205 342 213 q 399 183 383 197 q 425 147 415 168 q 435 99 435 125 z "},"@":{"ha":694,"x_min":25,"x_max":650,"o":"m 650 76 q 563 53 613 61 q 478 46 514 46 q 380 62 425 46 q 301 112 335 78 q 249 201 268 146 q 231 335 231 256 q 241 444 231 393 q 276 534 251 496 q 341 594 301 572 q 439 617 381 617 q 504 610 465 617 l 504 632 q 471 722 504 685 q 374 758 438 758 q 287 739 328 758 q 216 671 246 719 q 169 541 186 622 q 151 336 151 460 q 166 164 151 239 q 216 38 181 89 q 310 -39 251 -12 q 457 -65 369 -65 q 560 -58 522 -65 q 608 -47 597 -51 l 624 -168 q 581 -177 600 -174 q 542 -183 561 -181 q 502 -186 522 -185 q 457 -187 482 -187 q 286 -162 365 -187 q 149 -76 207 -137 q 58 88 92 -14 q 25 344 25 190 q 53 597 25 494 q 131 762 82 699 q 242 852 179 825 q 374 879 304 879 q 481 862 431 879 q 568 807 531 844 q 628 709 606 769 q 650 563 650 649 l 650 76 m 376 343 q 380 289 376 317 q 393 239 383 261 q 420 202 403 217 q 465 188 438 188 q 504 192 483 188 l 504 469 q 483 474 493 472 q 464 475 474 475 q 421 463 438 475 q 394 433 404 451 q 381 390 385 414 q 376 343 376 367 z "},"A":{"ha":694,"x_min":13,"x_max":682,"o":"m 499 0 l 458 199 l 229 199 l 190 0 l 13 0 q 136 463 74 254 q 257 860 199 672 l 443 860 q 565 459 504 671 q 682 0 625 247 l 499 0 m 346 693 q 320 601 332 644 q 298 515 308 557 q 278 429 288 472 q 261 340 269 386 l 429 340 q 413 429 421 386 q 394 515 404 472 q 372 601 383 557 q 346 693 360 644 z "},"B":{"ha":694,"x_min":75,"x_max":651,"o":"m 651 260 q 625 130 651 182 q 553 47 599 78 q 447 2 508 15 q 314 -11 385 -11 q 196 -5 257 -11 q 75 14 135 1 l 75 849 q 182 863 124 857 q 297 869 240 869 q 456 849 394 869 q 551 797 517 829 q 599 724 586 764 q 611 643 611 683 q 581 535 611 582 q 501 460 551 488 q 620 374 589 428 q 651 260 651 319 m 246 376 l 246 143 q 285 139 264 140 q 328 138 307 138 q 385 142 357 138 q 434 160 413 147 q 469 198 456 174 q 483 260 483 222 q 444 349 483 322 q 338 376 404 376 l 246 376 m 313 518 q 411 547 378 518 q 444 625 444 575 q 435 674 444 656 q 408 703 425 693 q 369 717 392 714 q 324 721 347 721 q 283 719 304 721 q 246 715 263 718 l 246 518 l 313 518 z "},"C":{"ha":694,"x_min":38,"x_max":651,"o":"m 411 -18 q 133 99 229 -18 q 38 431 38 215 q 67 621 38 538 q 148 762 96 704 q 272 849 200 819 q 428 879 343 879 q 510 872 474 879 q 575 854 547 864 q 622 833 603 844 q 650 817 640 822 l 606 681 q 528 716 574 701 q 425 731 483 731 q 347 716 385 731 q 278 667 308 701 q 230 576 249 633 q 211 435 211 519 q 262 209 211 288 q 428 131 313 131 q 538 146 494 131 q 608 176 582 161 l 651 42 q 553 1 615 19 q 411 -18 492 -18 z "},"D":{"ha":694,"x_min":75,"x_max":657,"o":"m 246 139 q 261 138 253 138 q 276 138 269 138 q 374 160 335 138 q 438 221 414 182 q 473 313 463 260 q 483 431 483 367 q 475 539 483 486 q 446 632 467 592 q 389 697 425 672 q 296 721 353 721 q 271 720 285 721 q 246 717 257 719 l 246 139 m 657 431 q 627 227 657 311 q 544 90 597 143 q 419 13 492 38 q 258 -11 346 -11 q 169 -6 213 -11 q 75 10 125 -1 l 75 849 q 185 865 133 861 q 281 869 236 869 q 435 844 365 869 q 554 766 506 819 q 630 630 603 713 q 657 431 657 547 z "},"E":{"ha":694,"x_min":88,"x_max":639,"o":"m 88 0 l 88 860 l 608 860 l 608 718 l 258 718 l 258 525 l 563 525 l 563 383 l 258 383 l 258 142 l 639 142 l 639 0 l 88 0 z "},"F":{"ha":694,"x_min":88,"x_max":614,"o":"m 88 0 l 88 860 l 614 860 l 614 718 l 258 718 l 258 510 l 569 510 l 569 368 l 258 368 l 258 0 l 88 0 z "},"G":{"ha":694,"x_min":38,"x_max":644,"o":"m 433 731 q 331 708 372 731 q 262 647 289 686 q 223 552 235 607 q 211 431 211 497 q 260 203 211 276 q 403 131 308 131 q 436 132 418 131 q 469 136 454 133 l 469 450 l 640 450 l 640 21 q 545 -4 610 10 q 389 -18 481 -18 q 244 10 308 -18 q 133 95 179 39 q 63 235 88 151 q 38 431 38 319 q 67 624 38 540 q 146 765 96 708 q 264 851 196 822 q 410 879 332 879 q 499 872 460 879 q 568 854 539 864 q 616 833 597 844 q 644 817 635 822 l 600 681 q 525 715 569 700 q 433 731 481 731 z "},"H":{"ha":694,"x_min":63,"x_max":632,"o":"m 632 860 l 632 0 l 461 0 l 461 379 l 233 379 l 233 0 l 63 0 l 63 860 l 233 860 l 233 521 l 461 521 l 461 860 l 632 860 z "},"I":{"ha":694,"x_min":75,"x_max":621,"o":"m 75 0 l 75 142 l 263 142 l 263 718 l 75 718 l 75 860 l 621 860 l 621 718 l 435 718 l 435 142 l 621 142 l 621 0 l 75 0 z "},"J":{"ha":694,"x_min":58,"x_max":608,"o":"m 608 288 q 592 169 608 225 q 540 72 576 114 q 444 6 503 31 q 303 -18 386 -18 q 157 4 215 -18 q 58 58 99 26 l 124 194 q 201 151 158 172 q 288 131 243 131 q 395 166 354 131 q 436 297 436 201 l 436 718 l 149 718 l 149 860 l 608 860 l 608 288 z "},"K":{"ha":694,"x_min":63,"x_max":679,"o":"m 486 0 q 442 105 471 49 q 379 215 414 161 q 306 315 344 268 q 233 393 268 361 l 233 0 l 63 0 l 63 860 l 233 860 l 233 503 q 297 589 264 542 q 360 683 331 636 q 415 776 390 731 q 457 860 440 822 l 650 860 q 603 774 631 822 q 542 674 576 726 q 467 568 507 622 q 385 464 428 514 q 472 368 428 422 q 556 252 517 314 q 628 126 596 190 q 679 0 660 61 l 486 0 z "},"L":{"ha":694,"x_min":99,"x_max":639,"o":"m 639 0 l 99 0 l 99 860 l 271 860 l 271 142 l 639 142 l 639 0 z "},"M":{"ha":694,"x_min":32,"x_max":663,"o":"m 224 860 q 248 785 233 831 q 279 686 263 739 q 313 579 296 633 q 344 479 329 525 q 379 585 361 531 q 414 691 397 640 q 444 786 431 742 q 469 860 458 831 l 611 860 q 630 640 621 747 q 645 428 639 533 q 656 217 651 324 q 663 0 660 111 l 506 0 l 514 668 l 408 304 l 283 304 l 182 668 l 189 0 l 32 0 q 41 219 36 106 q 51 446 46 333 q 65 664 57 558 q 82 860 72 769 l 224 860 z "},"N":{"ha":694,"x_min":64,"x_max":631,"o":"m 493 0 q 366 285 435 143 q 218 571 297 428 l 218 0 l 64 0 l 64 860 l 201 860 q 279 727 240 799 q 355 585 318 656 q 423 447 392 514 q 476 331 454 381 l 476 860 l 631 860 l 631 0 l 493 0 z "},"O":{"ha":694,"x_min":38,"x_max":657,"o":"m 211 431 q 216 313 211 368 q 235 218 221 258 q 276 154 250 178 q 347 131 303 131 q 417 154 390 131 q 459 219 444 178 q 478 314 474 260 q 483 431 483 368 q 478 548 483 493 q 459 643 474 603 q 418 707 444 683 q 347 731 392 731 q 276 707 303 731 q 235 642 250 683 q 216 547 221 601 q 211 431 211 493 m 38 431 q 119 766 38 653 q 347 879 201 879 q 578 766 499 879 q 657 431 657 653 q 576 95 657 208 q 349 -18 496 -18 q 117 95 197 -18 q 38 431 38 208 z "},"P":{"ha":694,"x_min":75,"x_max":656,"o":"m 311 869 q 565 802 475 869 q 656 582 656 735 q 565 359 656 428 q 307 290 474 290 l 246 290 l 246 0 l 75 0 l 75 849 q 131 858 100 854 q 194 865 163 863 q 257 868 226 867 q 311 869 288 869 m 331 721 q 288 720 315 721 q 246 717 261 719 l 246 439 l 315 439 q 439 472 397 439 q 481 583 481 504 q 440 690 481 658 q 331 721 399 721 z "},"Q":{"ha":694,"x_min":38,"x_max":657,"o":"m 38 426 q 119 762 38 649 q 347 875 201 875 q 578 762 499 875 q 657 426 657 649 q 594 120 657 232 q 414 -15 532 8 q 488 -73 429 -50 q 650 -114 547 -96 l 614 -236 q 369 -162 451 -214 q 271 -12 286 -110 q 98 126 158 15 q 38 426 38 236 m 211 426 q 216 310 211 364 q 235 215 221 256 q 276 150 250 174 q 347 126 303 126 q 417 150 390 126 q 459 215 444 174 q 478 310 474 256 q 483 426 483 364 q 478 544 483 489 q 459 639 474 599 q 418 703 444 679 q 347 726 392 726 q 276 703 303 726 q 235 638 250 679 q 216 543 221 597 q 211 426 211 489 z "},"R":{"ha":694,"x_min":75,"x_max":679,"o":"m 297 869 q 431 853 371 869 q 533 801 490 836 q 599 713 576 767 q 622 588 622 660 q 592 451 622 513 q 490 358 561 390 q 540 278 514 322 q 592 187 567 235 q 640 91 617 139 q 679 0 663 43 l 500 0 q 426 160 468 83 q 335 317 383 238 l 246 317 l 246 0 l 75 0 l 75 847 q 130 858 100 853 q 190 865 160 863 q 249 868 221 867 q 297 869 276 869 m 449 589 q 407 689 449 657 q 297 721 365 721 q 274 720 288 721 q 246 717 260 719 l 246 458 l 283 458 q 410 492 371 458 q 449 589 449 526 z "},"S":{"ha":694,"x_min":56,"x_max":639,"o":"m 322 125 q 394 134 365 125 q 439 159 422 143 q 462 195 456 175 q 468 236 468 215 q 453 283 468 263 q 414 320 438 304 q 361 349 390 336 q 303 374 332 363 q 222 406 264 388 q 147 451 181 424 q 90 520 113 479 q 68 622 68 561 q 147 811 68 743 q 363 879 225 879 q 501 861 442 879 q 600 821 560 843 l 550 689 q 473 722 515 708 q 375 736 431 736 q 239 638 239 736 q 253 594 239 613 q 288 560 267 575 q 337 535 310 546 q 390 514 364 524 q 474 480 431 499 q 555 430 518 461 q 615 352 592 399 q 639 235 639 306 q 560 48 639 114 q 322 -18 482 -18 q 151 5 215 -18 q 56 47 88 28 l 106 186 q 195 144 143 164 q 322 125 247 125 z "},"T":{"ha":694,"x_min":35,"x_max":660,"o":"m 660 860 l 660 718 l 433 718 l 433 0 l 261 0 l 261 718 l 35 718 l 35 860 l 660 860 z "},"U":{"ha":694,"x_min":54,"x_max":640,"o":"m 344 -18 q 205 5 261 -18 q 115 71 149 28 q 68 175 82 114 q 54 311 54 236 l 54 860 l 226 860 l 226 322 q 232 231 226 268 q 251 172 238 194 q 288 140 264 150 q 347 131 311 131 q 407 140 383 131 q 444 173 431 150 q 464 233 458 196 q 469 324 469 269 l 469 860 l 640 860 l 640 311 q 626 175 640 236 q 578 71 613 114 q 486 5 543 28 q 344 -18 429 -18 z "},"V":{"ha":694,"x_min":18,"x_max":678,"o":"m 258 0 q 188 217 225 96 q 117 458 150 338 q 57 685 83 578 q 18 860 31 792 l 199 860 q 224 705 207 793 q 260 523 240 617 q 303 338 281 429 q 349 175 326 247 q 393 337 371 246 q 435 522 415 428 q 471 704 454 615 q 499 860 488 793 l 678 860 q 637 674 661 776 q 581 458 613 571 q 513 227 550 344 q 435 0 475 110 l 258 0 z "},"W":{"ha":694,"x_min":32,"x_max":663,"o":"m 411 556 q 428 490 417 529 q 452 404 439 451 q 481 303 465 357 q 513 192 497 249 q 511 347 513 264 q 508 515 510 429 q 506 690 507 601 q 504 860 504 778 l 663 860 q 654 642 658 754 q 644 420 650 531 q 631 203 639 310 q 614 0 624 96 l 472 0 q 411 188 442 88 q 350 381 381 289 q 286 190 319 293 q 225 0 253 88 l 83 0 q 64 203 72 96 q 49 422 56 311 q 39 644 43 532 q 32 860 35 756 l 190 860 q 188 690 189 778 q 185 516 186 603 q 182 347 183 429 q 181 192 181 264 q 209 289 193 236 q 240 393 225 342 q 267 488 254 444 q 286 556 279 531 l 411 556 z "},"X":{"ha":694,"x_min":15,"x_max":679,"o":"m 494 0 q 430 157 468 71 q 350 329 392 243 q 269 159 310 247 q 200 0 229 71 l 15 0 q 56 90 29 38 q 116 204 83 143 q 185 330 149 265 q 254 454 221 394 l 29 860 l 214 860 l 350 585 l 493 860 l 665 860 l 446 458 q 519 333 483 399 q 587 206 556 268 q 642 91 618 144 q 679 0 665 38 l 494 0 z "},"Y":{"ha":694,"x_min":18,"x_max":678,"o":"m 353 467 q 388 547 368 499 q 428 650 408 596 q 467 760 449 704 q 501 860 486 815 l 678 860 q 625 722 651 789 q 569 590 599 656 q 507 460 540 525 q 435 328 474 396 l 435 0 l 263 0 l 263 326 q 128 590 186 461 q 18 860 71 718 l 201 860 q 272 656 233 760 q 353 467 311 553 z "},"Z":{"ha":694,"x_min":64,"x_max":631,"o":"m 618 740 q 508 568 558 649 q 415 415 458 488 q 334 274 372 342 q 261 142 296 207 l 631 142 l 631 0 l 64 0 l 64 99 q 129 224 94 158 q 207 365 164 290 q 301 528 250 440 q 413 718 351 615 l 82 718 l 82 860 l 618 860 l 618 740 z "},"[":{"ha":694,"x_min":157,"x_max":542,"o":"m 157 971 l 542 971 l 542 838 l 319 838 l 319 -96 l 542 -96 l 542 -229 l 157 -229 l 157 971 z "},"\\":{"ha":694,"x_min":68,"x_max":632,"o":"m 68 971 l 243 971 l 632 -229 l 456 -229 l 68 971 z "},"]":{"ha":694,"x_min":151,"x_max":538,"o":"m 538 -229 l 151 -229 l 151 -96 l 374 -96 l 374 838 l 151 838 l 151 971 l 538 971 l 538 -229 z "},"^":{"ha":694,"x_min":22,"x_max":682,"o":"m 682 429 l 528 354 l 353 657 l 178 354 l 22 429 l 279 860 l 425 860 l 682 429 z "},"_":{"ha":694,"x_min":11,"x_max":683,"o":"m 11 -81 l 683 -81 l 683 -229 l 11 -229 l 11 -81 z "},"`":{"ha":694,"x_min":211,"x_max":515,"o":"m 296 960 l 515 806 l 453 713 l 211 829 l 296 960 z "},"a":{"ha":694,"x_min":61,"x_max":613,"o":"m 349 122 q 403 123 376 122 q 449 126 429 124 l 449 276 q 408 281 432 279 q 365 283 385 283 q 314 280 339 283 q 270 268 289 276 q 240 244 251 260 q 229 204 229 229 q 263 141 229 160 q 349 122 296 122 m 333 669 q 467 651 414 669 q 553 598 521 632 q 599 515 585 564 q 613 404 613 465 l 613 15 q 501 -4 575 7 q 336 -15 428 -15 q 223 -4 274 -15 q 136 33 172 7 q 81 99 100 58 q 61 200 61 140 q 83 296 61 257 q 143 358 106 335 q 229 392 181 382 q 331 403 278 403 q 449 392 397 403 l 449 413 q 418 494 449 461 q 313 526 388 526 q 219 519 264 526 q 146 503 174 513 l 122 640 q 213 660 154 651 q 333 669 271 669 z "},"b":{"ha":694,"x_min":86,"x_max":653,"o":"m 479 331 q 449 471 479 422 q 358 519 419 519 q 303 512 331 519 q 257 493 276 504 l 257 139 q 298 133 276 135 q 335 132 319 132 q 440 177 401 132 q 479 331 479 222 m 653 326 q 632 185 653 249 q 571 78 611 122 q 472 9 531 33 q 339 -15 414 -15 q 203 -6 272 -15 q 86 19 133 4 l 86 935 l 257 964 l 257 638 q 326 660 293 654 q 393 667 360 667 q 506 642 457 667 q 587 573 554 618 q 636 465 619 528 q 653 326 653 403 z "},"c":{"ha":694,"x_min":61,"x_max":647,"o":"m 61 326 q 83 460 61 397 q 151 569 106 522 q 267 642 197 615 q 435 669 338 669 q 540 661 493 669 q 636 633 588 653 l 599 496 q 537 513 571 506 q 450 521 503 521 q 348 506 389 521 q 282 466 307 492 q 246 404 257 440 q 235 326 235 368 q 285 185 235 236 q 458 133 336 133 q 542 139 499 133 q 622 157 586 144 l 647 17 q 560 -6 611 3 q 439 -15 508 -15 q 267 11 339 -15 q 150 83 196 38 q 83 192 104 129 q 61 326 61 254 z "},"d":{"ha":694,"x_min":39,"x_max":597,"o":"m 213 331 q 245 188 213 243 q 350 132 278 132 q 389 133 371 132 q 426 138 407 135 l 426 493 q 382 512 407 504 q 329 519 357 519 q 240 471 268 519 q 213 331 213 422 m 597 19 q 482 -6 550 4 q 349 -15 414 -15 q 117 75 196 -15 q 39 322 39 165 q 105 574 39 482 q 300 667 171 667 q 368 659 335 667 q 426 638 401 651 l 426 935 l 597 964 l 597 19 z "},"e":{"ha":694,"x_min":43,"x_max":646,"o":"m 43 321 q 69 472 43 407 q 139 581 96 538 q 238 647 182 625 q 351 669 293 669 q 571 584 496 669 q 646 335 646 499 q 645 300 646 318 q 643 271 644 282 l 219 271 q 272 170 219 207 q 408 133 325 133 q 506 144 460 133 q 585 167 553 156 l 608 21 q 514 -5 564 6 q 401 -15 464 -15 q 252 6 318 -15 q 140 70 186 28 q 68 175 93 113 q 43 321 43 238 m 481 389 q 474 440 481 415 q 451 483 467 464 q 413 515 436 503 q 354 526 389 526 q 297 515 321 526 q 256 485 272 504 q 231 440 240 465 q 219 389 222 415 l 481 389 z "},"f":{"ha":694,"x_min":50,"x_max":683,"o":"m 193 0 l 193 511 l 50 511 l 50 653 l 193 653 l 193 690 q 216 822 193 769 q 278 905 239 874 q 367 949 317 936 q 469 963 417 963 q 581 953 524 963 q 683 921 638 943 l 654 782 q 574 805 622 793 q 483 817 526 817 q 438 813 460 817 q 401 794 417 808 q 375 755 385 781 q 365 688 365 729 l 365 653 l 633 653 l 633 511 l 365 511 l 365 0 l 193 0 z "},"g":{"ha":694,"x_min":46,"x_max":608,"o":"m 219 347 q 249 224 219 267 q 340 182 278 182 q 392 189 368 182 q 436 207 417 196 l 436 521 q 401 526 417 525 q 369 528 386 528 q 219 347 219 528 m 608 79 q 531 -157 608 -81 q 283 -233 454 -233 q 166 -221 222 -233 q 58 -192 110 -208 l 90 -47 q 175 -76 131 -62 q 286 -89 219 -89 q 360 -78 331 -89 q 406 -50 389 -68 q 429 -8 422 -32 q 436 44 436 17 l 436 71 q 370 50 400 57 q 306 43 340 43 q 112 124 178 43 q 46 347 46 204 q 135 588 46 508 q 376 667 224 667 q 608 632 483 667 l 608 79 z "},"h":{"ha":694,"x_min":88,"x_max":613,"o":"m 88 0 l 88 935 l 258 964 l 258 647 q 308 660 279 654 q 360 667 338 667 q 481 645 432 667 q 558 584 529 624 q 600 490 588 544 q 613 368 613 435 l 613 0 l 442 0 l 442 346 q 421 478 442 438 q 342 518 400 518 q 295 513 318 518 q 258 503 272 507 l 258 0 l 88 0 z "},"i":{"ha":694,"x_min":50,"x_max":649,"o":"m 394 840 q 363 761 394 790 q 286 732 331 732 q 210 761 242 732 q 179 840 179 790 q 210 921 179 892 q 286 950 242 950 q 363 921 331 950 q 394 840 394 892 m 649 28 q 549 -6 596 3 q 464 -15 503 -15 q 352 4 397 -15 q 280 60 307 24 q 242 150 253 97 q 231 271 231 203 l 231 511 l 50 511 l 50 653 l 401 653 l 401 249 q 423 162 401 190 q 494 133 444 133 q 551 140 518 133 q 626 165 585 146 l 649 28 z "},"j":{"ha":694,"x_min":68,"x_max":556,"o":"m 556 43 q 536 -90 556 -36 q 483 -176 517 -143 q 402 -222 449 -208 q 301 -236 356 -236 q 178 -219 235 -236 q 68 -176 121 -203 l 121 -32 q 205 -69 156 -51 q 294 -86 254 -86 q 361 -60 338 -86 q 385 35 385 -35 l 385 511 l 121 511 l 121 653 l 556 653 l 556 43 m 535 840 q 503 761 535 790 q 426 732 471 732 q 351 761 382 732 q 319 840 319 790 q 351 921 319 892 q 426 950 382 950 q 503 921 471 950 q 535 840 535 892 z "},"k":{"ha":694,"x_min":88,"x_max":676,"o":"m 260 394 q 310 456 285 424 q 360 524 336 489 q 407 591 385 558 q 446 653 429 624 l 651 653 q 594 583 626 621 q 528 507 563 546 q 460 432 494 468 q 399 365 426 396 q 474 285 433 332 q 553 189 514 239 q 624 89 592 139 q 676 0 657 39 l 481 0 q 437 78 464 35 q 379 165 410 122 q 317 245 349 207 q 260 308 286 283 l 260 0 l 88 0 l 88 935 l 260 964 l 260 394 z "},"l":{"ha":694,"x_min":50,"x_max":649,"o":"m 649 28 q 630 18 644 25 q 592 3 615 11 q 534 -10 568 -4 q 457 -15 500 -15 q 285 55 339 -15 q 231 260 231 125 l 231 814 l 50 814 l 50 956 l 401 956 l 401 247 q 428 157 401 181 q 494 133 454 133 q 581 147 546 133 q 626 165 615 161 l 649 28 z "},"m":{"ha":694,"x_min":40,"x_max":654,"o":"m 476 660 q 565 643 531 660 q 620 593 600 626 q 647 509 640 560 q 654 390 654 458 l 654 0 l 515 0 l 515 399 q 510 461 515 438 q 498 497 506 485 q 480 514 490 510 q 458 518 469 518 q 432 516 446 518 q 407 508 418 514 q 414 450 411 482 q 417 379 417 418 l 417 249 l 278 249 l 278 399 q 265 492 278 465 q 222 518 251 518 q 202 517 214 518 q 179 513 190 515 l 179 0 l 40 0 l 40 628 q 147 651 94 643 q 240 660 200 660 q 305 651 276 660 q 354 621 333 642 q 410 648 378 636 q 476 660 442 660 z "},"n":{"ha":694,"x_min":88,"x_max":613,"o":"m 88 632 q 201 656 133 644 q 347 667 268 667 q 476 645 425 667 q 558 584 528 624 q 600 490 588 544 q 613 368 613 435 l 613 0 l 442 0 l 442 346 q 421 478 442 438 q 336 518 400 518 q 298 517 317 518 q 258 513 279 515 l 258 0 l 88 0 l 88 632 z "},"o":{"ha":694,"x_min":40,"x_max":656,"o":"m 656 328 q 633 187 656 250 q 571 78 611 124 q 474 7 531 32 q 349 -18 418 -18 q 223 7 279 -18 q 126 78 167 32 q 63 187 85 124 q 40 328 40 250 q 63 467 40 404 q 127 576 86 531 q 225 645 168 621 q 349 669 282 669 q 473 645 417 669 q 570 576 529 621 q 633 467 611 531 q 656 328 656 404 m 214 326 q 245 185 214 239 q 346 131 276 131 q 447 185 413 131 q 481 326 481 239 q 449 467 481 414 q 349 521 418 521 q 248 467 282 521 q 214 326 214 414 z "},"p":{"ha":694,"x_min":88,"x_max":651,"o":"m 478 321 q 443 465 478 408 q 338 521 408 521 q 296 519 318 521 q 258 515 274 517 l 258 157 q 303 139 275 146 q 358 132 331 132 q 449 181 419 132 q 478 321 478 231 m 651 326 q 635 188 651 251 q 586 80 618 125 q 506 10 554 35 q 393 -15 457 -15 q 258 17 328 -15 l 258 -229 l 88 -229 l 88 632 q 203 657 135 647 q 339 667 272 667 q 571 575 490 667 q 651 326 651 483 z "},"q":{"ha":694,"x_min":43,"x_max":608,"o":"m 217 321 q 247 181 217 231 q 338 132 276 132 q 392 139 367 132 q 438 157 418 146 l 438 515 q 403 519 425 517 q 358 521 382 521 q 252 465 288 521 q 217 321 217 408 m 43 326 q 64 465 43 401 q 124 572 85 528 q 223 642 164 617 q 357 667 282 667 q 424 664 389 667 q 493 656 460 661 q 556 645 526 651 q 608 632 586 639 l 608 -229 l 438 -229 l 438 18 q 370 -6 406 3 q 303 -15 335 -15 q 190 9 239 -15 q 109 78 142 33 q 60 185 76 122 q 43 326 43 249 z "},"r":{"ha":694,"x_min":124,"x_max":638,"o":"m 607 479 q 567 488 590 483 q 521 495 544 492 q 475 500 497 499 q 438 501 453 501 q 367 498 401 501 q 296 485 332 494 l 296 0 l 124 0 l 124 610 q 263 650 192 635 q 431 665 335 665 q 470 664 444 665 q 525 659 496 663 q 584 651 554 656 q 638 638 614 646 l 607 479 z "},"s":{"ha":694,"x_min":75,"x_max":614,"o":"m 317 129 q 413 138 379 129 q 446 175 446 147 q 435 206 446 193 q 406 227 425 218 q 363 244 388 236 q 313 261 339 253 q 236 287 275 272 q 165 324 197 301 q 113 380 133 346 q 92 465 92 414 q 108 544 92 507 q 158 609 124 581 q 244 653 192 638 q 371 669 297 669 q 490 660 435 669 q 585 632 544 650 l 558 488 q 485 510 535 494 q 372 526 435 526 q 284 510 307 526 q 261 476 261 494 q 272 449 261 461 q 299 428 282 438 q 340 409 317 418 q 389 392 363 400 q 467 364 426 379 q 540 326 507 349 q 593 267 572 303 q 614 181 614 232 q 599 104 614 140 q 548 42 583 68 q 456 0 513 15 q 315 -15 399 -15 q 171 4 231 -15 q 75 39 111 24 l 101 182 q 205 146 150 163 q 317 129 260 129 z "},"t":{"ha":694,"x_min":50,"x_max":656,"o":"m 199 511 l 50 511 l 50 653 l 199 653 l 199 817 l 369 844 l 369 653 l 643 653 l 643 511 l 369 511 l 369 247 q 376 189 369 211 q 396 154 383 167 q 426 138 408 142 q 467 133 444 133 q 510 135 490 133 q 549 140 531 136 q 588 150 568 143 q 632 168 608 157 l 656 21 q 553 -7 608 1 q 447 -15 499 -15 q 342 -6 388 -15 q 264 32 296 4 q 215 110 232 60 q 199 243 199 161 l 199 511 z "},"u":{"ha":694,"x_min":82,"x_max":608,"o":"m 608 22 q 494 -3 561 10 q 347 -15 426 -15 q 215 7 267 -15 q 134 70 164 29 q 93 167 104 111 q 82 289 82 222 l 82 653 l 253 653 l 253 311 q 274 177 253 221 q 358 133 296 133 q 436 140 397 133 l 436 653 l 608 653 l 608 22 z "},"v":{"ha":694,"x_min":19,"x_max":675,"o":"m 269 0 q 142 290 207 124 q 19 653 78 456 l 199 653 q 228 540 211 600 q 265 420 246 481 q 305 303 285 360 q 343 199 325 246 q 383 303 361 246 q 427 420 406 360 q 469 540 449 481 q 501 653 489 600 l 675 653 q 546 290 617 456 q 413 0 475 124 l 269 0 z "},"w":{"ha":694,"x_min":15,"x_max":679,"o":"m 447 0 q 419 79 432 43 q 394 149 406 115 q 370 220 382 183 q 346 301 358 257 q 321 222 332 257 q 298 151 310 186 q 274 81 286 117 q 243 0 261 44 l 114 0 q 83 135 97 61 q 56 294 68 210 q 33 468 43 378 q 15 653 24 558 l 161 653 q 173 417 167 532 q 196 179 179 301 q 227 277 214 232 q 251 363 240 322 q 270 442 261 404 q 289 521 279 481 l 413 521 q 430 442 421 481 q 449 363 439 404 q 472 277 460 322 q 500 179 483 232 q 514 301 508 243 q 523 417 519 360 q 528 533 526 475 q 533 653 531 590 l 679 653 q 637 294 664 463 q 576 0 610 126 l 447 0 z "},"x":{"ha":694,"x_min":28,"x_max":668,"o":"m 353 449 l 486 653 l 660 653 l 449 339 q 514 253 482 299 q 575 163 546 208 q 628 75 604 117 q 668 0 651 33 l 490 0 q 415 126 453 71 q 344 226 378 182 q 269 118 303 171 q 201 0 236 65 l 28 0 q 76 81 49 39 q 133 167 103 124 q 195 254 163 211 q 258 336 228 297 l 29 653 l 208 653 l 353 449 z "},"y":{"ha":694,"x_min":28,"x_max":656,"o":"m 656 653 q 605 473 629 561 q 554 301 581 385 q 498 136 528 217 q 433 -21 468 56 q 381 -117 407 -76 q 324 -183 356 -157 q 255 -221 293 -208 q 165 -233 217 -233 q 87 -226 122 -233 q 28 -208 51 -219 l 60 -65 q 109 -83 88 -78 q 156 -87 131 -87 q 236 -54 206 -87 q 285 25 267 -21 q 163 305 224 147 q 51 653 101 463 l 229 653 q 258 543 242 601 q 292 426 274 485 q 330 312 310 368 q 371 207 350 256 q 400 312 385 256 q 429 426 415 368 q 456 542 443 483 q 481 653 469 600 l 656 653 z "},"z":{"ha":694,"x_min":93,"x_max":606,"o":"m 592 528 q 536 462 572 506 q 458 364 500 418 q 373 251 415 310 q 297 142 331 192 l 606 142 l 606 0 l 93 0 l 93 104 q 163 213 125 157 q 238 322 200 268 q 311 424 275 375 q 376 511 347 472 l 107 511 l 107 653 l 592 653 l 592 528 z "},"{":{"ha":694,"x_min":88,"x_max":607,"o":"m 260 369 q 367 308 335 356 q 400 172 400 261 l 400 15 q 417 -69 400 -43 q 478 -96 433 -96 l 607 -96 l 607 -229 l 463 -229 q 290 -175 338 -229 q 242 -18 242 -121 l 242 186 q 224 274 242 244 q 163 304 206 304 l 88 304 l 88 438 l 163 438 q 224 467 206 438 q 242 554 242 497 l 242 760 q 290 917 242 863 q 463 971 338 971 l 607 971 l 607 838 l 478 838 q 417 812 433 838 q 400 726 400 786 l 400 569 q 367 433 400 481 q 260 369 335 386 z "},"|":{"ha":694,"x_min":263,"x_max":435,"o":"m 263 971 l 435 971 l 435 -229 l 263 -229 l 263 971 z "},"}":{"ha":694,"x_min":88,"x_max":607,"o":"m 435 372 q 326 433 360 386 q 293 569 293 481 l 293 726 q 276 811 293 785 q 215 838 260 838 l 88 838 l 88 971 l 231 971 q 335 957 293 971 q 403 917 378 943 q 440 851 429 890 q 451 760 451 811 l 451 556 q 469 467 451 497 q 531 438 488 438 l 607 438 l 607 304 l 531 304 q 469 274 488 304 q 451 188 451 244 l 451 -18 q 440 -109 451 -69 q 403 -175 429 -149 q 335 -215 378 -201 q 231 -229 293 -229 l 88 -229 l 88 -96 l 215 -96 q 276 -70 260 -96 q 293 15 293 -44 l 293 172 q 326 308 293 261 q 435 372 360 356 z "},"~":{"ha":694,"x_min":29,"x_max":676,"o":"m 479 238 q 409 252 442 238 q 346 285 376 267 q 287 317 315 303 q 232 332 258 332 q 210 329 221 332 q 190 317 200 326 q 172 290 181 308 q 156 242 164 272 l 29 276 q 49 349 35 311 q 85 419 63 388 q 143 473 108 451 q 226 494 178 494 q 295 480 263 494 q 358 447 328 465 q 417 415 389 429 q 472 400 444 400 q 494 403 483 400 q 514 415 504 406 q 533 443 524 425 q 550 492 542 461 l 676 457 q 656 384 669 422 q 619 313 643 346 q 562 259 596 281 q 479 238 528 238 z "},"€":{"ha":694,"x_min":43,"x_max":664,"o":"m 139 593 q 257 806 171 736 q 467 876 343 876 q 551 871 507 876 q 643 846 596 865 l 606 704 q 548 722 581 715 q 475 728 515 728 q 368 692 404 728 q 317 593 332 656 l 569 593 l 546 476 l 300 476 q 298 455 299 465 q 297 433 297 444 q 298 411 297 422 q 300 389 299 400 l 531 389 l 507 272 l 317 272 q 375 166 333 199 q 468 133 417 133 q 547 140 504 133 q 628 165 590 147 l 664 28 q 569 -5 621 7 q 464 -17 517 -17 q 351 -1 406 -17 q 253 49 297 15 q 178 138 210 83 q 133 272 147 193 l 43 272 l 43 389 l 122 389 l 122 476 l 43 476 l 43 593 l 139 593 z "},"‚":{"ha":694,"x_min":175,"x_max":482,"o":"m 175 -101 q 226 -92 200 -96 q 274 -79 251 -87 q 315 -56 297 -71 q 344 -14 333 -40 q 263 28 292 -8 q 233 108 233 64 q 269 197 233 163 q 358 232 304 232 q 449 193 417 232 q 482 88 482 154 q 467 -10 482 39 q 417 -100 451 -58 q 329 -172 383 -142 q 197 -212 275 -203 l 175 -101 z "},"ƒ":{"ha":694,"x_min":-1,"x_max":683,"o":"m 365 43 q 346 -90 365 -36 q 292 -176 326 -143 q 210 -222 257 -208 q 110 -236 164 -236 q 46 -231 69 -236 q -1 -218 22 -225 l 38 -76 q 62 -83 49 -79 q 103 -86 75 -86 q 169 -60 146 -86 q 193 35 193 -35 l 193 511 l 50 511 l 50 653 l 193 653 l 193 690 q 216 822 193 769 q 278 905 239 874 q 367 949 317 936 q 469 963 417 963 q 581 953 524 963 q 683 921 638 943 l 654 782 q 574 805 622 793 q 483 817 526 817 q 438 813 460 817 q 401 794 417 808 q 375 755 385 781 q 365 688 365 729 l 365 653 l 633 653 l 633 511 l 365 511 l 365 43 z "},"„":{"ha":694,"x_min":17,"x_max":626,"o":"m 17 -107 q 69 -96 43 -101 q 116 -81 94 -90 q 155 -56 138 -72 q 182 -15 172 -40 q 113 19 136 -11 q 90 85 90 49 q 122 158 90 133 q 192 182 154 182 q 272 147 246 182 q 299 61 299 111 q 282 -24 299 21 q 233 -106 265 -68 q 153 -169 201 -143 q 40 -200 104 -196 l 17 -107 m 343 -107 q 395 -96 369 -101 q 443 -81 421 -90 q 483 -56 465 -72 q 510 -15 500 -40 q 440 19 463 -11 q 418 85 418 49 q 450 158 418 133 q 519 182 482 182 q 600 147 574 182 q 626 61 626 111 q 610 -24 626 21 q 561 -106 593 -68 q 481 -169 529 -143 q 368 -200 432 -196 l 343 -107 z "},"…":{"ha":694,"x_min":39,"x_max":660,"o":"m 579 -17 q 519 12 540 -17 q 499 75 499 40 q 519 138 499 110 q 579 165 540 165 q 639 137 618 165 q 660 75 660 108 q 640 12 660 40 q 579 -17 619 -17 m 350 -17 q 290 12 310 -17 q 269 75 269 40 q 290 138 269 110 q 350 165 310 165 q 409 137 388 165 q 431 75 431 108 q 410 12 431 40 q 350 -17 389 -17 m 119 -17 q 59 12 79 -17 q 39 75 39 40 q 59 138 39 110 q 119 165 79 165 q 178 137 157 165 q 200 75 200 108 q 179 12 200 40 q 119 -17 158 -17 z "},"†":{"ha":694,"x_min":86,"x_max":611,"o":"m 424 467 l 424 183 q 418 -2 424 83 q 400 -179 413 -87 l 296 -179 q 278 -3 285 -89 q 272 183 272 83 l 272 467 l 86 467 l 86 608 l 272 608 l 272 860 l 424 860 l 424 608 l 611 608 l 611 467 l 424 467 z "},"‡":{"ha":694,"x_min":81,"x_max":607,"o":"m 419 136 q 411 -24 417 51 q 394 -179 406 -99 l 292 -179 q 274 -24 281 -100 q 267 136 268 51 l 81 136 l 81 279 l 267 279 l 267 467 l 81 467 l 81 608 l 267 608 l 267 860 l 419 860 l 419 608 l 607 608 l 607 467 l 419 467 l 419 279 l 607 279 l 607 136 l 419 136 z "},"ˆ":{"ha":694,"x_min":156,"x_max":542,"o":"m 542 790 l 474 708 l 350 804 l 226 708 l 156 790 l 350 960 l 542 790 z "},"‰":{"ha":694,"x_min":13,"x_max":682,"o":"m 110 172 q 143 315 110 265 q 240 364 176 364 q 340 315 307 364 q 374 172 374 265 q 340 31 374 79 q 240 -18 307 -18 q 143 31 176 -18 q 110 172 110 79 m 281 172 q 271 244 281 222 q 240 267 261 267 q 212 244 221 267 q 203 172 203 222 q 212 100 203 122 q 240 78 221 78 q 271 100 261 78 q 281 172 281 122 m 413 172 q 446 315 413 265 q 544 364 479 364 q 644 315 611 364 q 678 172 678 265 q 644 31 678 79 q 544 -18 611 -18 q 446 31 479 -18 q 413 172 413 79 m 47 322 l 13 383 l 647 701 l 682 639 l 47 322 m 585 172 q 575 244 585 222 q 544 267 565 267 q 515 244 524 267 q 506 172 506 222 q 515 100 506 122 q 544 78 524 78 q 575 100 565 78 q 585 172 585 122 m 18 689 q 51 831 18 782 q 149 879 85 879 q 249 831 215 879 q 282 689 282 782 q 249 546 282 594 q 149 497 215 497 q 51 546 85 497 q 18 689 18 594 m 189 689 q 179 760 189 739 q 149 782 169 782 q 119 760 129 782 q 110 689 110 739 q 119 616 110 638 q 149 594 129 594 q 179 616 169 594 q 189 689 189 638 z "},"Š":{"ha":694,"x_min":56,"x_max":639,"o":"m 322 125 q 394 134 365 125 q 439 159 422 143 q 462 195 456 175 q 468 236 468 215 q 453 283 468 263 q 414 320 438 304 q 361 349 390 336 q 303 374 332 363 q 222 406 264 388 q 147 451 181 424 q 90 520 113 479 q 68 622 68 561 q 147 811 68 743 q 363 879 225 879 q 501 861 442 879 q 600 821 560 843 l 550 689 q 473 722 515 708 q 375 736 431 736 q 239 638 239 736 q 253 594 239 613 q 288 560 267 575 q 337 535 310 546 q 390 514 364 524 q 474 480 431 499 q 555 430 518 461 q 615 352 592 399 q 639 235 639 306 q 560 48 639 114 q 322 -18 482 -18 q 151 5 215 -18 q 56 47 88 28 l 106 186 q 195 144 143 164 q 322 125 247 125 m 156 1071 l 224 1153 l 347 1057 l 471 1153 l 542 1071 l 347 901 l 156 1071 z "},"‹":{"ha":694,"x_min":183,"x_max":528,"o":"m 401 353 l 528 121 l 388 54 l 183 353 l 388 650 l 528 585 l 401 353 z "},"Œ":{"ha":694,"x_min":25,"x_max":682,"o":"m 382 0 q 348 -6 365 -4 q 311 -7 331 -7 q 98 97 171 -7 q 25 431 25 200 q 99 764 25 660 q 310 868 174 868 q 350 865 331 868 q 389 860 369 863 l 664 860 l 664 718 l 510 718 l 510 526 l 632 526 l 632 385 l 510 385 l 510 142 l 682 142 l 682 0 l 382 0 m 310 142 q 354 149 333 142 l 354 713 q 310 719 333 719 q 247 699 271 719 q 209 642 222 679 q 191 551 196 604 q 186 431 186 497 q 190 310 186 364 q 208 219 194 257 q 246 162 222 182 q 310 142 269 142 z "},"‘":{"ha":694,"x_min":200,"x_max":507,"o":"m 507 888 q 457 878 482 883 q 409 865 432 874 q 367 842 386 857 q 338 800 349 826 q 419 759 390 796 q 449 678 449 722 q 413 589 449 624 q 324 554 378 554 q 233 593 265 554 q 200 699 200 632 q 215 795 200 746 q 265 886 231 844 q 353 958 299 928 q 485 999 407 989 l 507 888 z "},"’":{"ha":694,"x_min":200,"x_max":507,"o":"m 200 688 q 251 697 225 693 q 299 710 276 701 q 340 733 322 718 q 369 775 358 749 q 288 817 317 781 q 258 897 258 853 q 294 986 258 951 q 383 1021 329 1021 q 474 982 442 1021 q 507 876 507 943 q 492 779 507 828 q 442 689 476 731 q 354 617 408 647 q 222 576 300 586 l 200 688 z "},"“":{"ha":694,"x_min":57,"x_max":667,"o":"m 667 864 q 615 853 640 858 q 568 838 590 847 q 528 813 546 829 q 501 771 511 797 q 570 738 547 768 q 593 672 593 708 q 561 599 593 624 q 492 574 529 574 q 411 610 438 574 q 385 696 385 646 q 401 781 385 736 q 450 863 418 825 q 531 926 482 900 q 643 957 579 953 l 667 864 m 340 864 q 288 853 314 858 q 240 838 263 847 q 201 813 218 829 q 174 771 183 797 q 243 738 221 768 q 265 672 265 708 q 233 599 265 624 q 164 574 201 574 q 83 610 110 574 q 57 696 57 646 q 74 781 57 736 q 122 863 90 825 q 203 926 154 900 q 315 957 251 953 l 340 864 z "},"”":{"ha":694,"x_min":40,"x_max":651,"o":"m 40 713 q 92 724 67 718 q 140 738 118 729 q 180 763 163 747 q 207 806 197 779 q 138 838 160 808 q 115 904 115 868 q 147 978 115 953 q 217 1003 179 1003 q 297 967 271 1003 q 324 881 324 931 q 307 796 324 840 q 258 714 290 751 q 178 651 226 676 q 65 621 129 625 l 40 713 m 368 713 q 420 724 394 718 q 468 738 446 729 q 508 763 490 747 q 535 806 525 779 q 465 838 488 808 q 443 904 443 868 q 474 978 443 953 q 544 1003 506 1003 q 625 967 599 1003 q 651 881 651 931 q 635 796 651 840 q 585 714 618 751 q 505 651 553 676 q 393 621 457 625 l 368 713 z "},"•":{"ha":694,"x_min":158,"x_max":536,"o":"m 536 436 q 523 360 536 396 q 485 297 510 325 q 426 253 461 269 q 347 238 390 238 q 268 253 303 238 q 209 297 233 269 q 172 360 185 325 q 158 436 158 396 q 172 511 158 475 q 209 575 185 547 q 268 619 233 603 q 347 635 303 635 q 426 619 390 635 q 485 575 461 603 q 523 511 510 547 q 536 436 536 475 z "},"–":{"ha":694,"x_min":75,"x_max":621,"o":"m 75 435 l 621 435 l 621 307 l 75 307 l 75 435 z "},"—":{"ha":694,"x_min":0,"x_max":694,"o":"m 0 435 l 694 435 l 694 307 l 0 307 l 0 435 z "},"˜":{"ha":694,"x_min":125,"x_max":575,"o":"m 575 879 q 555 838 568 860 q 523 797 542 817 q 481 765 504 778 q 429 753 457 753 q 388 760 407 753 q 351 774 369 767 q 313 789 332 782 q 274 796 294 796 q 234 780 250 796 q 207 743 218 764 l 125 797 q 145 839 132 817 q 177 881 158 861 q 219 913 196 900 q 272 925 243 925 q 313 918 294 925 q 351 903 332 911 q 388 889 369 896 q 426 882 406 882 q 467 897 450 882 q 493 933 483 913 l 575 879 z "},"™":{"ha":694,"x_min":25,"x_max":661,"o":"m 283 860 l 283 790 l 194 790 l 194 496 l 114 496 l 114 790 l 25 790 l 25 860 l 283 860 m 453 592 l 399 753 q 394 683 396 725 q 392 602 393 642 q 391 532 392 563 q 390 496 390 501 l 310 496 q 318 617 314 565 q 327 710 322 668 q 337 787 332 751 q 349 860 342 822 l 424 860 l 485 671 l 550 860 l 625 860 q 637 786 632 822 q 646 708 642 750 q 653 615 650 667 q 661 496 657 564 l 581 496 q 580 532 581 501 q 578 602 579 563 q 576 683 578 642 q 574 753 575 725 l 515 592 l 453 592 z "},"š":{"ha":694,"x_min":75,"x_max":614,"o":"m 317 129 q 413 138 379 129 q 446 175 446 147 q 435 206 446 193 q 406 227 425 218 q 363 244 388 236 q 313 261 339 253 q 236 287 275 272 q 165 324 197 301 q 113 380 133 346 q 92 465 92 414 q 108 544 92 507 q 158 609 124 581 q 244 653 192 638 q 371 669 297 669 q 490 660 435 669 q 585 632 544 650 l 558 488 q 485 510 535 494 q 372 526 435 526 q 284 510 307 526 q 261 476 261 494 q 272 449 261 461 q 299 428 282 438 q 340 409 317 418 q 389 392 363 400 q 467 364 426 379 q 540 326 507 349 q 593 267 572 303 q 614 181 614 232 q 599 104 614 140 q 548 42 583 68 q 456 0 513 15 q 315 -15 399 -15 q 171 4 231 -15 q 75 39 111 24 l 101 182 q 205 146 150 163 q 317 129 260 129 m 156 878 l 224 960 l 347 864 l 471 960 l 542 878 l 347 708 l 156 878 z "},"›":{"ha":694,"x_min":215,"x_max":560,"o":"m 215 585 l 356 650 l 560 353 l 356 54 l 215 121 l 342 353 l 215 585 z "},"œ":{"ha":694,"x_min":31,"x_max":678,"o":"m 31 328 q 84 586 31 503 q 229 669 138 669 q 305 647 268 669 q 365 579 342 624 q 424 646 392 622 q 492 669 456 669 q 566 653 532 669 q 625 599 600 636 q 664 500 650 561 q 678 350 678 439 q 677 308 678 333 q 675 271 676 282 l 426 271 q 438 205 428 232 q 463 160 447 178 q 497 135 478 143 q 539 128 517 128 q 588 134 564 128 q 632 151 613 140 l 657 17 q 594 -8 625 0 q 521 -15 563 -15 q 426 10 464 -15 q 365 72 389 36 q 311 10 344 36 q 229 -15 278 -15 q 79 72 128 -15 q 31 328 31 160 m 161 328 q 181 172 161 217 q 229 128 201 128 q 276 172 257 128 q 296 328 296 215 q 276 483 296 439 q 228 528 256 528 q 181 484 200 528 q 161 328 161 440 m 492 533 q 462 520 474 533 q 442 486 450 507 q 431 440 435 465 q 428 389 428 414 l 550 389 q 547 442 550 415 q 538 488 544 468 q 521 521 532 508 q 492 533 510 533 z "},"Ÿ":{"ha":694,"x_min":18,"x_max":678,"o":"m 353 467 q 388 547 368 499 q 428 650 408 596 q 467 760 449 704 q 501 860 486 815 l 678 860 q 625 722 651 789 q 569 590 599 656 q 507 460 540 525 q 435 328 474 396 l 435 0 l 263 0 l 263 326 q 128 590 186 461 q 18 860 71 718 l 201 860 q 272 656 233 760 q 353 467 311 553 m 211 940 q 144 965 172 940 q 115 1033 115 989 q 144 1103 115 1078 q 211 1128 172 1128 q 278 1103 249 1128 q 307 1033 307 1078 q 278 965 307 989 q 211 940 249 940 m 488 940 q 420 965 449 940 q 392 1033 392 989 q 420 1103 392 1078 q 488 1128 449 1128 q 555 1103 526 1128 q 583 1033 583 1078 q 555 965 583 989 q 488 940 526 940 z "}," ":{"ha":694,"x_min":0,"x_max":0,"o":""},"¡":{"ha":694,"x_min":232,"x_max":463,"o":"m 249 -1 q 251 88 249 49 q 256 164 253 128 q 265 236 260 200 q 275 317 269 272 l 417 317 q 428 236 422 272 q 438 164 433 200 q 444 88 442 128 q 446 -1 446 49 l 446 -229 l 249 -229 l 249 -1 m 232 532 q 267 616 232 586 q 347 646 303 646 q 427 616 392 646 q 463 532 463 586 q 427 448 463 478 q 347 418 392 418 q 267 448 303 418 q 232 532 232 478 z "},"¢":{"ha":694,"x_min":64,"x_max":632,"o":"m 64 364 q 126 567 64 482 q 321 681 188 653 l 321 858 l 493 858 l 493 688 q 558 676 526 685 q 621 656 589 668 l 585 511 q 526 528 558 521 q 443 536 493 536 q 283 492 328 536 q 239 364 239 449 q 287 236 239 281 q 450 192 335 192 q 532 197 490 192 q 608 214 574 203 l 632 67 q 571 49 606 56 q 493 39 536 42 l 493 -135 l 321 -135 l 321 46 q 206 88 254 58 q 126 158 157 117 q 79 253 94 200 q 64 364 64 306 z "},"£":{"ha":694,"x_min":53,"x_max":632,"o":"m 325 482 l 531 482 l 531 342 l 325 342 q 324 293 325 319 q 320 240 322 267 q 315 188 318 213 q 308 142 313 163 l 632 142 l 632 0 l 121 0 q 150 185 143 100 q 160 342 157 271 l 53 342 l 53 482 l 160 482 l 160 554 q 180 709 160 647 q 236 808 200 771 q 324 861 272 846 q 442 876 376 876 q 534 867 490 876 q 619 839 578 857 l 574 703 q 519 724 544 718 q 458 731 494 729 q 404 724 429 731 q 362 701 379 718 q 335 654 344 683 q 325 579 325 625 l 325 482 z "},"¤":{"ha":694,"x_min":28,"x_max":669,"o":"m 349 675 q 463 653 410 675 l 554 740 l 669 628 l 581 542 q 607 431 607 492 q 581 319 607 369 l 669 233 l 553 119 l 461 208 q 408 191 435 196 q 349 186 381 186 q 290 191 317 186 q 235 208 263 196 l 143 121 l 28 233 l 117 319 q 90 431 90 367 q 117 542 90 494 l 28 628 l 144 742 l 236 653 q 349 675 286 675 m 450 431 q 420 511 450 483 q 349 539 390 539 q 277 511 307 539 q 247 431 247 483 q 277 350 247 378 q 349 322 307 322 q 420 350 390 322 q 450 431 450 378 z "},"¥":{"ha":694,"x_min":18,"x_max":678,"o":"m 622 144 l 435 144 l 435 0 l 263 0 l 263 144 l 74 144 l 74 261 l 263 261 l 263 347 l 74 347 l 74 464 l 214 464 q 159 563 188 511 q 104 667 131 615 q 55 769 78 719 q 18 860 32 818 l 201 860 q 266 681 231 771 q 351 490 301 590 q 501 860 450 688 l 678 860 q 642 770 663 819 q 597 668 621 721 q 545 563 572 615 q 492 464 518 511 l 622 464 l 622 347 l 435 347 l 435 261 l 622 261 l 622 144 z "},"¦":{"ha":694,"x_min":263,"x_max":435,"o":"m 263 263 l 435 263 l 435 -229 l 263 -229 l 263 263 m 263 971 l 435 971 l 435 479 l 263 479 l 263 971 z "},"§":{"ha":694,"x_min":68,"x_max":624,"o":"m 114 56 q 167 36 142 44 q 217 22 192 28 q 269 13 242 15 q 331 10 297 10 q 401 26 376 10 q 425 68 425 42 q 399 108 425 90 q 311 144 374 125 q 220 180 263 161 q 146 225 178 199 q 95 286 114 251 q 76 369 76 321 q 99 464 76 419 q 174 558 121 508 q 131 613 147 582 q 115 678 115 643 q 185 827 115 774 q 385 881 254 881 q 500 867 440 881 q 608 835 560 854 l 563 699 q 481 724 524 714 q 383 735 439 735 q 311 718 326 735 q 296 681 296 701 q 316 639 296 656 q 394 606 336 622 q 624 382 624 539 q 602 290 624 329 q 536 210 581 251 q 588 147 571 178 q 606 67 606 115 q 536 -87 606 -37 q 340 -136 467 -136 q 178 -119 244 -136 q 68 -81 111 -103 l 114 56 m 285 493 q 244 445 260 474 q 228 396 228 417 q 234 354 228 372 q 260 321 240 336 q 317 290 281 306 q 417 254 354 274 q 457 303 442 275 q 472 351 472 331 q 465 394 472 376 q 438 426 458 411 q 380 456 417 440 q 285 493 343 472 z "},"¨":{"ha":694,"x_min":115,"x_max":583,"o":"m 211 747 q 144 772 172 747 q 115 840 115 796 q 144 910 115 885 q 211 935 172 935 q 278 910 249 935 q 307 840 307 885 q 278 772 307 796 q 211 747 249 747 m 488 747 q 420 772 449 747 q 392 840 392 796 q 420 910 392 885 q 488 935 449 935 q 555 910 526 935 q 583 840 583 885 q 555 772 583 796 q 488 747 526 747 z "},"©":{"ha":694,"x_min":35,"x_max":663,"o":"m 454 167 q 405 150 431 156 q 356 144 379 144 q 285 159 315 144 q 236 198 256 174 q 207 253 217 222 q 197 318 197 285 q 207 383 197 351 q 236 440 217 415 q 285 481 256 465 q 357 496 315 496 q 403 492 379 496 q 451 478 428 489 l 424 403 q 393 412 408 410 q 365 414 378 414 q 302 386 321 414 q 283 324 283 358 q 306 253 283 279 q 371 228 329 228 q 399 231 383 228 q 431 240 415 233 l 454 167 m 35 321 q 61 469 35 406 q 131 576 88 533 q 231 639 175 618 q 349 660 288 660 q 465 639 408 660 q 566 576 522 618 q 636 469 610 533 q 663 321 663 406 q 636 173 663 236 q 566 67 610 110 q 465 3 522 25 q 349 -18 408 -18 q 231 3 288 -18 q 131 67 175 25 q 61 173 88 110 q 35 321 35 236 m 347 71 q 428 87 389 71 q 498 135 467 103 q 548 214 529 167 q 567 322 567 261 q 548 428 567 382 q 499 507 529 475 q 428 556 468 539 q 347 572 389 572 q 267 556 306 572 q 197 507 228 539 q 147 428 165 475 q 128 322 128 382 q 147 214 128 261 q 197 135 165 167 q 267 87 228 103 q 347 71 306 71 z "},"ª":{"ha":694,"x_min":144,"x_max":563,"o":"m 364 488 q 401 489 383 488 q 431 492 419 490 l 431 588 q 406 592 422 590 q 376 594 390 594 q 311 584 339 594 q 283 542 283 574 q 306 499 283 510 q 364 488 328 488 m 353 878 q 453 865 413 878 q 517 827 493 851 q 552 767 542 803 q 563 689 563 732 l 563 407 q 481 391 535 400 q 354 382 426 382 q 201 417 257 382 q 144 539 144 453 q 161 609 144 581 q 206 654 178 638 q 272 678 235 671 q 351 686 310 686 q 396 683 376 686 q 431 678 415 681 l 431 690 q 410 744 431 725 q 338 764 389 764 q 268 759 303 764 q 208 746 233 754 l 190 856 q 260 870 214 863 q 353 878 307 878 z "},"«":{"ha":694,"x_min":69,"x_max":626,"o":"m 258 642 l 349 586 l 218 354 l 349 122 l 261 64 l 69 354 l 258 642 m 535 642 l 626 586 l 497 354 l 626 122 l 538 64 l 349 354 l 535 642 z "},"¬":{"ha":694,"x_min":63,"x_max":622,"o":"m 622 58 l 476 58 l 476 363 l 63 363 l 63 504 l 622 504 l 622 58 z "},"­":{"ha":694,"x_min":157,"x_max":538,"o":"m 157 440 l 538 440 l 538 272 l 157 272 l 157 440 z "},"®":{"ha":694,"x_min":35,"x_max":663,"o":"m 306 260 l 306 153 l 231 153 l 231 483 q 274 492 250 489 q 324 496 297 496 q 441 465 403 496 q 479 376 479 435 q 424 278 479 310 q 458 222 440 254 q 494 153 476 189 l 415 153 q 383 212 397 186 q 356 260 369 238 l 306 260 m 306 329 l 331 329 q 386 339 368 329 q 404 381 404 349 q 382 417 404 408 q 336 426 360 426 q 320 426 328 426 q 306 424 313 425 l 306 329 m 35 321 q 61 469 35 406 q 131 576 88 533 q 231 639 175 618 q 349 660 288 660 q 465 639 408 660 q 566 576 522 618 q 636 469 610 533 q 663 321 663 406 q 636 173 663 236 q 566 67 610 110 q 465 3 522 25 q 349 -18 408 -18 q 231 3 288 -18 q 131 67 175 25 q 61 173 88 110 q 35 321 35 236 m 347 71 q 428 87 389 71 q 498 135 467 103 q 548 214 529 167 q 567 322 567 261 q 548 428 567 382 q 499 507 529 475 q 428 556 468 539 q 347 572 389 572 q 267 556 306 572 q 197 507 228 539 q 147 428 165 475 q 128 322 128 382 q 147 214 128 261 q 197 135 165 167 q 267 87 228 103 q 347 71 306 71 z "},"¯":{"ha":694,"x_min":150,"x_max":550,"o":"m 150 899 l 550 899 l 550 778 l 150 778 l 150 899 z "},"°":{"ha":694,"x_min":150,"x_max":550,"o":"m 350 969 q 430 956 393 969 q 493 918 467 943 q 535 857 519 893 q 550 776 550 821 q 535 697 550 732 q 493 636 519 661 q 430 598 467 611 q 350 585 393 585 q 204 635 258 585 q 150 776 150 686 q 206 918 150 867 q 350 969 261 969 m 350 701 q 403 720 382 701 q 425 778 425 739 q 403 835 425 817 q 350 853 382 853 q 296 835 318 853 q 274 778 274 817 q 296 720 274 739 q 350 701 318 701 z "},"±":{"ha":694,"x_min":56,"x_max":639,"o":"m 56 142 l 639 142 l 639 0 l 56 0 l 56 142 m 56 558 l 274 558 l 274 775 l 421 775 l 421 558 l 639 558 l 639 417 l 421 417 l 421 199 l 274 199 l 274 417 l 56 417 l 56 558 z "},"²":{"ha":694,"x_min":157,"x_max":536,"o":"m 524 726 q 492 635 524 672 q 422 567 460 599 q 378 528 400 549 q 342 488 357 507 l 536 488 l 536 375 l 179 375 l 179 410 q 212 519 179 471 q 307 621 244 568 q 362 671 342 650 q 382 714 382 692 q 371 744 382 733 q 339 756 360 756 q 272 742 303 756 q 221 710 242 728 l 157 806 q 239 856 189 833 q 344 879 289 879 q 483 837 442 879 q 524 726 524 794 z "},"³":{"ha":694,"x_min":157,"x_max":533,"o":"m 321 481 q 383 494 365 481 q 400 528 400 508 q 313 578 400 578 l 261 578 l 261 679 l 313 679 q 360 690 342 679 q 378 725 378 701 q 324 764 378 764 q 267 754 294 764 q 213 733 239 744 l 165 831 q 242 865 196 850 q 333 879 289 879 q 417 868 383 879 q 472 838 451 857 q 501 794 493 819 q 510 740 510 768 q 498 691 510 714 q 458 644 486 668 q 516 595 499 626 q 533 526 533 564 q 522 463 533 492 q 486 412 511 433 q 421 378 461 390 q 322 365 381 365 q 233 374 281 365 q 157 399 185 383 l 186 508 q 257 485 228 490 q 321 481 286 481 z "},"´":{"ha":694,"x_min":211,"x_max":515,"o":"m 515 829 l 274 713 l 211 806 l 431 960 l 515 829 z "},"µ":{"ha":694,"x_min":82,"x_max":608,"o":"m 253 653 l 253 297 q 260 217 253 249 q 280 167 267 186 q 313 141 293 149 q 360 133 333 133 q 399 135 379 133 q 436 140 419 138 l 436 653 l 608 653 l 608 22 q 499 -3 564 10 q 363 -15 433 -15 q 307 -9 340 -15 q 244 6 274 -3 q 250 -51 247 -24 q 253 -114 253 -78 l 253 -229 l 82 -229 l 82 653 l 253 653 z "},"¶":{"ha":694,"x_min":26,"x_max":632,"o":"m 239 322 q 80 409 133 346 q 26 593 26 472 q 51 711 26 660 q 120 798 75 763 q 229 851 165 833 q 372 869 293 869 q 509 862 439 869 q 632 840 579 854 l 632 -229 l 492 -229 l 492 725 q 444 729 478 728 q 381 728 411 731 l 381 -229 l 239 -229 l 239 322 z "},"·":{"ha":694,"x_min":224,"x_max":472,"o":"m 472 368 q 435 275 472 307 q 349 243 397 243 q 301 251 324 243 q 262 276 279 260 q 234 315 244 292 q 224 368 224 338 q 234 420 224 397 q 262 458 244 443 q 301 482 279 474 q 349 490 324 490 q 435 458 397 490 q 472 368 472 426 z "},"¸":{"ha":694,"x_min":221,"x_max":499,"o":"m 417 -33 q 481 -74 463 -47 q 499 -126 499 -101 q 484 -179 499 -158 q 447 -212 469 -200 q 393 -231 424 -225 q 332 -236 363 -236 q 221 -221 269 -236 l 239 -133 q 271 -141 247 -136 q 317 -146 294 -146 q 374 -111 374 -146 q 324 -68 374 -85 l 296 -60 q 315 -11 303 -36 q 333 25 326 14 l 444 25 q 431 -4 438 10 q 417 -33 424 -18 z "},"¹":{"ha":694,"x_min":179,"x_max":586,"o":"m 192 375 l 192 488 l 331 488 l 331 710 q 280 684 306 694 q 217 658 254 674 l 179 767 q 281 814 232 788 q 365 869 329 840 l 472 869 l 472 488 l 586 488 l 586 375 l 192 375 z "},"º":{"ha":694,"x_min":103,"x_max":588,"o":"m 588 628 q 570 524 588 569 q 521 446 553 478 q 444 397 489 414 q 346 379 400 379 q 247 397 292 379 q 171 446 203 414 q 121 524 139 478 q 103 628 103 569 q 121 733 103 686 q 171 813 139 781 q 247 862 203 844 q 346 879 292 879 q 444 862 400 879 q 521 813 489 844 q 570 733 553 781 q 588 628 588 686 m 446 628 q 420 722 446 688 q 346 756 394 756 q 272 722 299 756 q 244 628 244 688 q 271 538 244 571 q 346 504 297 504 q 420 538 394 504 q 446 628 446 571 z "},"»":{"ha":694,"x_min":69,"x_max":626,"o":"m 438 64 l 347 119 l 478 353 l 347 585 l 435 642 l 626 353 l 438 64 m 161 64 l 69 119 l 199 353 l 69 585 l 158 642 l 347 353 l 161 64 z "},"¼":{"ha":694,"x_min":3,"x_max":688,"o":"m 638 347 l 638 142 l 688 142 l 688 54 l 638 54 l 638 0 l 526 0 l 526 54 l 354 54 l 354 117 q 417 229 386 176 q 493 347 449 282 l 638 347 m 3 774 q 85 816 50 794 q 153 869 119 838 l 240 869 l 240 522 l 122 522 l 122 731 q 75 707 94 715 q 29 692 56 699 l 3 774 m 526 258 q 487 198 504 226 q 456 142 469 169 l 526 142 l 526 258 m 622 860 l 182 0 l 43 0 l 483 860 l 622 860 z "},"½":{"ha":694,"x_min":3,"x_max":682,"o":"m 682 88 l 682 0 l 392 0 q 389 17 389 8 q 389 32 389 25 q 417 107 389 81 q 486 160 446 133 l 517 179 q 549 204 540 194 q 557 232 557 214 q 521 263 557 263 q 479 251 500 263 q 442 222 458 240 l 385 296 q 451 344 411 328 q 536 360 492 360 q 633 332 590 360 q 675 246 675 304 q 660 185 675 208 q 622 144 644 161 q 575 115 600 128 q 531 88 550 101 l 682 88 m 3 774 q 85 816 50 794 q 153 869 119 838 l 240 869 l 240 522 l 122 522 l 122 731 q 75 707 94 715 q 29 692 56 699 l 3 774 m 622 860 l 182 0 l 43 0 l 483 860 l 622 860 z "},"¾":{"ha":694,"x_min":17,"x_max":688,"o":"m 42 618 q 84 604 57 611 q 139 597 111 597 q 187 603 171 597 q 203 626 203 608 q 121 663 203 663 l 93 663 l 93 742 l 124 742 q 173 749 160 742 q 186 769 186 756 q 176 788 186 782 q 150 793 165 793 q 99 785 126 793 q 58 769 71 776 l 28 844 q 86 869 47 860 q 167 879 125 879 q 272 851 239 879 q 306 786 306 822 q 297 742 306 760 q 264 708 288 724 q 322 621 322 681 q 309 568 322 589 q 272 534 296 547 q 217 515 249 521 q 149 510 186 510 q 74 516 110 510 q 17 533 39 522 l 42 618 m 638 347 l 638 142 l 688 142 l 688 54 l 638 54 l 638 0 l 526 0 l 526 54 l 354 54 l 354 117 q 417 229 386 176 q 493 347 449 282 l 638 347 m 526 258 q 487 198 504 226 q 456 142 469 169 l 526 142 l 526 258 m 647 860 l 207 0 l 68 0 l 508 860 l 647 860 z "},"¿":{"ha":694,"x_min":96,"x_max":603,"o":"m 468 318 q 469 297 469 311 q 440 191 469 242 q 364 101 411 140 q 333 76 349 89 q 304 51 317 64 q 284 24 292 39 q 276 -7 276 10 q 306 -70 276 -49 q 379 -92 335 -92 q 465 -78 424 -92 q 556 -42 507 -65 l 603 -172 q 489 -219 554 -203 q 360 -236 424 -236 q 229 -215 281 -236 q 149 -162 178 -194 q 108 -91 119 -129 q 96 -18 96 -53 q 112 55 96 22 q 152 115 128 88 q 204 166 176 142 q 256 214 232 190 q 297 263 281 238 q 313 318 313 288 l 468 318 m 264 532 q 299 617 264 586 q 379 647 335 647 q 422 640 401 647 q 460 617 443 632 q 486 580 476 601 q 496 532 496 558 q 486 484 496 506 q 460 448 476 463 q 422 426 443 433 q 379 418 401 418 q 336 426 357 418 q 299 448 315 433 q 274 484 283 463 q 264 532 264 506 z "},"À":{"ha":694,"x_min":13,"x_max":682,"o":"m 499 0 l 458 199 l 229 199 l 190 0 l 13 0 q 136 463 74 254 q 257 860 199 672 l 443 860 q 565 459 504 671 q 682 0 625 247 l 499 0 m 346 693 q 320 601 332 644 q 298 515 308 557 q 278 429 288 472 q 261 340 269 386 l 429 340 q 413 429 421 386 q 394 515 404 472 q 372 601 383 557 q 346 693 360 644 m 274 1153 l 493 999 l 431 906 l 189 1022 l 274 1153 z "},"Á":{"ha":694,"x_min":13,"x_max":682,"o":"m 499 0 l 458 199 l 229 199 l 190 0 l 13 0 q 136 463 74 254 q 257 860 199 672 l 443 860 q 565 459 504 671 q 682 0 625 247 l 499 0 m 346 693 q 320 601 332 644 q 298 515 308 557 q 278 429 288 472 q 261 340 269 386 l 429 340 q 413 429 421 386 q 394 515 404 472 q 372 601 383 557 q 346 693 360 644 m 499 1022 l 257 906 l 194 999 l 414 1153 l 499 1022 z "},"Â":{"ha":694,"x_min":13,"x_max":682,"o":"m 499 0 l 458 199 l 229 199 l 190 0 l 13 0 q 136 463 74 254 q 257 860 199 672 l 443 860 q 565 459 504 671 q 682 0 625 247 l 499 0 m 346 693 q 320 601 332 644 q 298 515 308 557 q 278 429 288 472 q 261 340 269 386 l 429 340 q 413 429 421 386 q 394 515 404 472 q 372 601 383 557 q 346 693 360 644 m 542 983 l 474 901 l 350 997 l 226 901 l 156 983 l 350 1153 l 542 983 z "},"Ã":{"ha":694,"x_min":13,"x_max":682,"o":"m 499 0 l 458 199 l 229 199 l 190 0 l 13 0 q 136 463 74 254 q 257 860 199 672 l 443 860 q 565 459 504 671 q 682 0 625 247 l 499 0 m 346 693 q 320 601 332 644 q 298 515 308 557 q 278 429 288 472 q 261 340 269 386 l 429 340 q 413 429 421 386 q 394 515 404 472 q 372 601 383 557 q 346 693 360 644 m 574 1072 q 553 1031 567 1053 q 522 990 540 1010 q 479 958 503 971 q 428 946 456 946 q 387 953 406 946 q 349 967 368 960 q 312 982 331 975 q 272 989 293 989 q 233 973 249 989 q 206 936 217 957 l 124 990 q 144 1032 131 1010 q 176 1074 157 1054 q 218 1106 194 1093 q 271 1118 242 1118 q 312 1111 293 1118 q 349 1097 331 1104 q 386 1082 368 1089 q 425 1075 404 1075 q 465 1090 449 1075 q 492 1126 482 1106 l 574 1072 z "},"Ä":{"ha":694,"x_min":13,"x_max":682,"o":"m 499 0 l 458 199 l 229 199 l 190 0 l 13 0 q 136 463 74 254 q 257 860 199 672 l 443 860 q 565 459 504 671 q 682 0 625 247 l 499 0 m 346 693 q 320 601 332 644 q 298 515 308 557 q 278 429 288 472 q 261 340 269 386 l 429 340 q 413 429 421 386 q 394 515 404 472 q 372 601 383 557 q 346 693 360 644 m 211 940 q 144 965 172 940 q 115 1033 115 989 q 144 1103 115 1078 q 211 1128 172 1128 q 278 1103 249 1128 q 307 1033 307 1078 q 278 965 307 989 q 211 940 249 940 m 488 940 q 420 965 449 940 q 392 1033 392 989 q 420 1103 392 1078 q 488 1128 449 1128 q 555 1103 526 1128 q 583 1033 583 1078 q 555 965 583 989 q 488 940 526 940 z "},"Å":{"ha":694,"x_min":13,"x_max":682,"o":"m 493 951 q 481 889 493 915 q 447 843 468 863 q 567 449 507 657 q 682 0 626 242 l 499 0 l 458 199 l 229 199 l 190 0 l 13 0 q 133 452 72 247 q 250 840 193 657 q 215 886 228 858 q 201 951 201 914 q 213 1013 201 986 q 245 1058 225 1040 q 292 1085 265 1076 q 346 1094 318 1094 q 449 1058 406 1094 q 493 951 493 1022 m 346 693 q 320 601 332 644 q 298 515 308 557 q 278 429 288 472 q 261 340 269 386 l 429 340 q 413 429 421 386 q 394 515 404 472 q 372 601 383 557 q 346 693 360 644 m 403 951 q 386 995 403 981 q 346 1010 369 1010 q 308 995 325 1010 q 290 951 290 981 q 308 908 290 922 q 346 893 325 893 q 386 908 369 893 q 403 951 403 922 z "},"Æ":{"ha":694,"x_min":13,"x_max":682,"o":"m 354 199 l 228 199 l 190 0 l 13 0 q 79 259 49 147 q 140 468 110 371 q 203 658 171 565 q 275 860 235 750 l 664 860 l 664 718 l 510 718 l 510 526 l 632 526 l 632 385 l 510 385 l 510 142 l 682 142 l 682 0 l 354 0 l 354 199 m 354 744 q 307 552 331 649 q 258 340 283 456 l 354 340 l 354 744 z "},"Ç":{"ha":694,"x_min":38,"x_max":651,"o":"m 417 -33 q 481 -74 463 -47 q 499 -126 499 -101 q 484 -179 499 -158 q 447 -212 469 -200 q 393 -231 424 -225 q 332 -236 363 -236 q 221 -221 269 -236 l 239 -133 q 271 -141 247 -136 q 317 -146 294 -146 q 374 -111 374 -146 q 324 -68 374 -85 l 296 -60 q 304 -33 299 -47 q 315 -8 310 -19 q 109 133 181 21 q 38 431 38 244 q 67 621 38 538 q 148 762 96 704 q 272 849 200 819 q 428 879 343 879 q 510 872 474 879 q 575 854 547 864 q 622 833 603 844 q 650 817 640 822 l 606 681 q 528 716 574 701 q 425 731 483 731 q 347 716 385 731 q 278 667 308 701 q 230 576 249 633 q 211 435 211 519 q 262 209 211 288 q 428 131 313 131 q 538 146 494 131 q 608 176 582 161 l 651 42 q 558 3 617 21 q 422 -18 499 -15 l 417 -33 z "},"È":{"ha":694,"x_min":88,"x_max":639,"o":"m 88 0 l 88 860 l 608 860 l 608 718 l 258 718 l 258 525 l 563 525 l 563 383 l 258 383 l 258 142 l 639 142 l 639 0 l 88 0 m 274 1153 l 493 999 l 431 906 l 189 1022 l 274 1153 z "},"É":{"ha":694,"x_min":88,"x_max":639,"o":"m 88 0 l 88 860 l 608 860 l 608 718 l 258 718 l 258 525 l 563 525 l 563 383 l 258 383 l 258 142 l 639 142 l 639 0 l 88 0 m 499 1022 l 257 906 l 194 999 l 414 1153 l 499 1022 z "},"Ê":{"ha":694,"x_min":88,"x_max":639,"o":"m 88 0 l 88 860 l 608 860 l 608 718 l 258 718 l 258 525 l 563 525 l 563 383 l 258 383 l 258 142 l 639 142 l 639 0 l 88 0 m 542 983 l 474 901 l 350 997 l 226 901 l 156 983 l 350 1153 l 542 983 z "},"Ë":{"ha":694,"x_min":88,"x_max":639,"o":"m 88 0 l 88 860 l 608 860 l 608 718 l 258 718 l 258 525 l 563 525 l 563 383 l 258 383 l 258 142 l 639 142 l 639 0 l 88 0 m 211 940 q 144 965 172 940 q 115 1033 115 989 q 144 1103 115 1078 q 211 1128 172 1128 q 278 1103 249 1128 q 307 1033 307 1078 q 278 965 307 989 q 211 940 249 940 m 488 940 q 420 965 449 940 q 392 1033 392 989 q 420 1103 392 1078 q 488 1128 449 1128 q 555 1103 526 1128 q 583 1033 583 1078 q 555 965 583 989 q 488 940 526 940 z "},"Ì":{"ha":694,"x_min":75,"x_max":621,"o":"m 75 0 l 75 142 l 263 142 l 263 718 l 75 718 l 75 860 l 621 860 l 621 718 l 435 718 l 435 142 l 621 142 l 621 0 l 75 0 m 274 1153 l 493 999 l 431 906 l 189 1022 l 274 1153 z "},"Í":{"ha":694,"x_min":75,"x_max":621,"o":"m 75 0 l 75 142 l 263 142 l 263 718 l 75 718 l 75 860 l 621 860 l 621 718 l 435 718 l 435 142 l 621 142 l 621 0 l 75 0 m 499 1022 l 257 906 l 194 999 l 414 1153 l 499 1022 z "},"Î":{"ha":694,"x_min":75,"x_max":621,"o":"m 75 0 l 75 142 l 263 142 l 263 718 l 75 718 l 75 860 l 621 860 l 621 718 l 435 718 l 435 142 l 621 142 l 621 0 l 75 0 m 542 983 l 474 901 l 350 997 l 226 901 l 156 983 l 350 1153 l 542 983 z "},"Ï":{"ha":694,"x_min":75,"x_max":621,"o":"m 75 0 l 75 142 l 263 142 l 263 718 l 75 718 l 75 860 l 621 860 l 621 718 l 435 718 l 435 142 l 621 142 l 621 0 l 75 0 m 211 940 q 144 965 172 940 q 115 1033 115 989 q 144 1103 115 1078 q 211 1128 172 1128 q 278 1103 249 1128 q 307 1033 307 1078 q 278 965 307 989 q 211 940 249 940 m 488 940 q 420 965 449 940 q 392 1033 392 989 q 420 1103 392 1078 q 488 1128 449 1128 q 555 1103 526 1128 q 583 1033 583 1078 q 555 965 583 989 q 488 940 526 940 z "},"Ð":{"ha":694,"x_min":25,"x_max":657,"o":"m 657 431 q 628 227 657 311 q 549 90 600 143 q 429 13 499 38 q 276 -11 360 -11 q 190 -6 232 -11 q 99 10 147 -1 l 99 375 l 25 375 l 25 517 l 99 517 l 99 849 q 206 865 157 861 q 299 869 254 869 q 446 844 379 869 q 559 766 513 819 q 631 630 606 713 q 657 431 657 547 m 271 517 l 376 517 l 376 375 l 271 375 l 271 139 q 283 138 276 138 q 296 138 289 138 q 385 160 349 138 q 442 221 421 182 q 474 313 464 260 q 483 431 483 367 q 476 539 483 486 q 451 632 469 592 q 399 697 432 672 q 314 721 365 721 q 292 720 303 721 q 271 717 281 719 l 271 517 z "},"Ñ":{"ha":694,"x_min":64,"x_max":631,"o":"m 493 0 q 366 285 435 143 q 218 571 297 428 l 218 0 l 64 0 l 64 860 l 201 860 q 279 727 240 799 q 355 585 318 656 q 423 447 392 514 q 476 331 454 381 l 476 860 l 631 860 l 631 0 l 493 0 m 574 1072 q 553 1031 567 1053 q 522 990 540 1010 q 479 958 503 971 q 428 946 456 946 q 387 953 406 946 q 349 967 368 960 q 312 982 331 975 q 272 989 293 989 q 233 973 249 989 q 206 936 217 957 l 124 990 q 144 1032 131 1010 q 176 1074 157 1054 q 218 1106 194 1093 q 271 1118 242 1118 q 312 1111 293 1118 q 349 1097 331 1104 q 386 1082 368 1089 q 425 1075 404 1075 q 465 1090 449 1075 q 492 1126 482 1106 l 574 1072 z "},"Ò":{"ha":694,"x_min":38,"x_max":657,"o":"m 211 431 q 216 313 211 368 q 235 218 221 258 q 276 154 250 178 q 347 131 303 131 q 417 154 390 131 q 459 219 444 178 q 478 314 474 260 q 483 431 483 368 q 478 548 483 493 q 459 643 474 603 q 418 707 444 683 q 347 731 392 731 q 276 707 303 731 q 235 642 250 683 q 216 547 221 601 q 211 431 211 493 m 38 431 q 119 766 38 653 q 347 879 201 879 q 578 766 499 879 q 657 431 657 653 q 576 95 657 208 q 349 -18 496 -18 q 117 95 197 -18 q 38 431 38 208 m 274 1153 l 493 999 l 431 906 l 189 1022 l 274 1153 z "},"Ó":{"ha":694,"x_min":38,"x_max":657,"o":"m 211 431 q 216 313 211 368 q 235 218 221 258 q 276 154 250 178 q 347 131 303 131 q 417 154 390 131 q 459 219 444 178 q 478 314 474 260 q 483 431 483 368 q 478 548 483 493 q 459 643 474 603 q 418 707 444 683 q 347 731 392 731 q 276 707 303 731 q 235 642 250 683 q 216 547 221 601 q 211 431 211 493 m 38 431 q 119 766 38 653 q 347 879 201 879 q 578 766 499 879 q 657 431 657 653 q 576 95 657 208 q 349 -18 496 -18 q 117 95 197 -18 q 38 431 38 208 m 499 1022 l 257 906 l 194 999 l 414 1153 l 499 1022 z "},"Ô":{"ha":694,"x_min":38,"x_max":657,"o":"m 211 431 q 216 313 211 368 q 235 218 221 258 q 276 154 250 178 q 347 131 303 131 q 417 154 390 131 q 459 219 444 178 q 478 314 474 260 q 483 431 483 368 q 478 548 483 493 q 459 643 474 603 q 418 707 444 683 q 347 731 392 731 q 276 707 303 731 q 235 642 250 683 q 216 547 221 601 q 211 431 211 493 m 38 431 q 119 766 38 653 q 347 879 201 879 q 578 766 499 879 q 657 431 657 653 q 576 95 657 208 q 349 -18 496 -18 q 117 95 197 -18 q 38 431 38 208 m 542 983 l 474 901 l 350 997 l 226 901 l 156 983 l 350 1153 l 542 983 z "},"Õ":{"ha":694,"x_min":38,"x_max":657,"o":"m 211 431 q 216 313 211 368 q 235 218 221 258 q 276 154 250 178 q 347 131 303 131 q 417 154 390 131 q 459 219 444 178 q 478 314 474 260 q 483 431 483 368 q 478 548 483 493 q 459 643 474 603 q 418 707 444 683 q 347 731 392 731 q 276 707 303 731 q 235 642 250 683 q 216 547 221 601 q 211 431 211 493 m 38 431 q 119 766 38 653 q 347 879 201 879 q 578 766 499 879 q 657 431 657 653 q 576 95 657 208 q 349 -18 496 -18 q 117 95 197 -18 q 38 431 38 208 m 574 1072 q 553 1031 567 1053 q 522 990 540 1010 q 479 958 503 971 q 428 946 456 946 q 387 953 406 946 q 349 967 368 960 q 312 982 331 975 q 272 989 293 989 q 233 973 249 989 q 206 936 217 957 l 124 990 q 144 1032 131 1010 q 176 1074 157 1054 q 218 1106 194 1093 q 271 1118 242 1118 q 312 1111 293 1118 q 349 1097 331 1104 q 386 1082 368 1089 q 425 1075 404 1075 q 465 1090 449 1075 q 492 1126 482 1106 l 574 1072 z "},"Ö":{"ha":694,"x_min":38,"x_max":657,"o":"m 211 431 q 216 313 211 368 q 235 218 221 258 q 276 154 250 178 q 347 131 303 131 q 417 154 390 131 q 459 219 444 178 q 478 314 474 260 q 483 431 483 368 q 478 548 483 493 q 459 643 474 603 q 418 707 444 683 q 347 731 392 731 q 276 707 303 731 q 235 642 250 683 q 216 547 221 601 q 211 431 211 493 m 38 431 q 119 766 38 653 q 347 879 201 879 q 578 766 499 879 q 657 431 657 653 q 576 95 657 208 q 349 -18 496 -18 q 117 95 197 -18 q 38 431 38 208 m 211 940 q 144 965 172 940 q 115 1033 115 989 q 144 1103 115 1078 q 211 1128 172 1128 q 278 1103 249 1128 q 307 1033 307 1078 q 278 965 307 989 q 211 940 249 940 m 488 940 q 420 965 449 940 q 392 1033 392 989 q 420 1103 392 1078 q 488 1128 449 1128 q 555 1103 526 1128 q 583 1033 583 1078 q 555 965 583 989 q 488 940 526 940 z "},"×":{"ha":694,"x_min":83,"x_max":625,"o":"m 526 638 l 624 539 l 450 367 l 625 193 l 526 97 l 353 272 l 179 97 l 83 192 l 257 365 l 83 539 l 179 639 l 353 465 l 526 638 z "},"Ø":{"ha":694,"x_min":38,"x_max":657,"o":"m 38 428 q 119 763 38 650 q 347 876 201 876 q 478 850 424 876 l 510 915 l 621 860 l 574 767 q 657 428 657 651 q 576 92 657 206 q 349 -21 496 -21 q 208 11 269 -21 l 176 -56 l 67 0 l 114 99 q 38 428 38 213 m 483 428 q 481 498 483 464 q 476 563 479 532 l 275 151 q 347 128 306 128 q 417 151 390 128 q 459 216 444 175 q 478 311 474 257 q 483 428 483 365 m 211 428 q 215 307 211 361 l 411 710 q 347 728 385 728 q 276 704 303 728 q 235 640 250 681 q 216 544 221 599 q 211 428 211 490 z "},"Ù":{"ha":694,"x_min":54,"x_max":640,"o":"m 344 -18 q 205 5 261 -18 q 115 71 149 28 q 68 175 82 114 q 54 311 54 236 l 54 860 l 226 860 l 226 322 q 232 231 226 268 q 251 172 238 194 q 288 140 264 150 q 347 131 311 131 q 407 140 383 131 q 444 173 431 150 q 464 233 458 196 q 469 324 469 269 l 469 860 l 640 860 l 640 311 q 626 175 640 236 q 578 71 613 114 q 486 5 543 28 q 344 -18 429 -18 m 261 1153 l 481 999 l 418 906 l 176 1022 l 261 1153 z "},"Ú":{"ha":694,"x_min":54,"x_max":640,"o":"m 344 -18 q 205 5 261 -18 q 115 71 149 28 q 68 175 82 114 q 54 311 54 236 l 54 860 l 226 860 l 226 322 q 232 231 226 268 q 251 172 238 194 q 288 140 264 150 q 347 131 311 131 q 407 140 383 131 q 444 173 431 150 q 464 233 458 196 q 469 324 469 269 l 469 860 l 640 860 l 640 311 q 626 175 640 236 q 578 71 613 114 q 486 5 543 28 q 344 -18 429 -18 m 521 1022 l 279 906 l 217 999 l 436 1153 l 521 1022 z "},"Û":{"ha":694,"x_min":54,"x_max":640,"o":"m 344 -18 q 205 5 261 -18 q 115 71 149 28 q 68 175 82 114 q 54 311 54 236 l 54 860 l 226 860 l 226 322 q 232 231 226 268 q 251 172 238 194 q 288 140 264 150 q 347 131 311 131 q 407 140 383 131 q 444 173 431 150 q 464 233 458 196 q 469 324 469 269 l 469 860 l 640 860 l 640 311 q 626 175 640 236 q 578 71 613 114 q 486 5 543 28 q 344 -18 429 -18 m 542 983 l 474 901 l 350 997 l 226 901 l 156 983 l 350 1153 l 542 983 z "},"Ü":{"ha":694,"x_min":54,"x_max":640,"o":"m 344 -18 q 205 5 261 -18 q 115 71 149 28 q 68 175 82 114 q 54 311 54 236 l 54 860 l 226 860 l 226 322 q 232 231 226 268 q 251 172 238 194 q 288 140 264 150 q 347 131 311 131 q 407 140 383 131 q 444 173 431 150 q 464 233 458 196 q 469 324 469 269 l 469 860 l 640 860 l 640 311 q 626 175 640 236 q 578 71 613 114 q 486 5 543 28 q 344 -18 429 -18 m 211 940 q 144 965 172 940 q 115 1033 115 989 q 144 1103 115 1078 q 211 1128 172 1128 q 278 1103 249 1128 q 307 1033 307 1078 q 278 965 307 989 q 211 940 249 940 m 488 940 q 420 965 449 940 q 392 1033 392 989 q 420 1103 392 1078 q 488 1128 449 1128 q 555 1103 526 1128 q 583 1033 583 1078 q 555 965 583 989 q 488 940 526 940 z "},"Ý":{"ha":694,"x_min":18,"x_max":678,"o":"m 353 467 q 388 547 368 499 q 428 650 408 596 q 467 760 449 704 q 501 860 486 815 l 678 860 q 625 722 651 789 q 569 590 599 656 q 507 460 540 525 q 435 328 474 396 l 435 0 l 263 0 l 263 326 q 128 590 186 461 q 18 860 71 718 l 201 860 q 272 656 233 760 q 353 467 311 553 m 521 1022 l 279 906 l 217 999 l 436 1153 l 521 1022 z "},"Þ":{"ha":694,"x_min":75,"x_max":656,"o":"m 311 738 q 566 667 476 738 q 656 450 656 596 q 565 232 656 306 q 307 158 475 158 l 246 158 l 246 0 l 75 0 l 75 860 l 246 860 l 246 736 q 280 738 264 738 q 311 738 296 738 m 331 589 q 288 588 315 589 q 246 585 261 588 l 246 307 l 315 307 q 439 344 397 307 q 481 451 481 382 q 440 553 481 518 q 331 589 399 589 z "},"ß":{"ha":694,"x_min":43,"x_max":683,"o":"m 567 757 q 552 663 567 697 q 521 605 538 629 q 490 557 504 581 q 475 493 475 533 q 490 444 475 464 q 529 406 506 424 q 579 372 553 389 q 629 334 606 356 q 668 281 653 313 q 683 206 683 250 q 630 42 683 99 q 446 -15 576 -15 q 342 -3 381 -15 q 281 19 304 8 l 311 161 q 370 140 335 150 q 435 129 406 129 q 491 149 472 129 q 510 203 510 169 q 480 261 510 236 q 403 310 450 286 q 324 384 340 343 q 307 469 307 425 q 322 549 307 518 q 356 605 338 579 q 389 660 374 631 q 404 736 404 689 q 382 797 404 776 q 319 817 360 817 q 240 776 267 817 q 214 665 214 736 l 214 0 l 43 0 l 43 661 q 58 782 43 726 q 107 878 74 838 q 192 940 140 918 q 315 963 243 963 q 433 946 385 963 q 510 901 481 929 q 553 835 540 872 q 567 757 567 799 z "},"à":{"ha":694,"x_min":61,"x_max":613,"o":"m 349 122 q 403 123 376 122 q 449 126 429 124 l 449 276 q 408 281 432 279 q 365 283 385 283 q 314 280 339 283 q 270 268 289 276 q 240 244 251 260 q 229 204 229 229 q 263 141 229 160 q 349 122 296 122 m 333 669 q 467 651 414 669 q 553 598 521 632 q 599 515 585 564 q 613 404 613 465 l 613 15 q 501 -4 575 7 q 336 -15 428 -15 q 223 -4 274 -15 q 136 33 172 7 q 81 99 100 58 q 61 200 61 140 q 83 296 61 257 q 143 358 106 335 q 229 392 181 382 q 331 403 278 403 q 449 392 397 403 l 449 413 q 418 494 449 461 q 313 526 388 526 q 219 519 264 526 q 146 503 174 513 l 122 640 q 213 660 154 651 q 333 669 271 669 m 272 960 l 492 806 l 429 713 l 188 829 l 272 960 z "},"á":{"ha":694,"x_min":61,"x_max":613,"o":"m 349 122 q 403 123 376 122 q 449 126 429 124 l 449 276 q 408 281 432 279 q 365 283 385 283 q 314 280 339 283 q 270 268 289 276 q 240 244 251 260 q 229 204 229 229 q 263 141 229 160 q 349 122 296 122 m 333 669 q 467 651 414 669 q 553 598 521 632 q 599 515 585 564 q 613 404 613 465 l 613 15 q 501 -4 575 7 q 336 -15 428 -15 q 223 -4 274 -15 q 136 33 172 7 q 81 99 100 58 q 61 200 61 140 q 83 296 61 257 q 143 358 106 335 q 229 392 181 382 q 331 403 278 403 q 449 392 397 403 l 449 413 q 418 494 449 461 q 313 526 388 526 q 219 519 264 526 q 146 503 174 513 l 122 640 q 213 660 154 651 q 333 669 271 669 m 515 829 l 274 713 l 211 806 l 431 960 l 515 829 z "},"â":{"ha":694,"x_min":61,"x_max":613,"o":"m 349 122 q 403 123 376 122 q 449 126 429 124 l 449 276 q 408 281 432 279 q 365 283 385 283 q 314 280 339 283 q 270 268 289 276 q 240 244 251 260 q 229 204 229 229 q 263 141 229 160 q 349 122 296 122 m 333 669 q 467 651 414 669 q 553 598 521 632 q 599 515 585 564 q 613 404 613 465 l 613 15 q 501 -4 575 7 q 336 -15 428 -15 q 223 -4 274 -15 q 136 33 172 7 q 81 99 100 58 q 61 200 61 140 q 83 296 61 257 q 143 358 106 335 q 229 392 181 382 q 331 403 278 403 q 449 392 397 403 l 449 413 q 418 494 449 461 q 313 526 388 526 q 219 519 264 526 q 146 503 174 513 l 122 640 q 213 660 154 651 q 333 669 271 669 m 542 790 l 474 708 l 350 804 l 226 708 l 156 790 l 350 960 l 542 790 z "},"ã":{"ha":694,"x_min":61,"x_max":613,"o":"m 349 122 q 403 123 376 122 q 449 126 429 124 l 449 276 q 408 281 432 279 q 365 283 385 283 q 314 280 339 283 q 270 268 289 276 q 240 244 251 260 q 229 204 229 229 q 263 141 229 160 q 349 122 296 122 m 333 669 q 467 651 414 669 q 553 598 521 632 q 599 515 585 564 q 613 404 613 465 l 613 15 q 501 -4 575 7 q 336 -15 428 -15 q 223 -4 274 -15 q 136 33 172 7 q 81 99 100 58 q 61 200 61 140 q 83 296 61 257 q 143 358 106 335 q 229 392 181 382 q 331 403 278 403 q 449 392 397 403 l 449 413 q 418 494 449 461 q 313 526 388 526 q 219 519 264 526 q 146 503 174 513 l 122 640 q 213 660 154 651 q 333 669 271 669 m 575 879 q 555 838 568 860 q 523 797 542 817 q 481 765 504 778 q 429 753 457 753 q 388 760 407 753 q 351 774 369 767 q 313 789 332 782 q 274 796 294 796 q 234 780 250 796 q 207 743 218 764 l 125 797 q 145 839 132 817 q 177 881 158 861 q 219 913 196 900 q 272 925 243 925 q 313 918 294 925 q 351 903 332 911 q 388 889 369 896 q 426 882 406 882 q 467 897 450 882 q 493 933 483 913 l 575 879 z "},"ä":{"ha":694,"x_min":61,"x_max":613,"o":"m 349 122 q 403 123 376 122 q 449 126 429 124 l 449 276 q 408 281 432 279 q 365 283 385 283 q 314 280 339 283 q 270 268 289 276 q 240 244 251 260 q 229 204 229 229 q 263 141 229 160 q 349 122 296 122 m 333 669 q 467 651 414 669 q 553 598 521 632 q 599 515 585 564 q 613 404 613 465 l 613 15 q 501 -4 575 7 q 336 -15 428 -15 q 223 -4 274 -15 q 136 33 172 7 q 81 99 100 58 q 61 200 61 140 q 83 296 61 257 q 143 358 106 335 q 229 392 181 382 q 331 403 278 403 q 449 392 397 403 l 449 413 q 418 494 449 461 q 313 526 388 526 q 219 519 264 526 q 146 503 174 513 l 122 640 q 213 660 154 651 q 333 669 271 669 m 211 747 q 144 772 172 747 q 115 840 115 796 q 144 910 115 885 q 211 935 172 935 q 278 910 249 935 q 307 840 307 885 q 278 772 307 796 q 211 747 249 747 m 488 747 q 420 772 449 747 q 392 840 392 796 q 420 910 392 885 q 488 935 449 935 q 555 910 526 935 q 583 840 583 885 q 555 772 583 796 q 488 747 526 747 z "},"å":{"ha":694,"x_min":61,"x_max":613,"o":"m 349 122 q 403 123 376 122 q 449 126 429 124 l 449 276 q 408 281 432 279 q 365 283 385 283 q 314 280 339 283 q 270 268 289 276 q 240 244 251 260 q 229 204 229 229 q 263 141 229 160 q 349 122 296 122 m 333 669 q 467 651 414 669 q 553 598 521 632 q 599 515 585 564 q 613 404 613 465 l 613 15 q 501 -4 575 7 q 336 -15 428 -15 q 223 -4 274 -15 q 136 33 172 7 q 81 99 100 58 q 61 200 61 140 q 83 296 61 257 q 143 358 106 335 q 229 392 181 382 q 331 403 278 403 q 449 392 397 403 l 449 413 q 418 494 449 461 q 313 526 388 526 q 219 519 264 526 q 146 503 174 513 l 122 640 q 213 660 154 651 q 333 669 271 669 m 493 839 q 449 733 493 769 q 346 697 406 697 q 292 706 318 697 q 245 733 265 715 q 213 778 225 751 q 201 839 201 804 q 213 901 201 874 q 245 946 225 928 q 292 973 265 964 q 346 982 318 982 q 449 946 406 982 q 493 839 493 910 m 403 839 q 386 883 403 868 q 346 897 369 897 q 308 883 325 897 q 290 839 290 868 q 308 796 290 811 q 346 781 325 781 q 386 796 369 781 q 403 839 403 811 z "},"æ":{"ha":694,"x_min":32,"x_max":678,"o":"m 226 669 q 308 652 269 669 q 375 594 346 635 q 428 650 399 631 q 492 669 457 669 q 566 653 532 669 q 625 599 600 636 q 664 500 650 561 q 678 350 678 439 q 678 309 678 333 q 675 271 678 285 l 426 271 q 438 205 428 232 q 463 160 447 178 q 497 135 478 143 q 539 128 517 128 q 588 134 564 128 q 632 151 613 140 l 657 17 q 594 -8 625 0 q 521 -15 563 -15 q 438 4 472 -15 q 379 53 403 24 q 306 1 347 17 q 225 -15 265 -15 q 142 3 178 -15 q 81 53 106 22 q 44 122 57 83 q 32 201 32 161 q 85 349 32 296 q 222 403 139 403 q 258 401 240 403 q 296 392 276 399 l 296 424 q 274 508 296 485 q 215 532 253 532 q 165 524 192 532 q 106 506 138 517 l 82 638 q 154 661 118 653 q 226 669 190 669 m 296 276 q 270 282 283 281 q 246 283 257 283 q 187 265 210 283 q 164 203 164 247 q 183 143 164 165 q 240 121 203 121 q 308 138 272 121 q 298 210 300 174 q 296 276 296 246 m 492 533 q 462 520 474 533 q 442 486 450 507 q 431 440 435 465 q 428 389 428 414 l 550 389 q 547 442 550 415 q 538 488 544 468 q 521 521 532 508 q 492 533 510 533 z "},"ç":{"ha":694,"x_min":61,"x_max":647,"o":"m 61 326 q 83 460 61 397 q 151 569 106 522 q 267 642 197 615 q 435 669 338 669 q 540 661 493 669 q 636 633 588 653 l 599 496 q 537 513 571 506 q 450 521 503 521 q 348 506 389 521 q 282 466 307 492 q 246 404 257 440 q 235 326 235 368 q 285 185 235 236 q 458 133 336 133 q 542 139 499 133 q 622 157 586 144 l 647 17 q 560 -6 611 3 q 439 -15 508 -15 l 424 -15 l 417 -33 q 481 -74 463 -47 q 499 -126 499 -101 q 484 -179 499 -158 q 447 -212 469 -200 q 393 -231 424 -225 q 332 -236 363 -236 q 221 -221 269 -236 l 239 -133 q 271 -141 247 -136 q 317 -146 294 -146 q 374 -111 374 -146 q 324 -68 374 -85 l 296 -60 q 318 -3 304 -31 q 201 42 250 11 q 122 115 153 72 q 76 212 90 158 q 61 326 61 265 z "},"è":{"ha":694,"x_min":43,"x_max":646,"o":"m 43 321 q 69 472 43 407 q 139 581 96 538 q 238 647 182 625 q 351 669 293 669 q 571 584 496 669 q 646 335 646 499 q 645 300 646 318 q 643 271 644 282 l 219 271 q 272 170 219 207 q 408 133 325 133 q 506 144 460 133 q 585 167 553 156 l 608 21 q 514 -5 564 6 q 401 -15 464 -15 q 252 6 318 -15 q 140 70 186 28 q 68 175 93 113 q 43 321 43 238 m 481 389 q 474 440 481 415 q 451 483 467 464 q 413 515 436 503 q 354 526 389 526 q 297 515 321 526 q 256 485 272 504 q 231 440 240 465 q 219 389 222 415 l 481 389 m 272 960 l 492 806 l 429 713 l 188 829 l 272 960 z "},"é":{"ha":694,"x_min":43,"x_max":646,"o":"m 43 321 q 69 472 43 407 q 139 581 96 538 q 238 647 182 625 q 351 669 293 669 q 571 584 496 669 q 646 335 646 499 q 645 300 646 318 q 643 271 644 282 l 219 271 q 272 170 219 207 q 408 133 325 133 q 506 144 460 133 q 585 167 553 156 l 608 21 q 514 -5 564 6 q 401 -15 464 -15 q 252 6 318 -15 q 140 70 186 28 q 68 175 93 113 q 43 321 43 238 m 481 389 q 474 440 481 415 q 451 483 467 464 q 413 515 436 503 q 354 526 389 526 q 297 515 321 526 q 256 485 272 504 q 231 440 240 465 q 219 389 222 415 l 481 389 m 528 829 l 286 713 l 224 806 l 443 960 l 528 829 z "},"ê":{"ha":694,"x_min":43,"x_max":646,"o":"m 43 321 q 69 472 43 407 q 139 581 96 538 q 238 647 182 625 q 351 669 293 669 q 571 584 496 669 q 646 335 646 499 q 645 300 646 318 q 643 271 644 282 l 219 271 q 272 170 219 207 q 408 133 325 133 q 506 144 460 133 q 585 167 553 156 l 608 21 q 514 -5 564 6 q 401 -15 464 -15 q 252 6 318 -15 q 140 70 186 28 q 68 175 93 113 q 43 321 43 238 m 481 389 q 474 440 481 415 q 451 483 467 464 q 413 515 436 503 q 354 526 389 526 q 297 515 321 526 q 256 485 272 504 q 231 440 240 465 q 219 389 222 415 l 481 389 m 547 790 l 479 708 l 356 804 l 232 708 l 161 790 l 356 960 l 547 790 z "},"ë":{"ha":694,"x_min":43,"x_max":646,"o":"m 43 321 q 69 472 43 407 q 139 581 96 538 q 238 647 182 625 q 351 669 293 669 q 571 584 496 669 q 646 335 646 499 q 645 300 646 318 q 643 271 644 282 l 219 271 q 272 170 219 207 q 408 133 325 133 q 506 144 460 133 q 585 167 553 156 l 608 21 q 514 -5 564 6 q 401 -15 464 -15 q 252 6 318 -15 q 140 70 186 28 q 68 175 93 113 q 43 321 43 238 m 481 389 q 474 440 481 415 q 451 483 467 464 q 413 515 436 503 q 354 526 389 526 q 297 515 321 526 q 256 485 272 504 q 231 440 240 465 q 219 389 222 415 l 481 389 m 211 747 q 144 772 172 747 q 115 840 115 796 q 144 910 115 885 q 211 935 172 935 q 278 910 249 935 q 307 840 307 885 q 278 772 307 796 q 211 747 249 747 m 488 747 q 420 772 449 747 q 392 840 392 796 q 420 910 392 885 q 488 935 449 935 q 555 910 526 935 q 583 840 583 885 q 555 772 583 796 q 488 747 526 747 z "},"ì":{"ha":694,"x_min":50,"x_max":649,"o":"m 649 28 q 549 -6 596 3 q 464 -15 503 -15 q 352 4 397 -15 q 280 60 307 24 q 242 150 253 97 q 231 271 231 203 l 231 511 l 50 511 l 50 653 l 401 653 l 401 249 q 423 162 401 190 q 494 133 444 133 q 551 140 518 133 q 626 165 585 146 l 649 28 m 247 960 l 467 806 l 404 713 l 163 829 l 247 960 z "},"í":{"ha":694,"x_min":50,"x_max":649,"o":"m 649 28 q 549 -6 596 3 q 464 -15 503 -15 q 352 4 397 -15 q 280 60 307 24 q 242 150 253 97 q 231 271 231 203 l 231 511 l 50 511 l 50 653 l 401 653 l 401 249 q 423 162 401 190 q 494 133 444 133 q 551 140 518 133 q 626 165 585 146 l 649 28 m 499 829 l 257 713 l 194 806 l 414 960 l 499 829 z "},"î":{"ha":694,"x_min":50,"x_max":649,"o":"m 649 28 q 549 -6 596 3 q 464 -15 503 -15 q 352 4 397 -15 q 280 60 307 24 q 242 150 253 97 q 231 271 231 203 l 231 511 l 50 511 l 50 653 l 401 653 l 401 249 q 423 162 401 190 q 494 133 444 133 q 551 140 518 133 q 626 165 585 146 l 649 28 m 518 790 l 450 708 l 326 804 l 203 708 l 132 790 l 326 960 l 518 790 z "},"ï":{"ha":694,"x_min":50,"x_max":649,"o":"m 649 28 q 549 -6 596 3 q 464 -15 503 -15 q 352 4 397 -15 q 280 60 307 24 q 242 150 253 97 q 231 271 231 203 l 231 511 l 50 511 l 50 653 l 401 653 l 401 249 q 423 162 401 190 q 494 133 444 133 q 551 140 518 133 q 626 165 585 146 l 649 28 m 188 747 q 120 772 149 747 q 92 840 92 796 q 120 910 92 885 q 188 935 149 935 q 254 910 225 935 q 283 840 283 885 q 254 772 283 796 q 188 747 225 747 m 464 747 q 397 772 425 747 q 368 840 368 796 q 397 910 368 885 q 464 935 425 935 q 531 910 503 935 q 560 840 560 885 q 531 772 560 796 q 464 747 503 747 z "},"ð":{"ha":694,"x_min":56,"x_max":667,"o":"m 543 743 q 610 567 588 660 q 632 383 632 475 q 617 230 632 303 q 569 102 603 157 q 481 15 536 47 q 342 -18 425 -18 q 216 6 269 -18 q 127 72 163 31 q 74 170 92 114 q 56 290 56 226 q 73 403 56 350 q 124 497 90 457 q 210 561 158 538 q 333 585 263 585 q 392 575 361 585 q 446 553 422 565 q 425 619 439 585 q 389 690 411 654 l 261 647 l 225 751 l 319 783 q 278 824 300 806 q 231 861 256 843 l 333 968 q 481 839 418 918 l 632 889 l 667 785 l 543 743 m 454 408 q 391 443 421 438 q 346 449 361 449 q 259 407 288 449 q 231 290 231 365 q 238 231 231 260 q 258 181 244 203 q 290 144 271 158 q 335 131 310 131 q 428 197 401 131 q 456 371 456 263 q 455 390 456 381 q 454 408 454 399 z "},"ñ":{"ha":694,"x_min":88,"x_max":613,"o":"m 88 632 q 201 656 133 644 q 347 667 268 667 q 476 645 425 667 q 558 584 528 624 q 600 490 588 544 q 613 368 613 435 l 613 0 l 442 0 l 442 346 q 421 478 442 438 q 336 518 400 518 q 298 517 317 518 q 258 513 279 515 l 258 0 l 88 0 l 88 632 m 575 879 q 555 838 568 860 q 523 797 542 817 q 481 765 504 778 q 429 753 457 753 q 388 760 407 753 q 351 774 369 767 q 313 789 332 782 q 274 796 294 796 q 234 780 250 796 q 207 743 218 764 l 125 797 q 145 839 132 817 q 177 881 158 861 q 219 913 196 900 q 272 925 243 925 q 313 918 294 925 q 351 903 332 911 q 388 889 369 896 q 426 882 406 882 q 467 897 450 882 q 493 933 483 913 l 575 879 z "},"ò":{"ha":694,"x_min":40,"x_max":656,"o":"m 656 328 q 633 187 656 250 q 571 78 611 124 q 474 7 531 32 q 349 -18 418 -18 q 223 7 279 -18 q 126 78 167 32 q 63 187 85 124 q 40 328 40 250 q 63 467 40 404 q 127 576 86 531 q 225 645 168 621 q 349 669 282 669 q 473 645 417 669 q 570 576 529 621 q 633 467 611 531 q 656 328 656 404 m 214 326 q 245 185 214 239 q 346 131 276 131 q 447 185 413 131 q 481 326 481 239 q 449 467 481 414 q 349 521 418 521 q 248 467 282 521 q 214 326 214 414 m 272 960 l 492 806 l 429 713 l 188 829 l 272 960 z "},"ó":{"ha":694,"x_min":40,"x_max":656,"o":"m 656 328 q 633 187 656 250 q 571 78 611 124 q 474 7 531 32 q 349 -18 418 -18 q 223 7 279 -18 q 126 78 167 32 q 63 187 85 124 q 40 328 40 250 q 63 467 40 404 q 127 576 86 531 q 225 645 168 621 q 349 669 282 669 q 473 645 417 669 q 570 576 529 621 q 633 467 611 531 q 656 328 656 404 m 214 326 q 245 185 214 239 q 346 131 276 131 q 447 185 413 131 q 481 326 481 239 q 449 467 481 414 q 349 521 418 521 q 248 467 282 521 q 214 326 214 414 m 504 829 l 263 713 l 200 806 l 419 960 l 504 829 z "},"ô":{"ha":694,"x_min":40,"x_max":656,"o":"m 656 328 q 633 187 656 250 q 571 78 611 124 q 474 7 531 32 q 349 -18 418 -18 q 223 7 279 -18 q 126 78 167 32 q 63 187 85 124 q 40 328 40 250 q 63 467 40 404 q 127 576 86 531 q 225 645 168 621 q 349 669 282 669 q 473 645 417 669 q 570 576 529 621 q 633 467 611 531 q 656 328 656 404 m 214 326 q 245 185 214 239 q 346 131 276 131 q 447 185 413 131 q 481 326 481 239 q 449 467 481 414 q 349 521 418 521 q 248 467 282 521 q 214 326 214 414 m 542 790 l 474 708 l 350 804 l 226 708 l 156 790 l 350 960 l 542 790 z "},"õ":{"ha":694,"x_min":40,"x_max":656,"o":"m 656 328 q 633 187 656 250 q 571 78 611 124 q 474 7 531 32 q 349 -18 418 -18 q 223 7 279 -18 q 126 78 167 32 q 63 187 85 124 q 40 328 40 250 q 63 467 40 404 q 127 576 86 531 q 225 645 168 621 q 349 669 282 669 q 473 645 417 669 q 570 576 529 621 q 633 467 611 531 q 656 328 656 404 m 214 326 q 245 185 214 239 q 346 131 276 131 q 447 185 413 131 q 481 326 481 239 q 449 467 481 414 q 349 521 418 521 q 248 467 282 521 q 214 326 214 414 m 575 879 q 555 838 568 860 q 523 797 542 817 q 481 765 504 778 q 429 753 457 753 q 388 760 407 753 q 351 774 369 767 q 313 789 332 782 q 274 796 294 796 q 234 780 250 796 q 207 743 218 764 l 125 797 q 145 839 132 817 q 177 881 158 861 q 219 913 196 900 q 272 925 243 925 q 313 918 294 925 q 351 903 332 911 q 388 889 369 896 q 426 882 406 882 q 467 897 450 882 q 493 933 483 913 l 575 879 z "},"ö":{"ha":694,"x_min":40,"x_max":656,"o":"m 656 328 q 633 187 656 250 q 571 78 611 124 q 474 7 531 32 q 349 -18 418 -18 q 223 7 279 -18 q 126 78 167 32 q 63 187 85 124 q 40 328 40 250 q 63 467 40 404 q 127 576 86 531 q 225 645 168 621 q 349 669 282 669 q 473 645 417 669 q 570 576 529 621 q 633 467 611 531 q 656 328 656 404 m 214 326 q 245 185 214 239 q 346 131 276 131 q 447 185 413 131 q 481 326 481 239 q 449 467 481 414 q 349 521 418 521 q 248 467 282 521 q 214 326 214 414 m 211 747 q 144 772 172 747 q 115 840 115 796 q 144 910 115 885 q 211 935 172 935 q 278 910 249 935 q 307 840 307 885 q 278 772 307 796 q 211 747 249 747 m 488 747 q 420 772 449 747 q 392 840 392 796 q 420 910 392 885 q 488 935 449 935 q 555 910 526 935 q 583 840 583 885 q 555 772 583 796 q 488 747 526 747 z "},"÷":{"ha":694,"x_min":56,"x_max":639,"o":"m 446 617 q 417 541 446 567 q 350 515 388 515 q 281 541 310 515 q 251 617 251 567 q 281 693 251 667 q 350 719 310 719 q 417 693 388 719 q 446 617 446 667 m 446 110 q 417 34 446 61 q 350 7 388 7 q 281 34 310 7 q 251 110 251 61 q 281 187 251 160 q 350 214 310 214 q 417 187 388 214 q 446 110 446 160 m 56 435 l 639 435 l 639 294 l 56 294 l 56 435 z "},"ø":{"ha":694,"x_min":40,"x_max":656,"o":"m 656 325 q 633 184 656 247 q 571 75 611 121 q 474 4 531 29 q 349 -21 418 -21 q 265 -10 304 -21 q 192 18 226 0 l 139 -53 l 53 13 l 110 92 q 58 195 76 136 q 40 325 40 254 q 63 465 40 401 q 127 573 86 528 q 225 642 168 618 q 349 667 282 667 q 504 626 435 667 l 556 697 l 643 632 l 585 553 q 637 451 618 508 q 656 325 656 394 m 214 324 q 215 281 214 301 q 221 242 217 261 l 411 503 q 349 518 385 518 q 248 465 282 518 q 214 324 214 411 m 481 324 q 479 365 481 346 q 474 401 478 383 l 283 144 q 346 128 310 128 q 447 182 413 128 q 481 324 481 236 z "},"ù":{"ha":694,"x_min":82,"x_max":608,"o":"m 608 22 q 494 -3 561 10 q 347 -15 426 -15 q 215 7 267 -15 q 134 70 164 29 q 93 167 104 111 q 82 289 82 222 l 82 653 l 253 653 l 253 311 q 274 177 253 221 q 358 133 296 133 q 436 140 397 133 l 436 653 l 608 653 l 608 22 m 272 960 l 492 806 l 429 713 l 188 829 l 272 960 z "},"ú":{"ha":694,"x_min":82,"x_max":608,"o":"m 608 22 q 494 -3 561 10 q 347 -15 426 -15 q 215 7 267 -15 q 134 70 164 29 q 93 167 104 111 q 82 289 82 222 l 82 653 l 253 653 l 253 311 q 274 177 253 221 q 358 133 296 133 q 436 140 397 133 l 436 653 l 608 653 l 608 22 m 499 829 l 257 713 l 194 806 l 414 960 l 499 829 z "},"û":{"ha":694,"x_min":82,"x_max":608,"o":"m 608 22 q 494 -3 561 10 q 347 -15 426 -15 q 215 7 267 -15 q 134 70 164 29 q 93 167 104 111 q 82 289 82 222 l 82 653 l 253 653 l 253 311 q 274 177 253 221 q 358 133 296 133 q 436 140 397 133 l 436 653 l 608 653 l 608 22 m 542 790 l 474 708 l 350 804 l 226 708 l 156 790 l 350 960 l 542 790 z "},"ü":{"ha":694,"x_min":82,"x_max":608,"o":"m 608 22 q 494 -3 561 10 q 347 -15 426 -15 q 215 7 267 -15 q 134 70 164 29 q 93 167 104 111 q 82 289 82 222 l 82 653 l 253 653 l 253 311 q 274 177 253 221 q 358 133 296 133 q 436 140 397 133 l 436 653 l 608 653 l 608 22 m 211 747 q 144 772 172 747 q 115 840 115 796 q 144 910 115 885 q 211 935 172 935 q 278 910 249 935 q 307 840 307 885 q 278 772 307 796 q 211 747 249 747 m 488 747 q 420 772 449 747 q 392 840 392 796 q 420 910 392 885 q 488 935 449 935 q 555 910 526 935 q 583 840 583 885 q 555 772 583 796 q 488 747 526 747 z "},"ý":{"ha":694,"x_min":28,"x_max":656,"o":"m 656 653 q 605 473 629 561 q 554 301 581 385 q 498 136 528 217 q 433 -21 468 56 q 381 -117 407 -76 q 324 -183 356 -157 q 255 -221 293 -208 q 165 -233 217 -233 q 87 -226 122 -233 q 28 -208 51 -219 l 60 -65 q 109 -83 88 -78 q 156 -87 131 -87 q 236 -54 206 -87 q 285 25 267 -21 q 163 305 224 147 q 51 653 101 463 l 229 653 q 258 543 242 601 q 292 426 274 485 q 330 312 310 368 q 371 207 350 256 q 400 312 385 256 q 429 426 415 368 q 456 542 443 483 q 481 653 469 600 l 656 653 m 499 829 l 257 713 l 194 806 l 414 960 l 499 829 z "},"þ":{"ha":694,"x_min":88,"x_max":651,"o":"m 651 326 q 635 188 651 251 q 586 80 618 125 q 506 10 554 35 q 393 -15 457 -15 q 258 17 328 -15 l 258 -229 l 88 -229 l 88 935 l 258 964 l 258 656 q 299 663 278 660 q 339 667 319 667 q 571 575 490 667 q 651 326 651 483 m 478 321 q 443 465 478 408 q 338 521 408 521 q 296 519 318 521 q 258 515 274 517 l 258 157 q 303 139 275 146 q 358 132 331 132 q 449 181 419 132 q 478 321 478 231 z "},"ÿ":{"ha":694,"x_min":28,"x_max":656,"o":"m 656 653 q 605 473 629 561 q 554 301 581 385 q 498 136 528 217 q 433 -21 468 56 q 381 -117 407 -76 q 324 -183 356 -157 q 255 -221 293 -208 q 165 -233 217 -233 q 87 -226 122 -233 q 28 -208 51 -219 l 60 -65 q 109 -83 88 -78 q 156 -87 131 -87 q 236 -54 206 -87 q 285 25 267 -21 q 163 305 224 147 q 51 653 101 463 l 229 653 q 258 543 242 601 q 292 426 274 485 q 330 312 310 368 q 371 207 350 256 q 400 312 385 256 q 429 426 415 368 q 456 542 443 483 q 481 653 469 600 l 656 653 m 211 747 q 144 772 172 747 q 115 840 115 796 q 144 910 115 885 q 211 935 172 935 q 278 910 249 935 q 307 840 307 885 q 278 772 307 796 q 211 747 249 747 m 488 747 q 420 772 449 747 q 392 840 392 796 q 420 910 392 885 q 488 935 449 935 q 555 910 526 935 q 583 840 583 885 q 555 772 583 796 q 488 747 526 747 z "},"Ā":{"ha":694,"x_min":13,"x_max":682,"o":"m 499 0 l 458 199 l 229 199 l 190 0 l 13 0 q 136 463 74 254 q 257 860 199 672 l 443 860 q 565 459 504 671 q 682 0 625 247 l 499 0 m 346 693 q 320 601 332 644 q 298 515 308 557 q 278 429 288 472 q 261 340 269 386 l 429 340 q 413 429 421 386 q 394 515 404 472 q 372 601 383 557 q 346 693 360 644 m 149 1092 l 549 1092 l 549 971 l 149 971 l 149 1092 z "},"ā":{"ha":694,"x_min":61,"x_max":613,"o":"m 349 122 q 403 123 376 122 q 449 126 429 124 l 449 276 q 408 281 432 279 q 365 283 385 283 q 314 280 339 283 q 270 268 289 276 q 240 244 251 260 q 229 204 229 229 q 263 141 229 160 q 349 122 296 122 m 333 669 q 467 651 414 669 q 553 598 521 632 q 599 515 585 564 q 613 404 613 465 l 613 15 q 501 -4 575 7 q 336 -15 428 -15 q 223 -4 274 -15 q 136 33 172 7 q 81 99 100 58 q 61 200 61 140 q 83 296 61 257 q 143 358 106 335 q 229 392 181 382 q 331 403 278 403 q 449 392 397 403 l 449 413 q 418 494 449 461 q 313 526 388 526 q 219 519 264 526 q 146 503 174 513 l 122 640 q 213 660 154 651 q 333 669 271 669 m 149 899 l 549 899 l 549 778 l 149 778 l 149 899 z "},"Ă":{"ha":694,"x_min":13,"x_max":682,"o":"m 499 0 l 458 199 l 229 199 l 190 0 l 13 0 q 136 463 74 254 q 257 860 199 672 l 443 860 q 565 459 504 671 q 682 0 625 247 l 499 0 m 346 693 q 320 601 332 644 q 298 515 308 557 q 278 429 288 472 q 261 340 269 386 l 429 340 q 413 429 421 386 q 394 515 404 472 q 372 601 383 557 q 346 693 360 644 m 347 935 q 267 948 304 935 q 203 987 231 961 q 161 1049 176 1013 q 146 1131 146 1085 l 146 1140 l 272 1140 q 296 1070 275 1088 q 347 1053 317 1053 q 399 1070 378 1053 q 424 1140 419 1088 l 549 1140 l 549 1131 q 533 1049 549 1085 q 491 987 518 1013 q 427 948 464 961 q 347 935 390 935 z "},"ă":{"ha":694,"x_min":61,"x_max":613,"o":"m 349 122 q 403 123 376 122 q 449 126 429 124 l 449 276 q 408 281 432 279 q 365 283 385 283 q 314 280 339 283 q 270 268 289 276 q 240 244 251 260 q 229 204 229 229 q 263 141 229 160 q 349 122 296 122 m 333 669 q 467 651 414 669 q 553 598 521 632 q 599 515 585 564 q 613 404 613 465 l 613 15 q 501 -4 575 7 q 336 -15 428 -15 q 223 -4 274 -15 q 136 33 172 7 q 81 99 100 58 q 61 200 61 140 q 83 296 61 257 q 143 358 106 335 q 229 392 181 382 q 331 403 278 403 q 449 392 397 403 l 449 413 q 418 494 449 461 q 313 526 388 526 q 219 519 264 526 q 146 503 174 513 l 122 640 q 213 660 154 651 q 333 669 271 669 m 347 742 q 267 755 304 742 q 203 794 231 768 q 161 856 176 819 q 146 938 146 892 l 146 947 l 272 947 q 296 877 275 894 q 347 860 317 860 q 399 877 378 860 q 424 947 419 894 l 549 947 l 549 938 q 533 856 549 892 q 491 794 518 819 q 427 755 464 768 q 347 742 390 742 z "},"Ą":{"ha":694,"x_min":13,"x_max":701,"o":"m 346 693 q 320 601 332 644 q 298 515 308 557 q 278 429 288 472 q 261 340 269 386 l 429 340 q 413 429 421 386 q 394 515 404 472 q 372 601 383 557 q 346 693 360 644 m 499 0 l 458 199 l 229 199 l 190 0 l 13 0 q 136 463 74 254 q 257 860 199 672 l 443 860 q 565 459 504 671 q 682 0 625 247 q 653 -25 669 -11 q 624 -54 638 -39 q 601 -85 610 -69 q 592 -112 592 -100 q 599 -136 592 -126 q 629 -146 607 -146 q 656 -144 640 -146 q 692 -136 671 -143 l 701 -217 q 647 -230 682 -224 q 572 -236 611 -236 q 476 -210 506 -236 q 447 -147 447 -185 q 466 -76 447 -114 q 521 -11 485 -39 l 533 0 l 499 0 z "},"ą":{"ha":694,"x_min":61,"x_max":613,"o":"m 610 -217 q 555 -230 590 -224 q 481 -236 519 -236 q 385 -210 414 -236 q 356 -147 356 -185 q 376 -77 356 -114 q 429 -10 396 -40 q 382 -14 406 -12 q 336 -15 358 -15 q 223 -4 274 -15 q 136 33 172 7 q 81 99 100 58 q 61 200 61 140 q 83 296 61 257 q 143 358 106 335 q 229 392 181 382 q 331 403 278 403 q 449 392 397 403 l 449 413 q 418 494 449 461 q 313 526 388 526 q 219 519 264 526 q 146 503 174 513 l 122 640 q 213 660 154 651 q 333 669 271 669 q 467 651 414 669 q 553 598 521 632 q 599 515 585 564 q 613 404 613 465 l 613 18 q 584 -4 603 11 q 547 -38 565 -19 q 514 -76 528 -57 q 500 -112 500 -96 q 508 -136 500 -126 q 538 -146 515 -146 q 564 -144 549 -146 q 600 -136 579 -143 l 610 -217 m 349 122 q 403 123 376 122 q 449 126 429 124 l 449 276 q 408 281 432 279 q 365 283 385 283 q 314 280 339 283 q 270 268 289 276 q 240 244 251 260 q 229 204 229 229 q 263 141 229 160 q 349 122 296 122 z "},"Ć":{"ha":694,"x_min":38,"x_max":651,"o":"m 411 -18 q 133 99 229 -18 q 38 431 38 215 q 67 621 38 538 q 148 762 96 704 q 272 849 200 819 q 428 879 343 879 q 510 872 474 879 q 575 854 547 864 q 622 833 603 844 q 650 817 640 822 l 606 681 q 528 716 574 701 q 425 731 483 731 q 347 716 385 731 q 278 667 308 701 q 230 576 249 633 q 211 435 211 519 q 262 209 211 288 q 428 131 313 131 q 538 146 494 131 q 608 176 582 161 l 651 42 q 553 1 615 19 q 411 -18 492 -18 m 565 1022 l 324 906 l 261 999 l 481 1153 l 565 1022 z "},"ć":{"ha":694,"x_min":61,"x_max":647,"o":"m 61 326 q 83 460 61 397 q 151 569 106 522 q 267 642 197 615 q 435 669 338 669 q 540 661 493 669 q 636 633 588 653 l 599 496 q 537 513 571 506 q 450 521 503 521 q 348 506 389 521 q 282 466 307 492 q 246 404 257 440 q 235 326 235 368 q 285 185 235 236 q 458 133 336 133 q 542 139 499 133 q 622 157 586 144 l 647 17 q 560 -6 611 3 q 439 -15 508 -15 q 267 11 339 -15 q 150 83 196 38 q 83 192 104 129 q 61 326 61 254 m 553 829 l 311 713 l 249 806 l 468 960 l 553 829 z "},"Ĉ":{"ha":694,"x_min":38,"x_max":651,"o":"m 411 -18 q 133 99 229 -18 q 38 431 38 215 q 67 621 38 538 q 148 762 96 704 q 272 849 200 819 q 428 879 343 879 q 510 872 474 879 q 575 854 547 864 q 622 833 603 844 q 650 817 640 822 l 606 681 q 528 716 574 701 q 425 731 483 731 q 347 716 385 731 q 278 667 308 701 q 230 576 249 633 q 211 435 211 519 q 262 209 211 288 q 428 131 313 131 q 538 146 494 131 q 608 176 582 161 l 651 42 q 553 1 615 19 q 411 -18 492 -18 m 617 983 l 549 901 l 425 997 l 301 901 l 231 983 l 425 1153 l 617 983 z "},"ĉ":{"ha":694,"x_min":61,"x_max":647,"o":"m 61 326 q 83 460 61 397 q 151 569 106 522 q 267 642 197 615 q 435 669 338 669 q 540 661 493 669 q 636 633 588 653 l 599 496 q 537 513 571 506 q 450 521 503 521 q 348 506 389 521 q 282 466 307 492 q 246 404 257 440 q 235 326 235 368 q 285 185 235 236 q 458 133 336 133 q 542 139 499 133 q 622 157 586 144 l 647 17 q 560 -6 611 3 q 439 -15 508 -15 q 267 11 339 -15 q 150 83 196 38 q 83 192 104 129 q 61 326 61 254 m 604 790 l 536 708 l 413 804 l 289 708 l 218 790 l 413 960 l 604 790 z "},"Ċ":{"ha":694,"x_min":38,"x_max":651,"o":"m 411 -18 q 133 99 229 -18 q 38 431 38 215 q 67 621 38 538 q 148 762 96 704 q 272 849 200 819 q 428 879 343 879 q 510 872 474 879 q 575 854 547 864 q 622 833 603 844 q 650 817 640 822 l 606 681 q 528 716 574 701 q 425 731 483 731 q 347 716 385 731 q 278 667 308 701 q 230 576 249 633 q 211 435 211 519 q 262 209 211 288 q 428 131 313 131 q 538 146 494 131 q 608 176 582 161 l 651 42 q 553 1 615 19 q 411 -18 492 -18 m 422 938 q 353 963 382 938 q 324 1033 324 989 q 353 1104 324 1078 q 422 1131 382 1131 q 492 1104 463 1131 q 521 1033 521 1078 q 492 963 521 989 q 422 938 463 938 z "},"ċ":{"ha":694,"x_min":61,"x_max":647,"o":"m 61 326 q 83 460 61 397 q 151 569 106 522 q 267 642 197 615 q 435 669 338 669 q 540 661 493 669 q 636 633 588 653 l 599 496 q 537 513 571 506 q 450 521 503 521 q 348 506 389 521 q 282 466 307 492 q 246 404 257 440 q 235 326 235 368 q 285 185 235 236 q 458 133 336 133 q 542 139 499 133 q 622 157 586 144 l 647 17 q 560 -6 611 3 q 439 -15 508 -15 q 267 11 339 -15 q 150 83 196 38 q 83 192 104 129 q 61 326 61 254 m 422 744 q 353 770 382 744 q 324 840 324 796 q 353 911 324 885 q 422 938 382 938 q 492 911 463 938 q 521 840 521 885 q 492 770 521 796 q 422 744 463 744 z "},"Č":{"ha":694,"x_min":38,"x_max":651,"o":"m 411 -18 q 133 99 229 -18 q 38 431 38 215 q 67 621 38 538 q 148 762 96 704 q 272 849 200 819 q 428 879 343 879 q 510 872 474 879 q 575 854 547 864 q 622 833 603 844 q 650 817 640 822 l 606 681 q 528 716 574 701 q 425 731 483 731 q 347 716 385 731 q 278 667 308 701 q 230 576 249 633 q 211 435 211 519 q 262 209 211 288 q 428 131 313 131 q 538 146 494 131 q 608 176 582 161 l 651 42 q 553 1 615 19 q 411 -18 492 -18 m 231 1071 l 299 1153 l 422 1057 l 546 1153 l 617 1071 l 422 901 l 231 1071 z "},"č":{"ha":694,"x_min":61,"x_max":647,"o":"m 61 326 q 83 460 61 397 q 151 569 106 522 q 267 642 197 615 q 435 669 338 669 q 540 661 493 669 q 636 633 588 653 l 599 496 q 537 513 571 506 q 450 521 503 521 q 348 506 389 521 q 282 466 307 492 q 246 404 257 440 q 235 326 235 368 q 285 185 235 236 q 458 133 336 133 q 542 139 499 133 q 622 157 586 144 l 647 17 q 560 -6 611 3 q 439 -15 508 -15 q 267 11 339 -15 q 150 83 196 38 q 83 192 104 129 q 61 326 61 254 m 231 878 l 299 960 l 422 864 l 546 960 l 617 878 l 422 708 l 231 878 z "},"Ď":{"ha":694,"x_min":75,"x_max":657,"o":"m 246 139 q 261 138 253 138 q 276 138 269 138 q 374 160 335 138 q 438 221 414 182 q 473 313 463 260 q 483 431 483 367 q 475 539 483 486 q 446 632 467 592 q 389 697 425 672 q 296 721 353 721 q 271 720 285 721 q 246 717 257 719 l 246 139 m 657 431 q 627 227 657 311 q 544 90 597 143 q 419 13 492 38 q 258 -11 346 -11 q 169 -6 213 -11 q 75 10 125 -1 l 75 849 q 185 865 133 861 q 281 869 236 869 q 435 844 365 869 q 554 766 506 819 q 630 630 603 713 q 657 431 657 547 m 107 1071 l 175 1153 l 299 1057 l 422 1153 l 493 1071 l 299 901 l 107 1071 z "},"ď":{"ha":694,"x_min":18,"x_max":719,"o":"m 192 331 q 215 188 192 243 q 288 132 238 132 q 340 138 318 132 l 340 493 q 307 512 326 504 q 267 519 288 519 q 209 471 226 519 q 192 331 192 422 m 513 19 q 408 -6 469 4 q 286 -15 346 -15 q 86 75 154 -15 q 18 322 18 165 q 74 574 18 482 q 238 667 129 667 q 293 659 265 667 q 340 638 321 651 l 340 935 l 513 964 l 513 19 m 719 963 l 679 660 l 568 660 l 568 963 l 719 963 z "},"Đ":{"ha":694,"x_min":25,"x_max":657,"o":"m 657 431 q 628 227 657 311 q 549 90 600 143 q 429 13 499 38 q 276 -11 360 -11 q 190 -6 232 -11 q 99 10 147 -1 l 99 375 l 25 375 l 25 517 l 99 517 l 99 849 q 206 865 157 861 q 299 869 254 869 q 446 844 379 869 q 559 766 513 819 q 631 630 606 713 q 657 431 657 547 m 271 517 l 376 517 l 376 375 l 271 375 l 271 139 q 283 138 276 138 q 296 138 289 138 q 385 160 349 138 q 442 221 421 182 q 474 313 464 260 q 483 431 483 367 q 476 539 483 486 q 451 632 469 592 q 399 697 432 672 q 314 721 365 721 q 292 720 303 721 q 271 717 281 719 l 271 517 z "},"đ":{"ha":694,"x_min":39,"x_max":669,"o":"m 593 854 l 669 854 l 669 739 l 593 739 l 593 19 q 478 -6 544 4 q 344 -15 411 -15 q 116 75 193 -15 q 39 322 39 165 q 104 574 39 482 q 296 667 169 667 q 364 659 331 667 q 422 638 397 651 l 422 739 l 244 739 l 244 854 l 422 854 l 422 935 l 593 964 l 593 854 m 213 331 q 244 188 213 243 q 346 132 275 132 q 385 133 368 132 q 422 138 403 135 l 422 493 q 378 512 403 504 q 325 519 353 519 q 240 471 267 519 q 213 331 213 422 z "},"Ē":{"ha":694,"x_min":88,"x_max":639,"o":"m 88 0 l 88 860 l 608 860 l 608 718 l 258 718 l 258 525 l 563 525 l 563 383 l 258 383 l 258 142 l 639 142 l 639 0 l 88 0 m 150 1092 l 550 1092 l 550 971 l 150 971 l 150 1092 z "},"ē":{"ha":694,"x_min":43,"x_max":646,"o":"m 43 321 q 69 472 43 407 q 139 581 96 538 q 238 647 182 625 q 351 669 293 669 q 571 584 496 669 q 646 335 646 499 q 645 300 646 318 q 643 271 644 282 l 219 271 q 272 170 219 207 q 408 133 325 133 q 506 144 460 133 q 585 167 553 156 l 608 21 q 514 -5 564 6 q 401 -15 464 -15 q 252 6 318 -15 q 140 70 186 28 q 68 175 93 113 q 43 321 43 238 m 481 389 q 474 440 481 415 q 451 483 467 464 q 413 515 436 503 q 354 526 389 526 q 297 515 321 526 q 256 485 272 504 q 231 440 240 465 q 219 389 222 415 l 481 389 m 149 899 l 549 899 l 549 778 l 149 778 l 149 899 z "},"Ĕ":{"ha":694,"x_min":88,"x_max":639,"o":"m 88 0 l 88 860 l 608 860 l 608 718 l 258 718 l 258 525 l 563 525 l 563 383 l 258 383 l 258 142 l 639 142 l 639 0 l 88 0 m 347 935 q 267 948 304 935 q 203 987 231 961 q 161 1049 176 1013 q 146 1131 146 1085 l 146 1140 l 272 1140 q 296 1070 275 1088 q 347 1053 317 1053 q 399 1070 378 1053 q 424 1140 419 1088 l 549 1140 l 549 1131 q 533 1049 549 1085 q 491 987 518 1013 q 427 948 464 961 q 347 935 390 935 z "},"ĕ":{"ha":694,"x_min":43,"x_max":646,"o":"m 43 321 q 69 472 43 407 q 139 581 96 538 q 238 647 182 625 q 351 669 293 669 q 571 584 496 669 q 646 335 646 499 q 645 300 646 318 q 643 271 644 282 l 219 271 q 272 170 219 207 q 408 133 325 133 q 506 144 460 133 q 585 167 553 156 l 608 21 q 514 -5 564 6 q 401 -15 464 -15 q 252 6 318 -15 q 140 70 186 28 q 68 175 93 113 q 43 321 43 238 m 481 389 q 474 440 481 415 q 451 483 467 464 q 413 515 436 503 q 354 526 389 526 q 297 515 321 526 q 256 485 272 504 q 231 440 240 465 q 219 389 222 415 l 481 389 m 347 742 q 267 755 304 742 q 203 794 231 768 q 161 856 176 819 q 146 938 146 892 l 146 947 l 272 947 q 296 877 275 894 q 347 860 317 860 q 399 877 378 860 q 424 947 419 894 l 549 947 l 549 938 q 533 856 549 892 q 491 794 518 819 q 427 755 464 768 q 347 742 390 742 z "},"Ė":{"ha":694,"x_min":88,"x_max":639,"o":"m 88 0 l 88 860 l 608 860 l 608 718 l 258 718 l 258 525 l 563 525 l 563 383 l 258 383 l 258 142 l 639 142 l 639 0 l 88 0 m 347 938 q 278 963 307 938 q 249 1033 249 989 q 278 1104 249 1078 q 347 1131 307 1131 q 417 1104 388 1131 q 446 1033 446 1078 q 417 963 446 989 q 347 938 388 938 z "},"ė":{"ha":694,"x_min":43,"x_max":646,"o":"m 43 321 q 69 472 43 407 q 139 581 96 538 q 238 647 182 625 q 351 669 293 669 q 571 584 496 669 q 646 335 646 499 q 645 300 646 318 q 643 271 644 282 l 219 271 q 272 170 219 207 q 408 133 325 133 q 506 144 460 133 q 585 167 553 156 l 608 21 q 514 -5 564 6 q 401 -15 464 -15 q 252 6 318 -15 q 140 70 186 28 q 68 175 93 113 q 43 321 43 238 m 481 389 q 474 440 481 415 q 451 483 467 464 q 413 515 436 503 q 354 526 389 526 q 297 515 321 526 q 256 485 272 504 q 231 440 240 465 q 219 389 222 415 l 481 389 m 347 744 q 278 770 307 744 q 249 840 249 796 q 278 911 249 885 q 347 938 307 938 q 417 911 388 938 q 446 840 446 885 q 417 770 446 796 q 347 744 388 744 z "},"Ę":{"ha":694,"x_min":88,"x_max":658,"o":"m 88 0 l 88 860 l 608 860 l 608 718 l 258 718 l 258 525 l 563 525 l 563 383 l 258 383 l 258 142 l 639 142 l 639 0 q 609 -25 625 -11 q 580 -54 593 -39 q 558 -85 567 -69 q 549 -112 549 -100 q 556 -136 549 -126 q 586 -146 564 -146 q 613 -144 597 -146 q 649 -136 628 -143 l 658 -217 q 603 -230 639 -224 q 529 -236 568 -236 q 433 -210 463 -236 q 404 -147 404 -185 q 427 -71 404 -111 q 490 0 450 -31 l 88 0 z "},"ę":{"ha":694,"x_min":43,"x_max":646,"o":"m 596 -217 q 541 -230 576 -224 q 467 -236 506 -236 q 371 -210 400 -236 q 342 -147 342 -185 q 360 -80 342 -115 q 410 -15 378 -44 l 401 -15 q 252 6 318 -15 q 140 70 186 28 q 68 175 93 113 q 43 321 43 238 q 69 472 43 407 q 139 581 96 538 q 238 647 182 625 q 351 669 293 669 q 571 584 496 669 q 646 335 646 499 q 645 300 646 318 q 643 271 644 282 l 219 271 q 272 170 219 207 q 408 133 325 133 q 506 144 460 133 q 585 167 553 156 l 608 24 l 596 15 q 566 -7 585 8 q 530 -40 547 -22 q 499 -78 513 -58 q 486 -112 486 -97 q 494 -136 486 -126 q 524 -146 501 -146 q 550 -144 535 -146 q 586 -136 565 -143 l 596 -217 m 481 389 q 474 440 481 415 q 451 483 467 464 q 413 515 436 503 q 354 526 389 526 q 297 515 321 526 q 256 485 272 504 q 231 440 240 465 q 219 389 222 415 l 481 389 z "},"Ě":{"ha":694,"x_min":88,"x_max":639,"o":"m 88 0 l 88 860 l 608 860 l 608 718 l 258 718 l 258 525 l 563 525 l 563 383 l 258 383 l 258 142 l 639 142 l 639 0 l 88 0 m 156 1071 l 224 1153 l 347 1057 l 471 1153 l 542 1071 l 347 901 l 156 1071 z "},"ě":{"ha":694,"x_min":43,"x_max":646,"o":"m 43 321 q 69 472 43 407 q 139 581 96 538 q 238 647 182 625 q 351 669 293 669 q 571 584 496 669 q 646 335 646 499 q 645 300 646 318 q 643 271 644 282 l 219 271 q 272 170 219 207 q 408 133 325 133 q 506 144 460 133 q 585 167 553 156 l 608 21 q 514 -5 564 6 q 401 -15 464 -15 q 252 6 318 -15 q 140 70 186 28 q 68 175 93 113 q 43 321 43 238 m 481 389 q 474 440 481 415 q 451 483 467 464 q 413 515 436 503 q 354 526 389 526 q 297 515 321 526 q 256 485 272 504 q 231 440 240 465 q 219 389 222 415 l 481 389 m 156 878 l 224 960 l 347 864 l 471 960 l 542 878 l 347 708 l 156 878 z "},"Ĝ":{"ha":694,"x_min":38,"x_max":644,"o":"m 433 731 q 331 708 372 731 q 262 647 289 686 q 223 552 235 607 q 211 431 211 497 q 260 203 211 276 q 403 131 308 131 q 436 132 418 131 q 469 136 454 133 l 469 450 l 640 450 l 640 21 q 545 -4 610 10 q 389 -18 481 -18 q 244 10 308 -18 q 133 95 179 39 q 63 235 88 151 q 38 431 38 319 q 67 624 38 540 q 146 765 96 708 q 264 851 196 822 q 410 879 332 879 q 499 872 460 879 q 568 854 539 864 q 616 833 597 844 q 644 817 635 822 l 600 681 q 525 715 569 700 q 433 731 481 731 m 604 983 l 536 901 l 413 997 l 289 901 l 218 983 l 413 1153 l 604 983 z "},"ĝ":{"ha":694,"x_min":46,"x_max":608,"o":"m 219 347 q 249 224 219 267 q 340 182 278 182 q 392 189 368 182 q 436 207 417 196 l 436 521 q 401 526 417 525 q 369 528 386 528 q 219 347 219 528 m 608 79 q 531 -157 608 -81 q 283 -233 454 -233 q 166 -221 222 -233 q 58 -192 110 -208 l 90 -47 q 175 -76 131 -62 q 286 -89 219 -89 q 360 -78 331 -89 q 406 -50 389 -68 q 429 -8 422 -32 q 436 44 436 17 l 436 71 q 370 50 400 57 q 306 43 340 43 q 112 124 178 43 q 46 347 46 204 q 135 588 46 508 q 376 667 224 667 q 608 632 483 667 l 608 79 m 542 790 l 474 708 l 350 804 l 226 708 l 156 790 l 350 960 l 542 790 z "},"Ğ":{"ha":694,"x_min":38,"x_max":644,"o":"m 433 731 q 331 708 372 731 q 262 647 289 686 q 223 552 235 607 q 211 431 211 497 q 260 203 211 276 q 403 131 308 131 q 436 132 418 131 q 469 136 454 133 l 469 450 l 640 450 l 640 21 q 545 -4 610 10 q 389 -18 481 -18 q 244 10 308 -18 q 133 95 179 39 q 63 235 88 151 q 38 431 38 319 q 67 624 38 540 q 146 765 96 708 q 264 851 196 822 q 410 879 332 879 q 499 872 460 879 q 568 854 539 864 q 616 833 597 844 q 644 817 635 822 l 600 681 q 525 715 569 700 q 433 731 481 731 m 410 935 q 330 948 367 935 q 266 987 293 961 q 224 1049 239 1013 q 208 1131 208 1085 l 208 1140 l 335 1140 q 358 1070 338 1088 q 410 1053 379 1053 q 461 1070 440 1053 q 486 1140 482 1088 l 611 1140 l 611 1131 q 596 1049 611 1085 q 553 987 581 1013 q 490 948 526 961 q 410 935 453 935 z "},"ğ":{"ha":694,"x_min":46,"x_max":608,"o":"m 219 347 q 249 224 219 267 q 340 182 278 182 q 392 189 368 182 q 436 207 417 196 l 436 521 q 401 526 417 525 q 369 528 386 528 q 219 347 219 528 m 608 79 q 531 -157 608 -81 q 283 -233 454 -233 q 166 -221 222 -233 q 58 -192 110 -208 l 90 -47 q 175 -76 131 -62 q 286 -89 219 -89 q 360 -78 331 -89 q 406 -50 389 -68 q 429 -8 422 -32 q 436 44 436 17 l 436 71 q 370 50 400 57 q 306 43 340 43 q 112 124 178 43 q 46 347 46 204 q 135 588 46 508 q 376 667 224 667 q 608 632 483 667 l 608 79 m 347 742 q 267 755 304 742 q 203 794 231 768 q 161 856 176 819 q 146 938 146 892 l 146 947 l 272 947 q 296 877 275 894 q 347 860 317 860 q 399 877 378 860 q 424 947 419 894 l 549 947 l 549 938 q 533 856 549 892 q 491 794 518 819 q 427 755 464 768 q 347 742 390 742 z "},"Ġ":{"ha":694,"x_min":38,"x_max":644,"o":"m 433 731 q 331 708 372 731 q 262 647 289 686 q 223 552 235 607 q 211 431 211 497 q 260 203 211 276 q 403 131 308 131 q 436 132 418 131 q 469 136 454 133 l 469 450 l 640 450 l 640 21 q 545 -4 610 10 q 389 -18 481 -18 q 244 10 308 -18 q 133 95 179 39 q 63 235 88 151 q 38 431 38 319 q 67 624 38 540 q 146 765 96 708 q 264 851 196 822 q 410 879 332 879 q 499 872 460 879 q 568 854 539 864 q 616 833 597 844 q 644 817 635 822 l 600 681 q 525 715 569 700 q 433 731 481 731 m 410 938 q 340 963 369 938 q 311 1033 311 989 q 340 1104 311 1078 q 410 1131 369 1131 q 479 1104 450 1131 q 508 1033 508 1078 q 479 963 508 989 q 410 938 450 938 z "},"ġ":{"ha":694,"x_min":46,"x_max":608,"o":"m 219 347 q 249 224 219 267 q 340 182 278 182 q 392 189 368 182 q 436 207 417 196 l 436 521 q 401 526 417 525 q 369 528 386 528 q 219 347 219 528 m 608 79 q 531 -157 608 -81 q 283 -233 454 -233 q 166 -221 222 -233 q 58 -192 110 -208 l 90 -47 q 175 -76 131 -62 q 286 -89 219 -89 q 360 -78 331 -89 q 406 -50 389 -68 q 429 -8 422 -32 q 436 44 436 17 l 436 71 q 370 50 400 57 q 306 43 340 43 q 112 124 178 43 q 46 347 46 204 q 135 588 46 508 q 376 667 224 667 q 608 632 483 667 l 608 79 m 347 744 q 278 770 307 744 q 249 840 249 796 q 278 911 249 885 q 347 938 307 938 q 417 911 388 938 q 446 840 446 885 q 417 770 446 796 q 347 744 388 744 z "},"Ģ":{"ha":694,"x_min":38,"x_max":644,"o":"m 433 731 q 331 708 372 731 q 262 647 289 686 q 223 552 235 607 q 211 431 211 497 q 260 203 211 276 q 403 131 308 131 q 436 132 418 131 q 469 136 454 133 l 469 450 l 640 450 l 640 21 q 545 -4 610 10 q 389 -18 481 -18 q 244 10 308 -18 q 133 95 179 39 q 63 235 88 151 q 38 431 38 319 q 67 624 38 540 q 146 765 96 708 q 264 851 196 822 q 410 879 332 879 q 499 872 460 879 q 568 854 539 864 q 616 833 597 844 q 644 817 635 822 l 600 681 q 525 715 569 700 q 433 731 481 731 m 331 -62 l 463 -62 q 467 -106 467 -86 q 424 -204 467 -172 q 304 -236 382 -236 q 260 -233 285 -236 q 228 -226 236 -229 l 228 -144 q 270 -143 251 -144 q 303 -134 289 -142 q 324 -112 317 -126 q 331 -72 331 -97 l 331 -62 z "},"ģ":{"ha":694,"x_min":46,"x_max":608,"o":"m 219 347 q 249 224 219 267 q 340 182 278 182 q 392 189 368 182 q 436 207 417 196 l 436 521 q 401 526 417 525 q 369 528 386 528 q 219 347 219 528 m 608 79 q 531 -157 608 -81 q 283 -233 454 -233 q 166 -221 222 -233 q 58 -192 110 -208 l 90 -47 q 175 -76 131 -62 q 286 -89 219 -89 q 360 -78 331 -89 q 406 -50 389 -68 q 429 -8 422 -32 q 436 44 436 17 l 436 71 q 370 50 400 57 q 306 43 340 43 q 112 124 178 43 q 46 347 46 204 q 135 588 46 508 q 376 667 224 667 q 608 632 483 667 l 608 79 m 436 743 l 285 743 q 319 903 274 846 q 451 983 365 961 l 513 899 q 455 845 474 875 q 436 760 436 815 l 436 743 z "},"Ĥ":{"ha":694,"x_min":63,"x_max":632,"o":"m 632 860 l 632 0 l 461 0 l 461 379 l 233 379 l 233 0 l 63 0 l 63 860 l 233 860 l 233 521 l 461 521 l 461 860 l 632 860 m 542 983 l 474 901 l 350 997 l 226 901 l 156 983 l 350 1153 l 542 983 z "},"ĥ":{"ha":694,"x_min":76,"x_max":613,"o":"m 88 0 l 88 879 l 258 908 l 258 647 q 308 660 279 654 q 360 667 338 667 q 481 645 432 667 q 558 584 529 624 q 600 490 588 544 q 613 368 613 435 l 613 0 l 442 0 l 442 346 q 421 478 442 438 q 342 518 400 518 q 295 513 318 518 q 258 503 272 507 l 258 0 l 88 0 m 440 1019 l 388 940 l 260 1015 l 129 940 l 76 1019 l 260 1151 l 440 1019 z "},"Ħ":{"ha":694,"x_min":25,"x_max":671,"o":"m 608 860 l 608 760 l 671 760 l 671 622 l 608 622 l 608 0 l 436 0 l 436 353 l 258 353 l 258 0 l 88 0 l 88 622 l 25 622 l 25 760 l 88 760 l 88 860 l 258 860 l 258 760 l 436 760 l 436 860 l 608 860 m 436 493 l 436 622 l 258 622 l 258 493 l 436 493 z "},"ħ":{"ha":694,"x_min":35,"x_max":613,"o":"m 111 0 l 111 739 l 35 739 l 35 854 l 111 854 l 111 935 l 283 964 l 283 854 l 460 854 l 460 739 l 283 739 l 283 647 q 329 660 303 654 q 376 667 356 667 q 490 645 444 667 q 562 584 535 624 q 601 490 589 544 q 613 368 613 435 l 613 0 l 442 0 l 442 346 q 424 478 442 438 q 357 518 406 518 q 316 513 338 518 q 283 503 294 507 l 283 0 l 111 0 z "},"Ĩ":{"ha":694,"x_min":75,"x_max":621,"o":"m 75 0 l 75 142 l 263 142 l 263 718 l 75 718 l 75 860 l 621 860 l 621 718 l 435 718 l 435 142 l 621 142 l 621 0 l 75 0 m 574 1072 q 553 1031 567 1053 q 522 990 540 1010 q 479 958 503 971 q 428 946 456 946 q 387 953 406 946 q 349 967 368 960 q 312 982 331 975 q 272 989 293 989 q 233 973 249 989 q 206 936 217 957 l 124 990 q 144 1032 131 1010 q 176 1074 157 1054 q 218 1106 194 1093 q 271 1118 242 1118 q 312 1111 293 1118 q 349 1097 331 1104 q 386 1082 368 1089 q 425 1075 404 1075 q 465 1090 449 1075 q 492 1126 482 1106 l 574 1072 z "},"ĩ":{"ha":694,"x_min":50,"x_max":649,"o":"m 649 28 q 549 -6 596 3 q 464 -15 503 -15 q 352 4 397 -15 q 280 60 307 24 q 242 150 253 97 q 231 271 231 203 l 231 511 l 50 511 l 50 653 l 401 653 l 401 249 q 423 162 401 190 q 494 133 444 133 q 551 140 518 133 q 626 165 585 146 l 649 28 m 549 879 q 528 838 542 860 q 497 797 515 817 q 454 765 478 778 q 403 753 431 753 q 362 760 381 753 q 324 774 343 767 q 287 789 306 782 q 247 796 268 796 q 208 780 224 796 q 181 743 192 764 l 99 797 q 119 839 106 817 q 151 881 132 861 q 193 913 169 900 q 246 925 217 925 q 287 918 268 925 q 324 903 306 911 q 361 889 343 896 q 400 882 379 882 q 440 897 424 882 q 467 933 457 913 l 549 879 z "},"Ī":{"ha":694,"x_min":75,"x_max":621,"o":"m 75 0 l 75 142 l 263 142 l 263 718 l 75 718 l 75 860 l 621 860 l 621 718 l 435 718 l 435 142 l 621 142 l 621 0 l 75 0 m 149 1092 l 549 1092 l 549 971 l 149 971 l 149 1092 z "},"ī":{"ha":694,"x_min":50,"x_max":649,"o":"m 649 28 q 549 -6 596 3 q 464 -15 503 -15 q 352 4 397 -15 q 280 60 307 24 q 242 150 253 97 q 231 271 231 203 l 231 511 l 50 511 l 50 653 l 401 653 l 401 249 q 423 162 401 190 q 494 133 444 133 q 551 140 518 133 q 626 165 585 146 l 649 28 m 124 899 l 524 899 l 524 778 l 124 778 l 124 899 z "},"Ĭ":{"ha":694,"x_min":75,"x_max":621,"o":"m 75 0 l 75 142 l 263 142 l 263 718 l 75 718 l 75 860 l 621 860 l 621 718 l 435 718 l 435 142 l 621 142 l 621 0 l 75 0 m 347 935 q 267 948 304 935 q 203 987 231 961 q 161 1049 176 1013 q 146 1131 146 1085 l 146 1140 l 272 1140 q 296 1070 275 1088 q 347 1053 317 1053 q 399 1070 378 1053 q 424 1140 419 1088 l 549 1140 l 549 1131 q 533 1049 549 1085 q 491 987 518 1013 q 427 948 464 961 q 347 935 390 935 z "},"ĭ":{"ha":694,"x_min":50,"x_max":649,"o":"m 649 28 q 549 -6 596 3 q 464 -15 503 -15 q 352 4 397 -15 q 280 60 307 24 q 242 150 253 97 q 231 271 231 203 l 231 511 l 50 511 l 50 653 l 401 653 l 401 249 q 423 162 401 190 q 494 133 444 133 q 551 140 518 133 q 626 165 585 146 l 649 28 m 324 742 q 244 755 281 742 q 180 794 207 768 q 138 856 153 819 q 122 938 122 892 l 122 947 l 249 947 q 272 877 251 894 q 324 860 293 860 q 375 877 354 860 q 400 947 396 894 l 525 947 l 525 938 q 510 856 525 892 q 467 794 494 819 q 403 755 440 768 q 324 742 367 742 z "},"Į":{"ha":694,"x_min":75,"x_max":621,"o":"m 464 -217 q 409 -230 444 -224 q 335 -236 374 -236 q 239 -210 268 -236 q 210 -147 210 -185 q 233 -71 210 -111 q 296 0 256 -31 l 75 0 l 75 142 l 263 142 l 263 718 l 75 718 l 75 860 l 621 860 l 621 718 l 435 718 l 435 142 l 621 142 l 621 0 l 443 0 q 414 -25 429 -11 q 385 -54 399 -39 q 363 -85 372 -69 q 354 -112 354 -100 q 362 -136 354 -126 q 392 -146 369 -146 q 418 -144 403 -146 q 454 -136 433 -143 l 464 -217 z "},"į":{"ha":694,"x_min":50,"x_max":649,"o":"m 394 840 q 363 761 394 790 q 286 732 331 732 q 210 761 242 732 q 179 840 179 790 q 210 921 179 892 q 286 950 242 950 q 363 921 331 950 q 394 840 394 892 m 615 0 q 585 -25 601 -11 q 556 -54 569 -39 q 535 -85 543 -69 q 526 -112 526 -100 q 534 -136 526 -126 q 564 -146 542 -146 q 590 -144 575 -146 q 626 -136 606 -143 l 636 -217 q 521 -236 582 -236 q 468 -231 493 -236 q 424 -216 443 -226 q 394 -188 406 -206 q 382 -147 382 -171 q 400 -80 382 -115 q 450 -15 418 -44 q 345 8 388 -12 q 278 65 303 28 q 242 153 253 101 q 231 271 231 206 l 231 511 l 50 511 l 50 653 l 401 653 l 401 247 q 423 160 401 188 q 494 133 444 133 q 551 140 518 133 q 626 165 585 146 l 649 25 l 615 0 z "},"İ":{"ha":694,"x_min":75,"x_max":621,"o":"m 75 0 l 75 142 l 263 142 l 263 718 l 75 718 l 75 860 l 621 860 l 621 718 l 435 718 l 435 142 l 621 142 l 621 0 l 75 0 m 347 958 q 278 984 307 958 q 249 1054 249 1010 q 278 1125 249 1099 q 347 1151 307 1151 q 417 1125 388 1151 q 446 1054 446 1099 q 417 984 446 1010 q 347 958 388 958 z "},"ı":{"ha":694,"x_min":50,"x_max":649,"o":"m 649 28 q 549 -6 596 3 q 464 -15 503 -15 q 352 4 397 -15 q 280 60 307 24 q 242 150 253 97 q 231 271 231 203 l 231 511 l 50 511 l 50 653 l 401 653 l 401 249 q 423 162 401 190 q 494 133 444 133 q 551 140 518 133 q 626 165 585 146 l 649 28 z "},"Ĳ":{"ha":694,"x_min":33,"x_max":667,"o":"m 33 0 l 33 860 l 204 860 l 204 0 l 33 0 m 667 269 q 648 128 667 183 q 596 40 629 72 q 519 -5 563 8 q 425 -18 475 -18 q 333 -6 376 -18 q 240 40 290 6 l 307 176 q 351 144 328 157 q 410 131 374 131 q 444 136 428 131 q 471 158 460 142 q 488 203 482 174 q 494 281 494 232 l 494 860 l 667 860 l 667 269 z "},"ĳ":{"ha":694,"x_min":76,"x_max":615,"o":"m 272 0 l 101 0 l 101 653 l 272 653 l 272 0 m 297 840 q 264 760 297 789 q 186 732 231 732 q 109 760 142 732 q 76 840 76 789 q 109 922 76 893 q 186 950 142 950 q 264 922 231 950 q 297 840 297 893 m 360 -229 q 308 -226 342 -229 q 244 -212 274 -224 l 268 -72 q 303 -81 288 -79 q 342 -83 318 -83 q 403 -57 386 -83 q 419 18 419 -31 l 419 653 l 592 653 l 592 24 q 535 -168 592 -107 q 360 -229 479 -229 m 615 840 q 582 760 615 789 q 504 732 549 732 q 427 760 460 732 q 394 840 394 789 q 427 922 394 893 q 504 950 460 950 q 582 922 549 950 q 615 840 615 893 z "},"Ĵ":{"ha":694,"x_min":58,"x_max":617,"o":"m 608 288 q 592 169 608 225 q 540 72 576 114 q 444 6 503 31 q 303 -18 386 -18 q 157 4 215 -18 q 58 58 99 26 l 124 194 q 201 151 158 172 q 288 131 243 131 q 395 166 354 131 q 436 297 436 201 l 436 718 l 149 718 l 149 860 l 608 860 l 608 288 m 617 983 l 549 901 l 425 997 l 301 901 l 231 983 l 425 1153 l 617 983 z "},"ĵ":{"ha":694,"x_min":68,"x_max":567,"o":"m 556 43 q 536 -90 556 -36 q 483 -176 517 -143 q 402 -222 449 -208 q 301 -236 356 -236 q 178 -219 235 -236 q 68 -176 121 -203 l 121 -32 q 205 -69 156 -51 q 294 -86 254 -86 q 361 -60 338 -86 q 385 35 385 -35 l 385 510 l 121 510 l 121 651 l 556 651 l 556 43 m 567 790 l 499 708 l 375 804 l 251 708 l 181 790 l 375 960 l 567 790 z "},"Ķ":{"ha":694,"x_min":63,"x_max":679,"o":"m 486 0 q 442 105 471 49 q 379 215 414 161 q 306 315 344 268 q 233 393 268 361 l 233 0 l 63 0 l 63 860 l 233 860 l 233 503 q 297 589 264 542 q 360 683 331 636 q 415 776 390 731 q 457 860 440 822 l 650 860 q 603 774 631 822 q 542 674 576 726 q 467 568 507 622 q 385 464 428 514 q 472 368 428 422 q 556 252 517 314 q 628 126 596 190 q 679 0 660 61 l 486 0 m 307 -62 l 439 -62 q 443 -106 443 -86 q 401 -204 443 -172 q 281 -236 358 -236 q 237 -233 261 -236 q 204 -226 213 -229 l 204 -144 q 247 -143 228 -144 q 279 -134 265 -142 q 300 -112 293 -126 q 307 -72 307 -97 l 307 -62 z "},"ķ":{"ha":694,"x_min":88,"x_max":676,"o":"m 260 394 q 310 456 285 424 q 360 524 336 489 q 407 591 385 558 q 446 653 429 624 l 651 653 q 594 583 626 621 q 528 507 563 546 q 460 432 494 468 q 399 365 426 396 q 474 285 433 332 q 553 189 514 239 q 624 89 592 139 q 676 0 657 39 l 481 0 q 437 78 464 35 q 379 165 410 122 q 317 245 349 207 q 260 308 286 283 l 260 0 l 88 0 l 88 935 l 260 964 l 260 394 m 307 -62 l 439 -62 q 443 -106 443 -86 q 401 -204 443 -172 q 281 -236 358 -236 q 237 -233 261 -236 q 204 -226 213 -229 l 204 -144 q 247 -143 228 -144 q 279 -134 265 -142 q 300 -112 293 -126 q 307 -72 307 -97 l 307 -62 z "},"ĸ":{"ha":694,"x_min":88,"x_max":676,"o":"m 260 394 q 310 456 285 424 q 360 524 336 489 q 407 591 385 558 q 446 653 429 624 l 651 653 q 594 583 626 621 q 528 507 563 546 q 460 432 494 468 q 399 365 426 396 q 474 285 433 332 q 553 189 514 239 q 624 89 592 139 q 676 0 657 39 l 481 0 q 437 78 464 35 q 379 165 410 122 q 317 245 349 207 q 260 308 286 283 l 260 0 l 88 0 l 88 651 l 260 653 l 260 394 z "},"Ĺ":{"ha":694,"x_min":99,"x_max":639,"o":"m 639 0 l 99 0 l 99 860 l 271 860 l 271 142 l 639 142 l 639 0 m 442 1022 l 200 906 l 138 999 l 357 1153 l 442 1022 z "},"ĺ":{"ha":694,"x_min":50,"x_max":649,"o":"m 649 28 q 630 18 644 25 q 592 3 615 11 q 534 -10 568 -4 q 457 -15 500 -15 q 285 55 339 -15 q 231 260 231 125 l 231 754 l 50 754 l 50 896 l 401 896 l 401 247 q 428 157 401 181 q 494 133 454 133 q 581 147 546 133 q 626 165 615 161 l 649 28 m 489 1026 l 218 940 l 181 1026 l 444 1151 l 489 1026 z "},"Ļ":{"ha":694,"x_min":99,"x_max":639,"o":"m 639 0 l 99 0 l 99 860 l 271 860 l 271 142 l 639 142 l 639 0 m 331 -62 l 463 -62 q 467 -106 467 -86 q 424 -204 467 -172 q 304 -236 382 -236 q 260 -233 285 -236 q 228 -226 236 -229 l 228 -144 q 270 -143 251 -144 q 303 -134 289 -142 q 324 -112 317 -126 q 331 -72 331 -97 l 331 -62 z "},"ļ":{"ha":694,"x_min":50,"x_max":649,"o":"m 649 28 q 630 18 644 25 q 592 3 615 11 q 534 -10 568 -4 q 457 -15 500 -15 q 285 55 339 -15 q 231 260 231 125 l 231 814 l 50 814 l 50 956 l 401 956 l 401 247 q 428 157 401 181 q 494 133 454 133 q 581 147 546 133 q 626 165 615 161 l 649 28 m 393 -62 l 525 -62 q 529 -106 529 -86 q 487 -204 529 -172 q 367 -236 444 -236 q 323 -233 347 -236 q 290 -226 299 -229 l 290 -144 q 333 -143 314 -144 q 365 -134 351 -142 q 386 -112 379 -126 q 393 -72 393 -97 l 393 -62 z "},"Ľ":{"ha":694,"x_min":99,"x_max":639,"o":"m 639 0 l 99 0 l 99 860 l 271 860 l 271 142 l 639 142 l 639 0 m 547 863 l 506 560 l 396 560 l 396 863 l 547 863 z "},"ľ":{"ha":694,"x_min":50,"x_max":663,"o":"m 649 28 q 630 18 644 25 q 592 3 615 11 q 534 -10 568 -4 q 457 -15 500 -15 q 285 55 339 -15 q 231 260 231 125 l 231 814 l 50 814 l 50 956 l 401 956 l 401 247 q 428 157 401 181 q 494 133 454 133 q 581 147 546 133 q 626 165 615 161 l 649 28 m 663 963 l 621 660 l 511 660 l 511 963 l 663 963 z "},"Ŀ":{"ha":694,"x_min":99,"x_max":639,"o":"m 636 500 q 601 415 636 444 q 521 386 565 386 q 441 415 476 386 q 406 500 406 444 q 441 585 406 556 q 521 614 476 614 q 601 585 565 614 q 636 500 636 556 m 639 0 l 99 0 l 99 860 l 271 860 l 271 142 l 639 142 l 639 0 z "},"ŀ":{"ha":694,"x_min":50,"x_max":789,"o":"m 789 511 q 753 426 789 456 q 674 397 718 397 q 594 426 629 397 q 558 511 558 456 q 594 596 558 567 q 674 625 629 625 q 753 596 718 625 q 789 511 789 567 m 649 28 q 630 18 644 25 q 592 3 615 11 q 534 -10 568 -4 q 457 -15 500 -15 q 285 55 339 -15 q 231 260 231 125 l 231 821 l 50 821 l 50 963 l 401 963 l 401 247 q 428 157 401 181 q 494 133 454 133 q 581 147 546 133 q 626 165 615 161 l 649 28 z "},"Ł":{"ha":694,"x_min":-14,"x_max":639,"o":"m 296 406 l 296 142 l 639 142 l 639 0 l 124 0 l 124 319 l 47 282 l -14 407 l 124 476 l 124 860 l 296 860 l 296 563 l 446 638 l 506 513 l 296 406 z "},"ł":{"ha":694,"x_min":50,"x_max":649,"o":"m 649 28 q 630 18 644 25 q 592 3 615 11 q 534 -10 568 -4 q 457 -15 500 -15 q 285 55 339 -15 q 231 260 231 125 l 231 415 l 154 376 l 99 492 l 231 557 l 231 814 l 50 814 l 50 956 l 401 956 l 401 642 l 490 686 l 546 572 l 401 500 l 401 247 q 428 157 401 181 q 494 133 454 133 q 581 147 546 133 q 626 165 615 161 l 649 28 z "},"Ń":{"ha":694,"x_min":64,"x_max":631,"o":"m 493 0 q 366 285 435 143 q 218 571 297 428 l 218 0 l 64 0 l 64 860 l 201 860 q 279 727 240 799 q 355 585 318 656 q 423 447 392 514 q 476 331 454 381 l 476 860 l 631 860 l 631 0 l 493 0 m 515 1022 l 274 906 l 211 999 l 431 1153 l 515 1022 z "},"ń":{"ha":694,"x_min":88,"x_max":613,"o":"m 88 632 q 201 656 133 644 q 347 667 268 667 q 476 645 425 667 q 558 584 528 624 q 600 490 588 544 q 613 368 613 435 l 613 0 l 442 0 l 442 346 q 421 478 442 438 q 336 518 400 518 q 298 517 317 518 q 258 513 279 515 l 258 0 l 88 0 l 88 632 m 504 829 l 263 713 l 200 806 l 419 960 l 504 829 z "},"Ņ":{"ha":694,"x_min":64,"x_max":631,"o":"m 493 0 q 366 285 435 143 q 218 571 297 428 l 218 0 l 64 0 l 64 860 l 201 860 q 279 727 240 799 q 355 585 318 656 q 423 447 392 514 q 476 331 454 381 l 476 860 l 631 860 l 631 0 l 493 0 m 307 -62 l 439 -62 q 443 -106 443 -86 q 401 -204 443 -172 q 281 -236 358 -236 q 237 -233 261 -236 q 204 -226 213 -229 l 204 -144 q 247 -143 228 -144 q 279 -134 265 -142 q 300 -112 293 -126 q 307 -72 307 -97 l 307 -62 z "},"ņ":{"ha":694,"x_min":88,"x_max":613,"o":"m 88 632 q 201 656 133 644 q 347 667 268 667 q 476 645 425 667 q 558 584 528 624 q 600 490 588 544 q 613 368 613 435 l 613 0 l 442 0 l 442 346 q 421 478 442 438 q 336 518 400 518 q 298 517 317 518 q 258 513 279 515 l 258 0 l 88 0 l 88 632 m 294 -62 l 426 -62 q 431 -106 431 -86 q 388 -204 431 -172 q 268 -236 346 -236 q 224 -233 249 -236 q 192 -226 200 -229 l 192 -144 q 234 -143 215 -144 q 267 -134 253 -142 q 288 -112 281 -126 q 294 -72 294 -97 l 294 -62 z "},"Ň":{"ha":694,"x_min":64,"x_max":631,"o":"m 493 0 q 366 285 435 143 q 218 571 297 428 l 218 0 l 64 0 l 64 860 l 201 860 q 279 727 240 799 q 355 585 318 656 q 423 447 392 514 q 476 331 454 381 l 476 860 l 631 860 l 631 0 l 493 0 m 156 1071 l 224 1153 l 347 1057 l 471 1153 l 542 1071 l 347 901 l 156 1071 z "},"ň":{"ha":694,"x_min":88,"x_max":613,"o":"m 88 632 q 201 656 133 644 q 347 667 268 667 q 476 645 425 667 q 558 584 528 624 q 600 490 588 544 q 613 368 613 435 l 613 0 l 442 0 l 442 346 q 421 478 442 438 q 336 518 400 518 q 298 517 317 518 q 258 513 279 515 l 258 0 l 88 0 l 88 632 m 156 878 l 224 960 l 347 864 l 471 960 l 542 878 l 347 708 l 156 878 z "},"ŉ":{"ha":694,"x_min":-36,"x_max":638,"o":"m 113 632 q 226 656 158 644 q 372 667 293 667 q 501 645 450 667 q 583 584 553 624 q 625 490 613 544 q 638 368 638 435 l 638 0 l 467 0 l 467 346 q 446 478 467 438 q 361 518 425 518 q 323 517 342 518 q 283 513 304 515 l 283 0 l 113 0 l 113 632 m 168 963 q 168 936 168 947 q 167 910 168 925 q 158 839 164 871 q 141 778 151 807 q 117 724 131 750 q 85 669 103 697 l -36 703 q 1 807 -10 760 q 11 907 11 854 q 10 937 11 922 q 7 963 10 951 l 168 963 z "},"Ŋ":{"ha":694,"x_min":64,"x_max":631,"o":"m 476 42 q 356 306 421 174 q 218 571 292 438 l 218 0 l 64 0 l 64 860 l 201 860 q 279 727 240 799 q 355 585 318 656 q 423 447 392 514 q 476 331 454 381 l 476 860 l 631 860 l 631 11 q 581 -171 631 -110 q 424 -232 532 -232 q 383 -229 408 -232 q 333 -215 358 -226 l 358 -75 q 410 -86 385 -86 q 463 -62 449 -86 q 476 6 476 -39 l 476 42 z "},"ŋ":{"ha":694,"x_min":88,"x_max":613,"o":"m 442 346 q 421 478 442 438 q 336 518 400 518 q 298 517 317 518 q 258 513 279 515 l 258 0 l 88 0 l 88 632 q 201 656 133 644 q 347 667 268 667 q 476 645 425 667 q 558 584 528 624 q 600 490 588 544 q 613 368 613 435 l 613 4 q 562 -172 613 -115 q 394 -229 511 -229 q 351 -227 379 -229 q 296 -214 322 -225 l 318 -82 q 374 -90 344 -90 q 442 -3 442 -90 l 442 346 z "},"Ō":{"ha":694,"x_min":38,"x_max":657,"o":"m 211 431 q 216 313 211 368 q 235 218 221 258 q 276 154 250 178 q 347 131 303 131 q 417 154 390 131 q 459 219 444 178 q 478 314 474 260 q 483 431 483 368 q 478 548 483 493 q 459 643 474 603 q 418 707 444 683 q 347 731 392 731 q 276 707 303 731 q 235 642 250 683 q 216 547 221 601 q 211 431 211 493 m 38 431 q 119 766 38 653 q 347 879 201 879 q 578 766 499 879 q 657 431 657 653 q 576 95 657 208 q 349 -18 496 -18 q 117 95 197 -18 q 38 431 38 208 m 150 1092 l 550 1092 l 550 971 l 150 971 l 150 1092 z "},"ō":{"ha":694,"x_min":40,"x_max":656,"o":"m 656 328 q 633 187 656 250 q 571 78 611 124 q 474 7 531 32 q 349 -18 418 -18 q 223 7 279 -18 q 126 78 167 32 q 63 187 85 124 q 40 328 40 250 q 63 467 40 404 q 127 576 86 531 q 225 645 168 621 q 349 669 282 669 q 473 645 417 669 q 570 576 529 621 q 633 467 611 531 q 656 328 656 404 m 214 326 q 245 185 214 239 q 346 131 276 131 q 447 185 413 131 q 481 326 481 239 q 449 467 481 414 q 349 521 418 521 q 248 467 282 521 q 214 326 214 414 m 149 899 l 549 899 l 549 778 l 149 778 l 149 899 z "},"Ŏ":{"ha":694,"x_min":38,"x_max":657,"o":"m 211 431 q 216 313 211 368 q 235 218 221 258 q 276 154 250 178 q 347 131 303 131 q 417 154 390 131 q 459 219 444 178 q 478 314 474 260 q 483 431 483 368 q 478 548 483 493 q 459 643 474 603 q 418 707 444 683 q 347 731 392 731 q 276 707 303 731 q 235 642 250 683 q 216 547 221 601 q 211 431 211 493 m 38 431 q 119 766 38 653 q 347 879 201 879 q 578 766 499 879 q 657 431 657 653 q 576 95 657 208 q 349 -18 496 -18 q 117 95 197 -18 q 38 431 38 208 m 347 935 q 267 948 304 935 q 203 987 231 961 q 161 1049 176 1013 q 146 1131 146 1085 l 146 1140 l 272 1140 q 296 1070 275 1088 q 347 1053 317 1053 q 399 1070 378 1053 q 424 1140 419 1088 l 549 1140 l 549 1131 q 533 1049 549 1085 q 491 987 518 1013 q 427 948 464 961 q 347 935 390 935 z "},"ŏ":{"ha":694,"x_min":40,"x_max":656,"o":"m 656 328 q 633 187 656 250 q 571 78 611 124 q 474 7 531 32 q 349 -18 418 -18 q 223 7 279 -18 q 126 78 167 32 q 63 187 85 124 q 40 328 40 250 q 63 467 40 404 q 127 576 86 531 q 225 645 168 621 q 349 669 282 669 q 473 645 417 669 q 570 576 529 621 q 633 467 611 531 q 656 328 656 404 m 214 326 q 245 185 214 239 q 346 131 276 131 q 447 185 413 131 q 481 326 481 239 q 449 467 481 414 q 349 521 418 521 q 248 467 282 521 q 214 326 214 414 m 347 742 q 267 755 304 742 q 203 794 231 768 q 161 856 176 819 q 146 938 146 892 l 146 947 l 272 947 q 296 877 275 894 q 347 860 317 860 q 399 877 378 860 q 424 947 419 894 l 549 947 l 549 938 q 533 856 549 892 q 491 794 518 819 q 427 755 464 768 q 347 742 390 742 z "},"Ő":{"ha":694,"x_min":38,"x_max":658,"o":"m 211 431 q 216 313 211 368 q 235 218 221 258 q 276 154 250 178 q 347 131 303 131 q 417 154 390 131 q 459 219 444 178 q 478 314 474 260 q 483 431 483 368 q 478 548 483 493 q 459 643 474 603 q 418 707 444 683 q 347 731 392 731 q 276 707 303 731 q 235 642 250 683 q 216 547 221 601 q 211 431 211 493 m 38 431 q 119 766 38 653 q 347 879 201 879 q 578 766 499 879 q 657 431 657 653 q 576 95 657 208 q 349 -18 496 -18 q 117 95 197 -18 q 38 431 38 208 m 408 1056 l 208 900 l 143 968 l 311 1153 l 408 1056 m 658 1056 l 458 900 l 393 968 l 563 1151 l 658 1056 z "},"ő":{"ha":694,"x_min":40,"x_max":658,"o":"m 656 328 q 633 187 656 250 q 571 78 611 124 q 474 7 531 32 q 349 -18 418 -18 q 223 7 279 -18 q 126 78 167 32 q 63 187 85 124 q 40 328 40 250 q 63 467 40 404 q 127 576 86 531 q 225 645 168 621 q 349 669 282 669 q 473 645 417 669 q 570 576 529 621 q 633 467 611 531 q 656 328 656 404 m 214 326 q 245 185 214 239 q 346 131 276 131 q 447 185 413 131 q 481 326 481 239 q 449 467 481 414 q 349 521 418 521 q 248 467 282 521 q 214 326 214 414 m 408 864 l 208 708 l 143 776 l 311 961 l 408 864 m 658 864 l 458 708 l 393 776 l 563 960 l 658 864 z "},"Ŕ":{"ha":694,"x_min":75,"x_max":679,"o":"m 297 869 q 431 853 371 869 q 533 801 490 836 q 599 713 576 767 q 622 588 622 660 q 592 451 622 513 q 490 358 561 390 q 540 278 514 322 q 592 187 567 235 q 640 91 617 139 q 679 0 663 43 l 500 0 q 426 160 468 83 q 335 317 383 238 l 246 317 l 246 0 l 75 0 l 75 847 q 130 858 100 853 q 190 865 160 863 q 249 868 221 867 q 297 869 276 869 m 449 589 q 407 689 449 657 q 297 721 365 721 q 274 720 288 721 q 246 717 260 719 l 246 458 l 283 458 q 410 492 371 458 q 449 589 449 526 m 499 1022 l 257 906 l 194 999 l 414 1153 l 499 1022 z "},"ŕ":{"ha":694,"x_min":124,"x_max":638,"o":"m 607 479 q 567 488 590 483 q 521 495 544 492 q 475 500 497 499 q 438 501 453 501 q 367 498 401 501 q 296 485 332 494 l 296 0 l 124 0 l 124 610 q 263 650 192 635 q 431 665 335 665 q 470 664 444 665 q 525 659 496 663 q 584 651 554 656 q 638 638 614 646 l 607 479 m 553 829 l 311 713 l 249 806 l 468 960 l 553 829 z "},"Ŗ":{"ha":694,"x_min":75,"x_max":679,"o":"m 297 869 q 431 853 371 869 q 533 801 490 836 q 599 713 576 767 q 622 588 622 660 q 592 451 622 513 q 490 358 561 390 q 540 278 514 322 q 592 187 567 235 q 640 91 617 139 q 679 0 663 43 l 500 0 q 426 160 468 83 q 335 317 383 238 l 246 317 l 246 0 l 75 0 l 75 847 q 130 858 100 853 q 190 865 160 863 q 249 868 221 867 q 297 869 276 869 m 449 589 q 407 689 449 657 q 297 721 365 721 q 274 720 288 721 q 246 717 260 719 l 246 458 l 283 458 q 410 492 371 458 q 449 589 449 526 m 307 -62 l 439 -62 q 443 -106 443 -86 q 401 -204 443 -172 q 281 -236 358 -236 q 237 -233 261 -236 q 204 -226 213 -229 l 204 -144 q 247 -143 228 -144 q 279 -134 265 -142 q 300 -112 293 -126 q 307 -72 307 -97 l 307 -62 z "},"ŗ":{"ha":694,"x_min":49,"x_max":638,"o":"m 607 479 q 567 488 590 483 q 521 495 544 492 q 475 500 497 499 q 438 501 453 501 q 367 498 401 501 q 296 485 332 494 l 296 0 l 124 0 l 124 610 q 263 650 192 635 q 431 665 335 665 q 470 664 444 665 q 525 659 496 663 q 584 651 554 656 q 638 638 614 646 l 607 479 m 151 -62 l 283 -62 q 288 -106 288 -86 q 245 -204 288 -172 q 125 -236 203 -236 q 81 -233 106 -236 q 49 -226 57 -229 l 49 -144 q 91 -143 72 -144 q 124 -134 110 -142 q 144 -112 138 -126 q 151 -72 151 -97 l 151 -62 z "},"Ř":{"ha":694,"x_min":75,"x_max":679,"o":"m 297 869 q 431 853 371 869 q 533 801 490 836 q 599 713 576 767 q 622 588 622 660 q 592 451 622 513 q 490 358 561 390 q 540 278 514 322 q 592 187 567 235 q 640 91 617 139 q 679 0 663 43 l 500 0 q 426 160 468 83 q 335 317 383 238 l 246 317 l 246 0 l 75 0 l 75 847 q 130 858 100 853 q 190 865 160 863 q 249 868 221 867 q 297 869 276 869 m 449 589 q 407 689 449 657 q 297 721 365 721 q 274 720 288 721 q 246 717 260 719 l 246 458 l 283 458 q 410 492 371 458 q 449 589 449 526 m 132 1071 l 200 1153 l 324 1057 l 447 1153 l 518 1071 l 324 901 l 132 1071 z "},"ř":{"ha":694,"x_min":124,"x_max":638,"o":"m 607 479 q 567 488 590 483 q 521 495 544 492 q 475 500 497 499 q 438 501 453 501 q 367 498 401 501 q 296 485 332 494 l 296 0 l 124 0 l 124 610 q 263 650 192 635 q 431 665 335 665 q 470 664 444 665 q 525 659 496 663 q 584 651 554 656 q 638 638 614 646 l 607 479 m 206 878 l 274 960 l 397 864 l 521 960 l 592 878 l 397 708 l 206 878 z "},"Ś":{"ha":694,"x_min":56,"x_max":639,"o":"m 322 125 q 394 134 365 125 q 439 159 422 143 q 462 195 456 175 q 468 236 468 215 q 453 283 468 263 q 414 320 438 304 q 361 349 390 336 q 303 374 332 363 q 222 406 264 388 q 147 451 181 424 q 90 520 113 479 q 68 622 68 561 q 147 811 68 743 q 363 879 225 879 q 501 861 442 879 q 600 821 560 843 l 550 689 q 473 722 515 708 q 375 736 431 736 q 239 638 239 736 q 253 594 239 613 q 288 560 267 575 q 337 535 310 546 q 390 514 364 524 q 474 480 431 499 q 555 430 518 461 q 615 352 592 399 q 639 235 639 306 q 560 48 639 114 q 322 -18 482 -18 q 151 5 215 -18 q 56 47 88 28 l 106 186 q 195 144 143 164 q 322 125 247 125 m 511 1022 l 269 906 l 207 999 l 426 1153 l 511 1022 z "},"ś":{"ha":694,"x_min":75,"x_max":614,"o":"m 317 129 q 413 138 379 129 q 446 175 446 147 q 435 206 446 193 q 406 227 425 218 q 363 244 388 236 q 313 261 339 253 q 236 287 275 272 q 165 324 197 301 q 113 380 133 346 q 92 465 92 414 q 108 544 92 507 q 158 609 124 581 q 244 653 192 638 q 371 669 297 669 q 490 660 435 669 q 585 632 544 650 l 558 488 q 485 510 535 494 q 372 526 435 526 q 284 510 307 526 q 261 476 261 494 q 272 449 261 461 q 299 428 282 438 q 340 409 317 418 q 389 392 363 400 q 467 364 426 379 q 540 326 507 349 q 593 267 572 303 q 614 181 614 232 q 599 104 614 140 q 548 42 583 68 q 456 0 513 15 q 315 -15 399 -15 q 171 4 231 -15 q 75 39 111 24 l 101 182 q 205 146 150 163 q 317 129 260 129 m 511 829 l 269 713 l 207 806 l 426 960 l 511 829 z "},"Ŝ":{"ha":694,"x_min":56,"x_max":639,"o":"m 322 125 q 394 134 365 125 q 439 159 422 143 q 462 195 456 175 q 468 236 468 215 q 453 283 468 263 q 414 320 438 304 q 361 349 390 336 q 303 374 332 363 q 222 406 264 388 q 147 451 181 424 q 90 520 113 479 q 68 622 68 561 q 147 811 68 743 q 363 879 225 879 q 501 861 442 879 q 600 821 560 843 l 550 689 q 473 722 515 708 q 375 736 431 736 q 239 638 239 736 q 253 594 239 613 q 288 560 267 575 q 337 535 310 546 q 390 514 364 524 q 474 480 431 499 q 555 430 518 461 q 615 352 592 399 q 639 235 639 306 q 560 48 639 114 q 322 -18 482 -18 q 151 5 215 -18 q 56 47 88 28 l 106 186 q 195 144 143 164 q 322 125 247 125 m 542 983 l 474 901 l 350 997 l 226 901 l 156 983 l 350 1153 l 542 983 z "},"ŝ":{"ha":694,"x_min":75,"x_max":614,"o":"m 317 129 q 413 138 379 129 q 446 175 446 147 q 435 206 446 193 q 406 227 425 218 q 363 244 388 236 q 313 261 339 253 q 236 287 275 272 q 165 324 197 301 q 113 380 133 346 q 92 465 92 414 q 108 544 92 507 q 158 609 124 581 q 244 653 192 638 q 371 669 297 669 q 490 660 435 669 q 585 632 544 650 l 558 488 q 485 510 535 494 q 372 526 435 526 q 284 510 307 526 q 261 476 261 494 q 272 449 261 461 q 299 428 282 438 q 340 409 317 418 q 389 392 363 400 q 467 364 426 379 q 540 326 507 349 q 593 267 572 303 q 614 181 614 232 q 599 104 614 140 q 548 42 583 68 q 456 0 513 15 q 315 -15 399 -15 q 171 4 231 -15 q 75 39 111 24 l 101 182 q 205 146 150 163 q 317 129 260 129 m 542 790 l 474 708 l 350 804 l 226 708 l 156 790 l 350 960 l 542 790 z "},"Ş":{"ha":694,"x_min":56,"x_max":639,"o":"m 361 -33 q 425 -74 407 -47 q 443 -126 443 -101 q 428 -179 443 -158 q 391 -212 414 -200 q 338 -231 368 -225 q 276 -236 307 -236 q 165 -221 214 -236 l 183 -133 q 215 -141 192 -136 q 261 -146 239 -146 q 318 -111 318 -146 q 268 -68 318 -85 l 240 -60 q 248 -37 243 -49 q 257 -15 253 -26 q 131 11 179 -8 q 56 47 83 31 l 106 186 q 195 144 143 164 q 322 125 247 125 q 394 134 365 125 q 439 159 422 143 q 462 195 456 175 q 468 236 468 215 q 453 283 468 263 q 414 320 438 304 q 361 349 390 336 q 303 374 332 363 q 222 406 264 388 q 147 451 181 424 q 90 520 113 479 q 68 622 68 561 q 147 811 68 743 q 363 879 225 879 q 501 861 442 879 q 600 821 560 843 l 550 689 q 473 722 515 708 q 375 736 431 736 q 239 638 239 736 q 253 594 239 613 q 288 560 267 575 q 337 535 310 546 q 390 514 364 524 q 474 480 431 499 q 555 430 518 461 q 615 352 592 399 q 639 235 639 306 q 572 58 639 122 q 368 -17 504 -7 q 361 -33 363 -28 z "},"ş":{"ha":694,"x_min":75,"x_max":614,"o":"m 375 -33 q 439 -74 421 -47 q 457 -126 457 -101 q 442 -179 457 -158 q 405 -212 428 -200 q 351 -231 382 -225 q 290 -236 321 -236 q 179 -221 228 -236 l 197 -133 q 229 -141 206 -136 q 275 -146 253 -146 q 332 -111 332 -146 q 282 -68 332 -85 l 254 -60 q 262 -37 257 -49 q 272 -14 267 -25 q 155 8 204 -8 q 75 39 106 25 l 101 182 q 205 146 150 163 q 317 129 260 129 q 413 138 379 129 q 446 175 446 147 q 435 206 446 193 q 406 227 425 218 q 363 244 388 236 q 313 261 339 253 q 236 287 275 272 q 165 324 197 301 q 113 380 133 346 q 92 465 92 414 q 108 544 92 507 q 158 609 124 581 q 244 653 192 638 q 371 669 297 669 q 490 660 435 669 q 585 632 544 650 l 558 488 q 485 510 535 494 q 372 526 435 526 q 284 510 307 526 q 261 476 261 494 q 272 449 261 461 q 299 428 282 438 q 340 409 317 418 q 389 392 363 400 q 467 364 426 379 q 540 326 507 349 q 593 267 572 303 q 614 181 614 232 q 601 112 614 144 q 562 54 589 79 q 491 12 535 29 q 383 -11 447 -6 l 375 -33 z "},"Ţ":{"ha":694,"x_min":35,"x_max":660,"o":"m 379 -33 q 443 -74 425 -47 q 461 -126 461 -101 q 447 -179 461 -158 q 409 -212 432 -200 q 356 -231 386 -225 q 294 -236 325 -236 q 183 -221 232 -236 l 201 -133 q 233 -141 210 -136 q 279 -146 257 -146 q 336 -111 336 -146 q 286 -68 336 -85 l 258 -60 q 269 -28 263 -44 q 282 0 275 -12 l 261 0 l 261 718 l 35 718 l 35 860 l 660 860 l 660 718 l 433 718 l 433 0 l 393 0 q 379 -33 386 -11 z "},"ţ":{"ha":694,"x_min":50,"x_max":656,"o":"m 476 -33 q 540 -74 522 -47 q 558 -126 558 -101 q 544 -179 558 -158 q 506 -212 529 -200 q 453 -231 483 -225 q 392 -236 422 -236 q 281 -221 329 -236 l 299 -133 q 331 -141 307 -136 q 376 -146 354 -146 q 433 -111 433 -146 q 383 -68 433 -85 l 356 -60 q 363 -35 358 -47 q 374 -11 368 -22 q 299 8 332 -7 q 244 51 267 22 q 210 127 222 81 q 199 243 199 174 l 199 511 l 50 511 l 50 653 l 199 653 l 199 817 l 369 844 l 369 653 l 643 653 l 643 511 l 369 511 l 369 247 q 376 189 369 211 q 396 154 383 167 q 426 138 408 142 q 467 133 444 133 q 510 135 490 133 q 549 140 531 136 q 588 150 568 143 q 632 168 608 157 l 656 21 q 572 -3 617 6 q 483 -14 528 -11 l 476 -33 z "},"Ť":{"ha":694,"x_min":35,"x_max":660,"o":"m 660 860 l 660 718 l 433 718 l 433 0 l 261 0 l 261 718 l 35 718 l 35 860 l 660 860 m 156 1071 l 224 1153 l 347 1057 l 471 1153 l 542 1071 l 347 901 l 156 1071 z "},"ť":{"ha":694,"x_min":50,"x_max":656,"o":"m 199 511 l 50 511 l 50 653 l 199 653 l 199 817 l 369 844 l 369 653 l 643 653 l 643 511 l 369 511 l 369 247 q 376 189 369 211 q 396 154 383 167 q 426 138 408 142 q 467 133 444 133 q 510 135 490 133 q 549 140 531 136 q 588 150 568 143 q 632 168 608 157 l 656 21 q 553 -7 608 1 q 447 -15 499 -15 q 342 -6 388 -15 q 264 32 296 4 q 215 110 232 60 q 199 243 199 161 l 199 511 m 601 963 l 560 725 l 453 725 l 453 963 l 601 963 z "},"Ŧ":{"ha":694,"x_min":35,"x_max":660,"o":"m 660 860 l 660 718 l 433 718 l 433 468 l 608 468 l 608 331 l 433 331 l 433 0 l 261 0 l 261 331 l 88 331 l 88 468 l 261 468 l 261 718 l 35 718 l 35 860 l 660 860 z "},"ŧ":{"ha":694,"x_min":50,"x_max":656,"o":"m 199 283 l 50 283 l 50 400 l 199 400 l 199 511 l 50 511 l 50 653 l 199 653 l 199 817 l 369 844 l 369 653 l 643 653 l 643 511 l 369 511 l 369 400 l 642 400 l 642 283 l 369 283 l 369 247 q 376 189 369 211 q 396 154 383 167 q 426 138 408 142 q 467 133 444 133 q 510 135 490 133 q 549 140 531 136 q 588 150 568 143 q 632 168 608 157 l 656 21 q 553 -7 608 1 q 447 -15 499 -15 q 342 -6 388 -15 q 264 32 296 4 q 215 110 232 60 q 199 243 199 161 l 199 283 z "},"Ũ":{"ha":694,"x_min":54,"x_max":640,"o":"m 344 -18 q 205 5 261 -18 q 115 71 149 28 q 68 175 82 114 q 54 311 54 236 l 54 860 l 226 860 l 226 322 q 232 231 226 268 q 251 172 238 194 q 288 140 264 150 q 347 131 311 131 q 407 140 383 131 q 444 173 431 150 q 464 233 458 196 q 469 324 469 269 l 469 860 l 640 860 l 640 311 q 626 175 640 236 q 578 71 613 114 q 486 5 543 28 q 344 -18 429 -18 m 575 1072 q 555 1031 568 1053 q 523 990 542 1010 q 481 958 504 971 q 429 946 457 946 q 388 953 407 946 q 351 967 369 960 q 313 982 332 975 q 274 989 294 989 q 234 973 250 989 q 207 936 218 957 l 125 990 q 145 1032 132 1010 q 177 1074 158 1054 q 219 1106 196 1093 q 272 1118 243 1118 q 313 1111 294 1118 q 351 1097 332 1104 q 388 1082 369 1089 q 426 1075 406 1075 q 467 1090 450 1075 q 493 1126 483 1106 l 575 1072 z "},"ũ":{"ha":694,"x_min":82,"x_max":608,"o":"m 608 22 q 494 -3 561 10 q 347 -15 426 -15 q 215 7 267 -15 q 134 70 164 29 q 93 167 104 111 q 82 289 82 222 l 82 653 l 253 653 l 253 311 q 274 177 253 221 q 358 133 296 133 q 436 140 397 133 l 436 653 l 608 653 l 608 22 m 575 879 q 555 838 568 860 q 523 797 542 817 q 481 765 504 778 q 429 753 457 753 q 388 760 407 753 q 351 774 369 767 q 313 789 332 782 q 274 796 294 796 q 234 780 250 796 q 207 743 218 764 l 125 797 q 145 839 132 817 q 177 881 158 861 q 219 913 196 900 q 272 925 243 925 q 313 918 294 925 q 351 903 332 911 q 388 889 369 896 q 426 882 406 882 q 467 897 450 882 q 493 933 483 913 l 575 879 z "},"Ū":{"ha":694,"x_min":54,"x_max":640,"o":"m 344 -18 q 205 5 261 -18 q 115 71 149 28 q 68 175 82 114 q 54 311 54 236 l 54 860 l 226 860 l 226 322 q 232 231 226 268 q 251 172 238 194 q 288 140 264 150 q 347 131 311 131 q 407 140 383 131 q 444 173 431 150 q 464 233 458 196 q 469 324 469 269 l 469 860 l 640 860 l 640 311 q 626 175 640 236 q 578 71 613 114 q 486 5 543 28 q 344 -18 429 -18 m 150 1092 l 550 1092 l 550 971 l 150 971 l 150 1092 z "},"ū":{"ha":694,"x_min":82,"x_max":608,"o":"m 608 22 q 494 -3 561 10 q 347 -15 426 -15 q 215 7 267 -15 q 134 70 164 29 q 93 167 104 111 q 82 289 82 222 l 82 653 l 253 653 l 253 311 q 274 177 253 221 q 358 133 296 133 q 436 140 397 133 l 436 653 l 608 653 l 608 22 m 150 899 l 550 899 l 550 778 l 150 778 l 150 899 z "},"Ŭ":{"ha":694,"x_min":54,"x_max":640,"o":"m 344 -18 q 205 5 261 -18 q 115 71 149 28 q 68 175 82 114 q 54 311 54 236 l 54 860 l 226 860 l 226 322 q 232 231 226 268 q 251 172 238 194 q 288 140 264 150 q 347 131 311 131 q 407 140 383 131 q 444 173 431 150 q 464 233 458 196 q 469 324 469 269 l 469 860 l 640 860 l 640 311 q 626 175 640 236 q 578 71 613 114 q 486 5 543 28 q 344 -18 429 -18 m 347 935 q 267 948 304 935 q 203 987 231 961 q 161 1049 176 1013 q 146 1131 146 1085 l 146 1140 l 272 1140 q 296 1070 275 1088 q 347 1053 317 1053 q 399 1070 378 1053 q 424 1140 419 1088 l 549 1140 l 549 1131 q 533 1049 549 1085 q 491 987 518 1013 q 427 948 464 961 q 347 935 390 935 z "},"ŭ":{"ha":694,"x_min":82,"x_max":608,"o":"m 608 22 q 494 -3 561 10 q 347 -15 426 -15 q 215 7 267 -15 q 134 70 164 29 q 93 167 104 111 q 82 289 82 222 l 82 653 l 253 653 l 253 311 q 274 177 253 221 q 358 133 296 133 q 436 140 397 133 l 436 653 l 608 653 l 608 22 m 347 742 q 267 755 304 742 q 203 794 231 768 q 161 856 176 819 q 146 938 146 892 l 146 947 l 272 947 q 296 877 275 894 q 347 860 317 860 q 399 877 378 860 q 424 947 419 894 l 549 947 l 549 938 q 533 856 549 892 q 491 794 518 819 q 427 755 464 768 q 347 742 390 742 z "},"Ů":{"ha":694,"x_min":54,"x_max":640,"o":"m 344 -18 q 205 5 261 -18 q 115 71 149 28 q 68 175 82 114 q 54 311 54 236 l 54 832 l 226 832 l 226 322 q 232 231 226 268 q 251 172 238 194 q 288 140 264 150 q 347 131 311 131 q 407 140 383 131 q 444 173 431 150 q 464 233 458 196 q 469 324 469 269 l 469 832 l 640 832 l 640 311 q 626 175 640 236 q 578 71 613 114 q 486 5 543 28 q 344 -18 429 -18 m 493 1004 q 449 899 493 935 q 346 863 406 863 q 292 872 318 863 q 245 899 265 881 q 213 943 225 917 q 201 1004 201 969 q 213 1066 201 1039 q 245 1111 225 1093 q 292 1138 265 1129 q 346 1147 318 1147 q 449 1111 406 1147 q 493 1004 493 1075 m 403 1004 q 386 1048 403 1033 q 346 1063 369 1063 q 308 1048 325 1063 q 290 1004 290 1033 q 308 961 290 976 q 346 946 325 946 q 386 961 369 946 q 403 1004 403 976 z "},"ů":{"ha":694,"x_min":82,"x_max":608,"o":"m 608 22 q 494 -3 561 10 q 347 -15 426 -15 q 215 7 267 -15 q 134 70 164 29 q 93 167 104 111 q 82 289 82 222 l 82 653 l 253 653 l 253 311 q 274 177 253 221 q 358 133 296 133 q 436 140 397 133 l 436 653 l 608 653 l 608 22 m 493 839 q 449 733 493 769 q 346 697 406 697 q 292 706 318 697 q 245 733 265 715 q 213 778 225 751 q 201 839 201 804 q 213 901 201 874 q 245 946 225 928 q 292 973 265 964 q 346 982 318 982 q 449 946 406 982 q 493 839 493 910 m 403 839 q 386 883 403 868 q 346 897 369 897 q 308 883 325 897 q 290 839 290 868 q 308 796 290 811 q 346 781 325 781 q 386 796 369 781 q 403 839 403 811 z "},"Ű":{"ha":694,"x_min":54,"x_max":658,"o":"m 344 -18 q 205 5 261 -18 q 115 71 149 28 q 68 175 82 114 q 54 311 54 236 l 54 860 l 226 860 l 226 322 q 232 231 226 268 q 251 172 238 194 q 288 140 264 150 q 347 131 311 131 q 407 140 383 131 q 444 173 431 150 q 464 233 458 196 q 469 324 469 269 l 469 860 l 640 860 l 640 311 q 626 175 640 236 q 578 71 613 114 q 486 5 543 28 q 344 -18 429 -18 m 408 1056 l 208 900 l 143 968 l 311 1153 l 408 1056 m 658 1056 l 458 900 l 393 968 l 563 1151 l 658 1056 z "},"ű":{"ha":694,"x_min":82,"x_max":646,"o":"m 608 22 q 494 -3 561 10 q 347 -15 426 -15 q 215 7 267 -15 q 134 70 164 29 q 93 167 104 111 q 82 289 82 222 l 82 653 l 253 653 l 253 311 q 274 177 253 221 q 358 133 296 133 q 436 140 397 133 l 436 653 l 608 653 l 608 22 m 396 864 l 196 708 l 131 776 l 299 961 l 396 864 m 646 864 l 446 708 l 381 776 l 550 960 l 646 864 z "},"Ų":{"ha":694,"x_min":54,"x_max":640,"o":"m 543 33 q 513 8 533 26 q 472 -31 493 -10 q 435 -74 451 -53 q 419 -112 419 -96 q 427 -136 419 -126 q 457 -146 435 -146 q 483 -144 468 -146 q 519 -136 499 -143 l 529 -217 q 474 -230 510 -224 q 400 -236 439 -236 q 304 -210 333 -236 q 275 -147 275 -185 q 292 -81 275 -115 q 340 -18 310 -47 q 202 6 257 -18 q 115 72 147 29 q 68 176 82 115 q 54 311 54 236 l 54 860 l 226 860 l 226 322 q 232 231 226 268 q 251 172 238 194 q 288 140 264 150 q 347 131 311 131 q 407 140 383 131 q 444 173 431 150 q 464 233 458 196 q 469 324 469 269 l 469 860 l 640 860 l 640 311 q 619 148 640 217 q 543 33 599 79 z "},"ų":{"ha":694,"x_min":82,"x_max":608,"o":"m 603 -217 q 548 -230 583 -224 q 474 -236 513 -236 q 378 -210 407 -236 q 349 -147 349 -185 q 368 -77 349 -114 q 422 -10 388 -40 q 384 -14 403 -12 q 347 -15 365 -15 q 215 7 267 -15 q 134 70 164 29 q 93 167 104 111 q 82 289 82 222 l 82 653 l 253 653 l 253 311 q 274 177 253 221 q 358 133 296 133 q 436 140 397 133 l 436 653 l 608 653 l 608 22 q 580 -1 599 15 q 542 -36 561 -17 q 508 -76 522 -56 q 493 -112 493 -96 q 501 -136 493 -126 q 531 -146 508 -146 q 557 -144 542 -146 q 593 -136 572 -143 l 603 -217 z "},"Ŵ":{"ha":694,"x_min":32,"x_max":663,"o":"m 411 556 q 428 490 417 529 q 452 404 439 451 q 481 303 465 357 q 513 192 497 249 q 511 347 513 264 q 508 515 510 429 q 506 690 507 601 q 504 860 504 778 l 663 860 q 654 642 658 754 q 644 420 650 531 q 631 203 639 310 q 614 0 624 96 l 472 0 q 411 188 442 88 q 350 381 381 289 q 286 190 319 293 q 225 0 253 88 l 83 0 q 64 203 72 96 q 49 422 56 311 q 39 644 43 532 q 32 860 35 756 l 190 860 q 188 690 189 778 q 185 516 186 603 q 182 347 183 429 q 181 192 181 264 q 209 289 193 236 q 240 393 225 342 q 267 488 254 444 q 286 556 279 531 l 411 556 m 542 983 l 474 901 l 350 997 l 226 901 l 156 983 l 350 1153 l 542 983 z "},"ŵ":{"ha":694,"x_min":15,"x_max":679,"o":"m 447 0 q 419 79 432 43 q 394 149 406 115 q 370 220 382 183 q 346 301 358 257 q 321 222 332 257 q 298 151 310 186 q 274 81 286 117 q 243 0 261 44 l 114 0 q 83 135 97 61 q 56 294 68 210 q 33 468 43 378 q 15 653 24 558 l 161 653 q 173 417 167 532 q 196 179 179 301 q 227 277 214 232 q 251 363 240 322 q 270 442 261 404 q 289 521 279 481 l 413 521 q 430 442 421 481 q 449 363 439 404 q 472 277 460 322 q 500 179 483 232 q 514 301 508 243 q 523 417 519 360 q 528 533 526 475 q 533 653 531 590 l 679 653 q 637 294 664 463 q 576 0 610 126 l 447 0 m 542 790 l 474 708 l 350 804 l 226 708 l 156 790 l 350 960 l 542 790 z "},"Ŷ":{"ha":694,"x_min":18,"x_max":678,"o":"m 353 467 q 388 547 368 499 q 428 650 408 596 q 467 760 449 704 q 501 860 486 815 l 678 860 q 625 722 651 789 q 569 590 599 656 q 507 460 540 525 q 435 328 474 396 l 435 0 l 263 0 l 263 326 q 128 590 186 461 q 18 860 71 718 l 201 860 q 272 656 233 760 q 353 467 311 553 m 542 983 l 474 901 l 350 997 l 226 901 l 156 983 l 350 1153 l 542 983 z "},"ŷ":{"ha":694,"x_min":28,"x_max":656,"o":"m 656 653 q 605 473 629 561 q 554 301 581 385 q 498 136 528 217 q 433 -21 468 56 q 381 -117 407 -76 q 324 -183 356 -157 q 255 -221 293 -208 q 165 -233 217 -233 q 87 -226 122 -233 q 28 -208 51 -219 l 60 -65 q 109 -83 88 -78 q 156 -87 131 -87 q 236 -54 206 -87 q 285 25 267 -21 q 163 305 224 147 q 51 653 101 463 l 229 653 q 258 543 242 601 q 292 426 274 485 q 330 312 310 368 q 371 207 350 256 q 400 312 385 256 q 429 426 415 368 q 456 542 443 483 q 481 653 469 600 l 656 653 m 542 790 l 474 708 l 350 804 l 226 708 l 156 790 l 350 960 l 542 790 z "},"Ź":{"ha":694,"x_min":64,"x_max":631,"o":"m 618 740 q 508 568 558 649 q 415 415 458 488 q 334 274 372 342 q 261 142 296 207 l 631 142 l 631 0 l 64 0 l 64 99 q 129 224 94 158 q 207 365 164 290 q 301 528 250 440 q 413 718 351 615 l 82 718 l 82 860 l 618 860 l 618 740 m 515 1022 l 274 906 l 211 999 l 431 1153 l 515 1022 z "},"ź":{"ha":694,"x_min":93,"x_max":606,"o":"m 592 528 q 536 462 572 506 q 458 364 500 418 q 373 251 415 310 q 297 142 331 192 l 606 142 l 606 0 l 93 0 l 93 104 q 163 213 125 157 q 238 322 200 268 q 311 424 275 375 q 376 511 347 472 l 107 511 l 107 653 l 592 653 l 592 528 m 515 829 l 274 713 l 211 806 l 431 960 l 515 829 z "},"Ż":{"ha":694,"x_min":64,"x_max":631,"o":"m 618 740 q 508 568 558 649 q 415 415 458 488 q 334 274 372 342 q 261 142 296 207 l 631 142 l 631 0 l 64 0 l 64 99 q 129 224 94 158 q 207 365 164 290 q 301 528 250 440 q 413 718 351 615 l 82 718 l 82 860 l 618 860 l 618 740 m 347 938 q 278 963 307 938 q 249 1033 249 989 q 278 1104 249 1078 q 347 1131 307 1131 q 417 1104 388 1131 q 446 1033 446 1078 q 417 963 446 989 q 347 938 388 938 z "},"ż":{"ha":694,"x_min":93,"x_max":606,"o":"m 592 528 q 536 462 572 506 q 458 364 500 418 q 373 251 415 310 q 297 142 331 192 l 606 142 l 606 0 l 93 0 l 93 104 q 163 213 125 157 q 238 322 200 268 q 311 424 275 375 q 376 511 347 472 l 107 511 l 107 653 l 592 653 l 592 528 m 347 744 q 278 770 307 744 q 249 840 249 796 q 278 911 249 885 q 347 938 307 938 q 417 911 388 938 q 446 840 446 885 q 417 770 446 796 q 347 744 388 744 z "},"Ž":{"ha":694,"x_min":64,"x_max":631,"o":"m 618 740 q 508 568 558 649 q 415 415 458 488 q 334 274 372 342 q 261 142 296 207 l 631 142 l 631 0 l 64 0 l 64 99 q 129 224 94 158 q 207 365 164 290 q 301 528 250 440 q 413 718 351 615 l 82 718 l 82 860 l 618 860 l 618 740 m 156 1071 l 224 1153 l 347 1057 l 471 1153 l 542 1071 l 347 901 l 156 1071 z "},"ž":{"ha":694,"x_min":93,"x_max":606,"o":"m 592 528 q 536 462 572 506 q 458 364 500 418 q 373 251 415 310 q 297 142 331 192 l 606 142 l 606 0 l 93 0 l 93 104 q 163 213 125 157 q 238 322 200 268 q 311 424 275 375 q 376 511 347 472 l 107 511 l 107 653 l 592 653 l 592 528 m 156 878 l 224 960 l 347 864 l 471 960 l 542 878 l 347 708 l 156 878 z "},"ſ":{"ha":694,"x_min":193,"x_max":683,"o":"m 193 0 l 193 690 q 216 822 193 769 q 278 905 239 874 q 367 949 317 936 q 469 963 417 963 q 581 954 524 963 q 683 924 638 946 l 654 783 q 574 806 622 794 q 483 817 526 817 q 438 813 460 817 q 401 794 417 808 q 375 755 385 781 q 365 688 365 729 l 365 0 l 193 0 z "},"Ș":{"ha":694,"x_min":56,"x_max":639,"o":"m 322 125 q 394 134 365 125 q 439 159 422 143 q 462 195 456 175 q 468 236 468 215 q 453 283 468 263 q 414 320 438 304 q 361 349 390 336 q 303 374 332 363 q 222 406 264 388 q 147 451 181 424 q 90 520 113 479 q 68 622 68 561 q 147 811 68 743 q 363 879 225 879 q 501 861 442 879 q 600 821 560 843 l 550 689 q 473 722 515 708 q 375 736 431 736 q 239 638 239 736 q 253 594 239 613 q 288 560 267 575 q 337 535 310 546 q 390 514 364 524 q 474 480 431 499 q 555 430 518 461 q 615 352 592 399 q 639 235 639 306 q 560 48 639 114 q 322 -18 482 -18 q 151 5 215 -18 q 56 47 88 28 l 106 186 q 195 144 143 164 q 322 125 247 125 m 282 -62 l 414 -62 q 418 -106 418 -86 q 376 -204 418 -172 q 256 -236 333 -236 q 212 -233 236 -236 q 179 -226 188 -229 l 179 -144 q 222 -143 203 -144 q 254 -134 240 -142 q 275 -112 268 -126 q 282 -72 282 -97 l 282 -62 z "},"ș":{"ha":694,"x_min":75,"x_max":614,"o":"m 317 129 q 413 138 379 129 q 446 175 446 147 q 435 206 446 193 q 406 227 425 218 q 363 244 388 236 q 313 261 339 253 q 236 287 275 272 q 165 324 197 301 q 113 380 133 346 q 92 465 92 414 q 108 544 92 507 q 158 609 124 581 q 244 653 192 638 q 371 669 297 669 q 490 660 435 669 q 585 632 544 650 l 558 488 q 485 510 535 494 q 372 526 435 526 q 284 510 307 526 q 261 476 261 494 q 272 449 261 461 q 299 428 282 438 q 340 409 317 418 q 389 392 363 400 q 467 364 426 379 q 540 326 507 349 q 593 267 572 303 q 614 181 614 232 q 599 104 614 140 q 548 42 583 68 q 456 0 513 15 q 315 -15 399 -15 q 171 4 231 -15 q 75 39 111 24 l 101 182 q 205 146 150 163 q 317 129 260 129 m 282 -62 l 414 -62 q 418 -106 418 -86 q 376 -204 418 -172 q 256 -236 333 -236 q 212 -233 236 -236 q 179 -226 188 -229 l 179 -144 q 222 -143 203 -144 q 254 -134 240 -142 q 275 -112 268 -126 q 282 -72 282 -97 l 282 -62 z "},"Ț":{"ha":694,"x_min":35,"x_max":660,"o":"m 660 860 l 660 718 l 433 718 l 433 0 l 261 0 l 261 718 l 35 718 l 35 860 l 660 860 m 294 -62 l 426 -62 q 431 -106 431 -86 q 388 -204 431 -172 q 268 -236 346 -236 q 224 -233 249 -236 q 192 -226 200 -229 l 192 -144 q 234 -143 215 -144 q 267 -134 253 -142 q 288 -112 281 -126 q 294 -72 294 -97 l 294 -62 z "},"ț":{"ha":694,"x_min":50,"x_max":656,"o":"m 199 511 l 50 511 l 50 653 l 199 653 l 199 817 l 369 844 l 369 653 l 643 653 l 643 511 l 369 511 l 369 247 q 376 189 369 211 q 396 154 383 167 q 426 138 408 142 q 467 133 444 133 q 510 135 490 133 q 549 140 531 136 q 588 150 568 143 q 632 168 608 157 l 656 21 q 553 -7 608 1 q 447 -15 499 -15 q 342 -6 388 -15 q 264 32 296 4 q 215 110 232 60 q 199 243 199 161 l 199 511 m 381 -62 l 513 -62 q 517 -106 517 -86 q 474 -204 517 -172 q 354 -236 432 -236 q 310 -233 335 -236 q 278 -226 286 -229 l 278 -144 q 320 -143 301 -144 q 353 -134 339 -142 q 374 -112 367 -126 q 381 -72 381 -97 l 381 -62 z "},"ȷ":{"ha":694,"x_min":68,"x_max":556,"o":"m 556 43 q 536 -90 556 -36 q 483 -176 517 -143 q 402 -222 449 -208 q 301 -236 356 -236 q 178 -219 235 -236 q 68 -176 121 -203 l 121 -32 q 205 -69 156 -51 q 294 -86 254 -86 q 361 -60 338 -86 q 385 35 385 -35 l 385 510 l 121 510 l 121 651 l 556 651 l 556 43 z "},"ʼ":{"ha":694,"x_min":244,"x_max":449,"o":"m 449 963 q 449 936 449 947 q 447 910 449 925 q 438 839 444 871 q 422 778 432 807 q 397 724 411 750 q 365 669 383 697 l 244 703 q 281 807 271 760 q 292 907 292 854 q 291 937 292 922 q 288 963 290 951 l 449 963 z "},"ˇ":{"ha":694,"x_min":156,"x_max":542,"o":"m 156 878 l 224 960 l 347 864 l 471 960 l 542 878 l 347 708 l 156 878 z "},"ˉ":{"ha":694,"x_min":147,"x_max":547,"o":"m 147 899 l 547 899 l 547 772 l 147 772 l 147 899 z "},"˘":{"ha":694,"x_min":146,"x_max":549,"o":"m 347 742 q 267 755 304 742 q 203 794 231 768 q 161 856 176 819 q 146 938 146 892 l 146 947 l 272 947 q 296 877 275 894 q 347 860 317 860 q 399 877 378 860 q 424 947 419 894 l 549 947 l 549 938 q 533 856 549 892 q 491 794 518 819 q 427 755 464 768 q 347 742 390 742 z "},"˙":{"ha":694,"x_min":249,"x_max":446,"o":"m 347 744 q 278 770 307 744 q 249 840 249 796 q 278 911 249 885 q 347 938 307 938 q 417 911 388 938 q 446 840 446 885 q 417 770 446 796 q 347 744 388 744 z "},"˚":{"ha":694,"x_min":201,"x_max":493,"o":"m 493 839 q 449 733 493 769 q 346 697 406 697 q 292 706 318 697 q 245 733 265 715 q 213 778 225 751 q 201 839 201 804 q 213 901 201 874 q 245 946 225 928 q 292 973 265 964 q 346 982 318 982 q 449 946 406 982 q 493 839 493 910 m 403 839 q 386 883 403 868 q 346 897 369 897 q 308 883 325 897 q 290 839 290 868 q 308 796 290 811 q 346 781 325 781 q 386 796 369 781 q 403 839 403 811 z "},"˛":{"ha":694,"x_min":226,"x_max":483,"o":"m 481 -217 q 426 -230 461 -224 q 351 -236 390 -236 q 256 -210 285 -236 q 226 -147 226 -185 q 258 -59 226 -106 q 339 18 289 -12 l 483 18 q 455 -4 474 11 q 417 -38 436 -19 q 385 -76 399 -57 q 371 -112 371 -96 q 378 -136 371 -126 q 408 -146 386 -146 q 435 -144 419 -146 q 471 -136 450 -143 l 481 -217 z "},"˝":{"ha":694,"x_min":93,"x_max":608,"o":"m 358 864 l 158 708 l 93 776 l 261 961 l 358 864 m 608 864 l 408 708 l 343 776 l 513 960 l 608 864 z "},"Ẁ":{"ha":694,"x_min":32,"x_max":663,"o":"m 411 556 q 428 490 417 529 q 452 404 439 451 q 481 303 465 357 q 513 192 497 249 q 511 347 513 264 q 508 515 510 429 q 506 690 507 601 q 504 860 504 778 l 663 860 q 654 642 658 754 q 644 420 650 531 q 631 203 639 310 q 614 0 624 96 l 472 0 q 411 188 442 88 q 350 381 381 289 q 286 190 319 293 q 225 0 253 88 l 83 0 q 64 203 72 96 q 49 422 56 311 q 39 644 43 532 q 32 860 35 756 l 190 860 q 188 690 189 778 q 185 516 186 603 q 182 347 183 429 q 181 192 181 264 q 209 289 193 236 q 240 393 225 342 q 267 488 254 444 q 286 556 279 531 l 411 556 m 260 1153 l 479 999 l 417 906 l 175 1022 l 260 1153 z "},"ẁ":{"ha":694,"x_min":15,"x_max":679,"o":"m 447 0 q 419 79 432 43 q 394 149 406 115 q 370 220 382 183 q 346 301 358 257 q 321 222 332 257 q 298 151 310 186 q 274 81 286 117 q 243 0 261 44 l 114 0 q 83 135 97 61 q 56 294 68 210 q 33 468 43 378 q 15 653 24 558 l 161 653 q 173 417 167 532 q 196 179 179 301 q 227 277 214 232 q 251 363 240 322 q 270 442 261 404 q 289 521 279 481 l 413 521 q 430 442 421 481 q 449 363 439 404 q 472 277 460 322 q 500 179 483 232 q 514 301 508 243 q 523 417 519 360 q 528 533 526 475 q 533 653 531 590 l 679 653 q 637 294 664 463 q 576 0 610 126 l 447 0 m 260 960 l 479 806 l 417 713 l 175 829 l 260 960 z "},"Ẃ":{"ha":694,"x_min":32,"x_max":663,"o":"m 411 556 q 428 490 417 529 q 452 404 439 451 q 481 303 465 357 q 513 192 497 249 q 511 347 513 264 q 508 515 510 429 q 506 690 507 601 q 504 860 504 778 l 663 860 q 654 642 658 754 q 644 420 650 531 q 631 203 639 310 q 614 0 624 96 l 472 0 q 411 188 442 88 q 350 381 381 289 q 286 190 319 293 q 225 0 253 88 l 83 0 q 64 203 72 96 q 49 422 56 311 q 39 644 43 532 q 32 860 35 756 l 190 860 q 188 690 189 778 q 185 516 186 603 q 182 347 183 429 q 181 192 181 264 q 209 289 193 236 q 240 393 225 342 q 267 488 254 444 q 286 556 279 531 l 411 556 m 515 1022 l 274 906 l 211 999 l 431 1153 l 515 1022 z "},"ẃ":{"ha":694,"x_min":15,"x_max":679,"o":"m 447 0 q 419 79 432 43 q 394 149 406 115 q 370 220 382 183 q 346 301 358 257 q 321 222 332 257 q 298 151 310 186 q 274 81 286 117 q 243 0 261 44 l 114 0 q 83 135 97 61 q 56 294 68 210 q 33 468 43 378 q 15 653 24 558 l 161 653 q 173 417 167 532 q 196 179 179 301 q 227 277 214 232 q 251 363 240 322 q 270 442 261 404 q 289 521 279 481 l 413 521 q 430 442 421 481 q 449 363 439 404 q 472 277 460 322 q 500 179 483 232 q 514 301 508 243 q 523 417 519 360 q 528 533 526 475 q 533 653 531 590 l 679 653 q 637 294 664 463 q 576 0 610 126 l 447 0 m 515 829 l 274 713 l 211 806 l 431 960 l 515 829 z "},"Ẅ":{"ha":694,"x_min":32,"x_max":663,"o":"m 411 556 q 428 490 417 529 q 452 404 439 451 q 481 303 465 357 q 513 192 497 249 q 511 347 513 264 q 508 515 510 429 q 506 690 507 601 q 504 860 504 778 l 663 860 q 654 642 658 754 q 644 420 650 531 q 631 203 639 310 q 614 0 624 96 l 472 0 q 411 188 442 88 q 350 381 381 289 q 286 190 319 293 q 225 0 253 88 l 83 0 q 64 203 72 96 q 49 422 56 311 q 39 644 43 532 q 32 860 35 756 l 190 860 q 188 690 189 778 q 185 516 186 603 q 182 347 183 429 q 181 192 181 264 q 209 289 193 236 q 240 393 225 342 q 267 488 254 444 q 286 556 279 531 l 411 556 m 211 940 q 144 965 172 940 q 115 1033 115 989 q 144 1103 115 1078 q 211 1128 172 1128 q 278 1103 249 1128 q 307 1033 307 1078 q 278 965 307 989 q 211 940 249 940 m 488 940 q 420 965 449 940 q 392 1033 392 989 q 420 1103 392 1078 q 488 1128 449 1128 q 555 1103 526 1128 q 583 1033 583 1078 q 555 965 583 989 q 488 940 526 940 z "},"ẅ":{"ha":694,"x_min":15,"x_max":679,"o":"m 447 0 q 419 79 432 43 q 394 149 406 115 q 370 220 382 183 q 346 301 358 257 q 321 222 332 257 q 298 151 310 186 q 274 81 286 117 q 243 0 261 44 l 114 0 q 83 135 97 61 q 56 294 68 210 q 33 468 43 378 q 15 653 24 558 l 161 653 q 173 417 167 532 q 196 179 179 301 q 227 277 214 232 q 251 363 240 322 q 270 442 261 404 q 289 521 279 481 l 413 521 q 430 442 421 481 q 449 363 439 404 q 472 277 460 322 q 500 179 483 232 q 514 301 508 243 q 523 417 519 360 q 528 533 526 475 q 533 653 531 590 l 679 653 q 637 294 664 463 q 576 0 610 126 l 447 0 m 211 747 q 144 772 172 747 q 115 840 115 796 q 144 910 115 885 q 211 935 172 935 q 278 910 249 935 q 307 840 307 885 q 278 772 307 796 q 211 747 249 747 m 488 747 q 420 772 449 747 q 392 840 392 796 q 420 910 392 885 q 488 935 449 935 q 555 910 526 935 q 583 840 583 885 q 555 772 583 796 q 488 747 526 747 z "},"Ỳ":{"ha":694,"x_min":18,"x_max":678,"o":"m 353 467 q 388 547 368 499 q 428 650 408 596 q 467 760 449 704 q 501 860 486 815 l 678 860 q 625 722 651 789 q 569 590 599 656 q 507 460 540 525 q 435 328 474 396 l 435 0 l 263 0 l 263 326 q 128 590 186 461 q 18 860 71 718 l 201 860 q 272 656 233 760 q 353 467 311 553 m 247 1153 l 467 999 l 404 906 l 163 1022 l 247 1153 z "},"ỳ":{"ha":694,"x_min":28,"x_max":656,"o":"m 656 653 q 605 473 629 561 q 554 301 581 385 q 498 136 528 217 q 433 -21 468 56 q 381 -117 407 -76 q 324 -183 356 -157 q 255 -221 293 -208 q 165 -233 217 -233 q 87 -226 122 -233 q 28 -208 51 -219 l 60 -65 q 109 -83 88 -78 q 156 -87 131 -87 q 236 -54 206 -87 q 285 25 267 -21 q 163 305 224 147 q 51 653 101 463 l 229 653 q 258 543 242 601 q 292 426 274 485 q 330 312 310 368 q 371 207 350 256 q 400 312 385 256 q 429 426 415 368 q 456 542 443 483 q 481 653 469 600 l 656 653 m 260 960 l 479 806 l 417 713 l 175 829 l 260 960 z "},"⁄":{"ha":694,"x_min":35,"x_max":658,"o":"m 658 860 l 174 0 l 35 0 l 519 860 l 658 860 z "},"⁰":{"ha":694,"x_min":142,"x_max":554,"o":"m 142 622 q 195 813 142 746 q 349 879 249 879 q 501 813 447 879 q 554 622 554 746 q 501 432 554 499 q 349 365 447 365 q 195 432 249 365 q 142 622 142 499 m 422 622 q 407 728 422 688 q 350 768 392 768 q 291 728 308 768 q 274 622 274 688 q 291 516 274 556 q 350 476 308 476 q 407 516 392 476 q 422 622 422 556 m 389 626 q 378 589 389 604 q 347 574 367 574 q 317 589 328 574 q 306 626 306 604 q 317 664 306 649 q 347 679 328 679 q 378 664 367 679 q 389 626 389 649 z "},"⁴":{"ha":694,"x_min":124,"x_max":529,"o":"m 472 869 l 472 583 l 529 583 l 529 481 l 472 481 l 472 374 l 356 374 l 356 481 l 124 481 l 124 569 q 230 728 176 658 q 350 869 283 799 l 472 869 m 356 732 q 302 664 328 700 q 254 583 276 628 l 356 583 l 356 732 z "},"⁵":{"ha":694,"x_min":157,"x_max":528,"o":"m 528 532 q 482 412 528 458 q 321 365 436 365 q 231 373 276 365 q 157 396 186 381 l 185 506 q 236 488 210 496 q 308 481 263 481 q 389 531 389 481 q 338 581 389 572 q 189 589 288 589 q 197 662 193 622 q 203 741 200 701 q 210 815 207 781 q 215 869 213 849 l 510 869 l 510 757 l 319 757 q 318 723 319 744 q 314 688 317 701 q 481 644 435 685 q 528 532 528 603 z "},"⁶":{"ha":694,"x_min":136,"x_max":515,"o":"m 319 594 q 288 590 304 594 q 263 582 271 586 q 333 471 256 471 q 378 490 365 471 q 392 532 392 508 q 376 579 392 564 q 319 594 360 594 m 344 685 q 476 642 438 685 q 515 536 515 600 q 504 472 515 503 q 470 417 493 440 q 413 379 447 393 q 331 365 378 365 q 185 420 235 365 q 136 576 136 475 q 226 792 136 714 q 475 871 315 871 l 481 760 q 345 735 393 757 q 272 671 297 713 q 303 681 283 676 q 344 685 324 685 z "},"⁷":{"ha":694,"x_min":149,"x_max":529,"o":"m 226 375 q 279 586 244 497 q 369 750 314 675 l 149 750 l 149 869 l 529 869 l 529 765 q 479 695 504 738 q 432 602 454 653 q 393 493 410 551 q 368 375 376 435 l 226 375 z "},"⁸":{"ha":694,"x_min":147,"x_max":547,"o":"m 547 513 q 501 406 547 447 q 346 365 454 365 q 246 379 285 365 q 185 414 207 393 q 155 459 163 435 q 147 504 147 483 q 169 576 147 549 q 225 624 192 603 q 175 674 190 649 q 160 736 160 699 q 172 790 160 764 q 206 835 183 815 q 265 867 229 856 q 347 879 300 879 q 438 867 401 879 q 495 835 474 854 q 526 791 517 815 q 535 744 535 767 q 515 682 535 711 q 465 635 496 653 q 529 578 511 607 q 547 513 547 550 m 278 513 q 292 478 278 494 q 347 461 307 461 q 401 477 386 461 q 417 513 417 493 q 391 560 417 543 q 324 586 365 578 q 290 555 303 572 q 278 513 278 538 m 408 736 q 394 767 408 751 q 349 783 381 783 q 303 767 317 783 q 289 736 289 751 q 304 697 289 715 q 360 667 319 678 q 397 696 385 681 q 408 736 408 711 z "},"⁹":{"ha":694,"x_min":179,"x_max":558,"o":"m 376 653 q 408 656 392 653 q 433 665 425 660 q 365 775 440 775 q 319 758 333 775 q 304 717 304 740 q 320 669 304 686 q 376 653 336 653 m 350 560 q 272 572 304 560 q 218 604 239 583 q 188 653 197 625 q 179 713 179 681 q 190 774 179 744 q 224 828 201 804 q 282 865 247 851 q 364 879 317 879 q 510 823 461 879 q 558 667 558 767 q 476 452 558 531 q 219 374 394 374 l 214 483 q 356 508 310 486 q 424 574 403 529 q 392 564 413 568 q 350 560 371 560 z "},"₀":{"ha":694,"x_min":142,"x_max":554,"o":"m 142 250 q 195 440 142 374 q 349 507 249 507 q 501 440 447 507 q 554 250 554 374 q 501 60 554 126 q 349 -7 447 -7 q 195 60 249 -7 q 142 250 142 126 m 422 250 q 407 356 422 315 q 350 396 392 396 q 291 356 308 396 q 274 250 274 315 q 291 144 274 183 q 350 104 308 104 q 407 144 392 104 q 422 250 422 183 m 389 254 q 378 217 389 232 q 347 201 367 201 q 317 217 328 201 q 306 254 306 232 q 317 292 306 276 q 347 307 328 307 q 378 292 367 307 q 389 254 389 276 z "},"₁":{"ha":694,"x_min":179,"x_max":586,"o":"m 192 3 l 192 115 l 331 115 l 331 338 q 280 312 306 322 q 217 286 254 301 l 179 394 q 281 442 232 415 q 365 497 329 468 l 472 497 l 472 115 l 586 115 l 586 3 l 192 3 z "},"₂":{"ha":694,"x_min":157,"x_max":536,"o":"m 524 354 q 492 263 524 300 q 422 194 460 226 q 378 156 400 176 q 342 115 357 135 l 536 115 l 536 3 l 179 3 l 179 38 q 212 147 179 99 q 307 249 244 196 q 362 299 342 278 q 382 342 382 319 q 371 372 382 361 q 339 383 360 383 q 272 369 303 383 q 221 338 242 356 l 157 433 q 239 484 189 461 q 344 507 289 507 q 483 465 442 507 q 524 354 524 422 z "},"₃":{"ha":694,"x_min":157,"x_max":533,"o":"m 321 108 q 383 122 365 108 q 400 156 400 136 q 313 206 400 206 l 261 206 l 261 307 l 313 307 q 360 318 342 307 q 378 353 378 329 q 324 392 378 392 q 267 382 294 392 q 213 361 239 372 l 165 458 q 242 492 196 478 q 333 507 289 507 q 417 496 383 507 q 472 466 451 485 q 501 422 493 447 q 510 368 510 396 q 498 319 510 342 q 458 272 486 296 q 516 223 499 254 q 533 154 533 192 q 522 90 533 119 q 486 40 511 61 q 421 6 461 18 q 322 -7 381 -7 q 233 2 281 -7 q 157 26 185 11 l 186 136 q 257 113 228 118 q 321 108 286 108 z "},"₄":{"ha":694,"x_min":124,"x_max":529,"o":"m 472 497 l 472 211 l 529 211 l 529 108 l 472 108 l 472 1 l 356 1 l 356 108 l 124 108 l 124 197 q 230 356 176 286 q 350 497 283 426 l 472 497 m 356 360 q 302 292 328 328 q 254 211 276 256 l 356 211 l 356 360 z "},"₅":{"ha":694,"x_min":157,"x_max":528,"o":"m 528 160 q 482 40 528 86 q 321 -7 436 -7 q 231 1 276 -7 q 157 24 186 8 l 185 133 q 236 116 210 124 q 308 108 263 108 q 389 158 389 108 q 338 208 389 200 q 189 217 288 217 q 197 290 193 250 q 203 369 200 329 q 210 442 207 408 q 215 497 213 476 l 510 497 l 510 385 l 319 385 q 318 351 319 372 q 314 315 317 329 q 481 272 435 313 q 528 160 528 231 z "},"₆":{"ha":694,"x_min":136,"x_max":515,"o":"m 319 222 q 288 218 304 222 q 263 210 271 214 q 333 99 256 99 q 378 117 365 99 q 392 160 392 136 q 376 207 392 192 q 319 222 360 222 m 344 313 q 476 270 438 313 q 515 164 515 228 q 504 99 515 131 q 470 44 493 68 q 413 7 447 21 q 331 -7 378 -7 q 185 48 235 -7 q 136 204 136 103 q 226 420 136 342 q 475 499 315 499 l 481 388 q 345 363 393 385 q 272 299 297 340 q 303 308 283 304 q 344 313 324 313 z "},"₇":{"ha":694,"x_min":149,"x_max":529,"o":"m 226 3 q 279 214 244 125 q 369 378 314 303 l 149 378 l 149 497 l 529 497 l 529 393 q 479 323 504 365 q 432 230 454 281 q 393 121 410 179 q 368 3 376 63 l 226 3 z "},"₈":{"ha":694,"x_min":147,"x_max":547,"o":"m 547 140 q 501 34 547 75 q 346 -7 454 -7 q 246 7 285 -7 q 185 42 207 21 q 155 87 163 63 q 147 132 147 111 q 169 203 147 176 q 225 251 192 231 q 175 301 190 276 q 160 364 160 326 q 172 417 160 392 q 206 463 183 443 q 265 495 229 483 q 347 507 300 507 q 438 494 401 507 q 495 463 474 482 q 526 419 517 443 q 535 372 535 394 q 515 310 535 339 q 465 263 496 281 q 529 206 511 235 q 547 140 547 178 m 278 140 q 292 106 278 122 q 347 89 307 89 q 401 105 386 89 q 417 140 417 121 q 391 188 417 171 q 324 214 365 206 q 290 183 303 200 q 278 140 278 165 m 408 364 q 394 395 408 379 q 349 411 381 411 q 303 395 317 411 q 289 364 289 379 q 304 324 289 343 q 360 294 319 306 q 397 324 385 308 q 408 364 408 339 z "},"₉":{"ha":694,"x_min":179,"x_max":558,"o":"m 376 281 q 408 284 392 281 q 433 293 425 288 q 365 403 440 403 q 319 385 333 403 q 304 344 304 368 q 320 297 304 314 q 376 281 336 281 m 350 188 q 272 199 304 188 q 218 232 239 211 q 188 281 197 253 q 179 340 179 308 q 190 402 179 372 q 224 456 201 432 q 282 493 247 479 q 364 507 317 507 q 510 451 461 507 q 558 294 558 394 q 476 80 558 158 q 219 1 394 1 l 214 111 q 356 135 310 114 q 424 201 403 157 q 392 192 413 196 q 350 188 371 188 z "},"ℓ":{"ha":694,"x_min":74,"x_max":596,"o":"m 200 317 l 200 675 q 217 816 200 760 q 261 904 233 872 q 326 949 289 936 q 404 963 364 963 q 490 943 457 963 q 541 892 522 924 q 566 824 560 861 q 572 750 572 786 q 501 509 572 618 q 314 303 431 400 l 314 249 q 343 122 314 161 q 435 82 372 82 q 501 97 475 82 q 550 128 528 113 l 596 42 q 519 -2 564 14 q 415 -18 475 -18 q 313 0 354 -18 q 246 49 271 18 q 210 122 221 81 q 200 207 200 163 l 200 217 l 118 158 l 74 225 l 200 317 m 314 406 q 438 562 393 478 q 482 751 482 646 q 479 793 482 772 q 468 831 476 814 q 445 858 460 847 q 407 868 431 868 q 371 861 388 868 q 342 833 354 854 q 322 776 329 813 q 314 679 314 739 l 314 406 z "},"℮":{"ha":694,"x_min":38,"x_max":657,"o":"m 156 254 q 150 251 150 254 l 150 99 q 152 90 150 93 q 157 82 154 86 q 243 20 196 42 q 349 -1 290 -1 q 460 24 410 -1 q 549 92 511 50 l 593 92 q 488 13 553 43 q 347 -17 422 -17 q 226 6 282 -17 q 128 65 169 28 q 62 153 86 103 q 38 261 38 204 q 62 371 38 319 q 128 460 86 422 q 226 519 169 497 q 347 542 282 542 q 467 519 411 542 q 566 460 524 497 q 633 371 608 422 q 657 261 657 319 l 657 254 l 156 254 m 543 428 q 536 446 543 436 q 452 503 500 482 q 349 525 404 525 q 244 503 292 525 q 158 443 196 481 q 150 424 150 435 l 150 275 q 156 269 150 269 l 539 269 q 543 275 543 269 l 543 428 z "},"⅓":{"ha":694,"x_min":3,"x_max":696,"o":"m 415 97 q 458 83 431 90 q 513 75 485 75 q 560 81 544 75 q 576 106 576 88 q 493 142 576 142 l 467 142 l 467 221 l 497 221 q 547 228 533 221 q 560 249 560 235 q 549 267 560 261 q 524 272 539 272 q 472 264 500 272 q 432 249 444 256 l 400 324 q 460 349 421 339 q 539 358 499 358 q 645 330 613 358 q 678 265 678 301 q 638 188 678 213 q 696 100 696 160 q 683 47 696 68 q 646 13 669 26 q 591 -6 622 0 q 522 -11 560 -11 q 447 -5 482 -11 q 389 13 413 1 l 415 97 m 3 774 q 85 816 50 794 q 153 869 119 838 l 240 869 l 240 522 l 122 522 l 122 731 q 75 707 94 715 q 29 692 56 699 l 3 774 m 621 860 l 181 0 l 42 0 l 482 860 l 621 860 z "},"⅔":{"ha":694,"x_min":0,"x_max":696,"o":"m 415 97 q 458 83 431 90 q 513 75 485 75 q 560 81 544 75 q 576 106 576 88 q 493 142 576 142 l 467 142 l 467 221 l 497 221 q 547 228 533 221 q 560 249 560 235 q 549 267 560 261 q 524 272 539 272 q 472 264 500 272 q 432 249 444 256 l 400 324 q 460 349 421 339 q 539 358 499 358 q 645 330 613 358 q 678 265 678 301 q 638 188 678 213 q 696 100 696 160 q 683 47 696 68 q 646 13 669 26 q 591 -6 622 0 q 522 -11 560 -11 q 447 -5 482 -11 q 389 13 413 1 l 415 97 m 297 607 l 297 519 l 7 519 q 5 536 6 528 q 4 551 4 544 q 33 626 4 600 q 101 679 61 653 l 133 700 q 164 724 156 714 q 172 751 172 733 q 136 782 172 782 q 95 771 117 782 q 57 742 74 760 l 0 817 q 67 863 26 847 q 151 879 107 879 q 248 851 206 879 q 290 765 290 824 q 275 704 290 728 q 238 664 260 681 q 190 634 215 647 q 146 607 165 621 l 297 607 m 647 860 l 207 0 l 68 0 l 508 860 l 647 860 z "},"⅛":{"ha":694,"x_min":3,"x_max":683,"o":"m 358 96 q 371 139 358 115 q 413 179 383 163 q 383 213 394 193 q 371 260 371 232 q 384 303 371 285 q 418 335 397 322 q 466 353 439 347 q 521 360 493 360 q 576 353 549 360 q 624 335 603 347 q 658 306 644 324 q 671 264 671 288 q 661 221 671 240 q 628 186 651 201 q 682 99 679 158 q 646 24 683 57 q 519 -10 608 -10 q 403 17 449 -10 q 358 96 358 43 m 3 774 q 85 816 50 794 q 153 869 119 838 l 240 869 l 240 522 l 122 522 l 122 731 q 75 707 94 715 q 29 692 56 699 l 3 774 m 575 100 q 551 125 575 117 q 493 143 526 133 q 465 101 465 128 q 483 79 465 86 q 519 72 500 72 q 558 78 540 72 q 575 100 575 85 m 478 257 q 490 240 478 249 q 535 221 503 232 l 538 219 q 556 236 549 228 q 564 256 564 244 q 551 272 564 267 q 521 278 538 278 q 493 273 508 278 q 478 257 478 268 m 610 860 l 169 0 l 31 0 l 471 860 l 610 860 z "},"⅜":{"ha":694,"x_min":4,"x_max":696,"o":"m 371 96 q 383 139 371 115 q 425 179 396 163 q 394 213 406 193 q 383 260 383 232 q 397 303 383 285 q 431 335 410 322 q 478 353 451 347 q 533 360 506 360 q 588 353 561 360 q 636 335 615 347 q 670 306 657 324 q 683 264 683 288 q 674 221 683 240 q 640 186 664 201 q 694 99 692 158 q 658 24 696 57 q 532 -10 621 -10 q 416 17 461 -10 q 371 96 371 43 m 29 618 q 72 604 44 611 q 126 597 99 597 q 175 603 158 597 q 192 626 192 608 q 108 663 192 663 l 81 663 l 81 742 l 111 742 q 160 749 147 742 q 174 769 174 756 q 163 788 174 782 q 138 793 153 793 q 87 785 114 793 q 46 769 60 776 l 15 844 q 74 869 35 860 q 154 879 113 879 q 260 851 226 879 q 293 786 293 822 q 251 708 293 735 q 310 621 310 681 q 297 568 310 589 q 260 534 283 547 q 205 515 236 521 q 136 510 174 510 q 62 516 97 510 q 4 533 26 522 l 29 618 m 588 100 q 563 125 588 117 q 506 143 539 133 q 478 101 478 128 q 494 79 478 86 q 532 72 511 72 q 570 78 553 72 q 588 100 588 85 m 490 257 q 503 240 490 249 q 547 221 515 232 l 550 219 q 569 236 561 228 q 576 256 576 244 q 563 272 576 267 q 533 278 550 278 q 505 273 519 278 q 490 257 490 268 m 635 860 l 194 0 l 56 0 l 496 860 l 635 860 z "},"⅝":{"ha":694,"x_min":7,"x_max":696,"o":"m 371 96 q 383 139 371 115 q 425 179 396 163 q 394 213 406 193 q 383 260 383 232 q 397 303 383 285 q 431 335 410 322 q 478 353 451 347 q 533 360 506 360 q 588 353 561 360 q 636 335 615 347 q 670 306 657 324 q 683 264 683 288 q 674 221 683 240 q 640 186 664 201 q 694 99 692 158 q 658 24 696 57 q 532 -10 621 -10 q 416 17 461 -10 q 371 96 371 43 m 156 756 q 274 714 243 747 q 306 632 306 681 q 292 576 306 599 q 256 538 279 553 q 203 517 233 524 q 139 510 172 510 q 65 519 100 510 q 7 544 31 529 l 29 629 q 82 606 53 615 q 138 597 111 597 q 176 608 165 597 q 186 632 186 618 q 182 647 186 640 q 165 660 178 654 q 130 670 153 667 q 71 674 107 674 l 44 674 q 51 729 49 706 q 55 774 53 753 q 58 818 57 796 q 61 869 60 840 l 290 869 l 290 782 l 157 782 l 156 756 m 588 100 q 563 125 588 117 q 506 143 539 133 q 478 101 478 128 q 494 79 478 86 q 532 72 511 72 q 570 78 553 72 q 588 100 588 85 m 490 257 q 503 240 490 249 q 547 221 515 232 l 550 219 q 569 236 561 228 q 576 256 576 244 q 563 272 576 267 q 533 278 550 278 q 505 273 519 278 q 490 257 490 268 m 635 860 l 194 0 l 56 0 l 496 860 l 635 860 z "},"⅞":{"ha":694,"x_min":31,"x_max":696,"o":"m 371 96 q 383 139 371 115 q 425 179 396 163 q 394 213 406 193 q 383 260 383 232 q 397 303 383 285 q 431 335 410 322 q 478 353 451 347 q 533 360 506 360 q 588 353 561 360 q 636 335 615 347 q 670 306 657 324 q 683 264 683 288 q 674 221 683 240 q 640 186 664 201 q 694 99 692 158 q 658 24 696 57 q 532 -10 621 -10 q 416 17 461 -10 q 371 96 371 43 m 588 100 q 563 125 588 117 q 506 143 539 133 q 478 101 478 128 q 494 79 478 86 q 532 72 511 72 q 570 78 553 72 q 588 100 588 85 m 490 257 q 503 240 490 249 q 547 221 515 232 l 550 219 q 569 236 561 228 q 576 256 576 244 q 563 272 576 267 q 533 278 550 278 q 505 273 519 278 q 490 257 490 268 m 79 522 q 96 603 88 569 q 115 665 104 636 q 141 719 125 693 q 182 782 157 746 l 43 782 l 43 869 l 311 869 l 311 800 q 258 734 278 763 q 227 676 239 706 q 208 610 215 646 q 193 522 201 574 l 79 522 m 610 860 l 169 0 l 31 0 l 471 860 l 610 860 z "},"⅕":{"ha":694,"x_min":3,"x_max":694,"o":"m 3 774 q 85 816 50 794 q 153 869 119 838 l 240 869 l 240 522 l 122 522 l 122 731 q 75 707 94 715 q 29 692 56 699 l 3 774 m 544 235 q 663 193 632 226 q 694 110 694 160 q 681 55 694 78 q 645 17 668 32 q 592 -4 622 3 q 528 -11 563 -11 q 456 -1 490 -11 q 397 24 421 8 l 419 108 q 472 85 442 94 q 528 76 501 76 q 565 87 556 76 q 575 111 575 97 q 571 126 575 119 q 554 140 567 133 q 519 149 542 146 q 460 153 496 153 l 435 153 q 441 208 439 185 q 444 253 443 232 q 447 297 446 275 q 450 349 449 319 l 679 349 l 679 261 l 547 261 l 544 235 m 635 860 l 194 0 l 56 0 l 496 860 l 635 860 z "},"⅖":{"ha":694,"x_min":0,"x_max":694,"o":"m 544 235 q 663 193 632 226 q 694 110 694 160 q 681 55 694 78 q 645 17 668 32 q 592 -4 622 3 q 528 -11 563 -11 q 456 -1 490 -11 q 397 24 421 8 l 419 108 q 472 85 442 94 q 528 76 501 76 q 565 87 556 76 q 575 111 575 97 q 571 126 575 119 q 554 140 567 133 q 519 149 542 146 q 460 153 496 153 l 435 153 q 441 208 439 185 q 444 253 443 232 q 447 297 446 275 q 450 349 449 319 l 679 349 l 679 261 l 547 261 l 544 235 m 297 607 l 297 519 l 7 519 q 5 536 6 528 q 4 551 4 544 q 33 626 4 600 q 101 679 61 653 l 133 700 q 164 724 156 714 q 172 751 172 733 q 136 782 172 782 q 95 771 117 782 q 57 742 74 760 l 0 817 q 67 863 26 847 q 151 879 107 879 q 248 851 206 879 q 290 765 290 824 q 275 704 290 728 q 238 664 260 681 q 190 634 215 647 q 146 607 165 621 l 297 607 m 660 860 l 219 0 l 81 0 l 521 860 l 660 860 z "},"⅗":{"ha":694,"x_min":17,"x_max":694,"o":"m 42 618 q 84 604 57 611 q 139 597 111 597 q 187 603 171 597 q 203 626 203 608 q 121 663 203 663 l 93 663 l 93 742 l 124 742 q 173 749 160 742 q 186 769 186 756 q 176 788 186 782 q 150 793 165 793 q 99 785 126 793 q 58 769 71 776 l 28 844 q 86 869 47 860 q 167 879 125 879 q 272 851 239 879 q 306 786 306 822 q 264 708 306 735 q 322 621 322 681 q 309 568 322 589 q 272 534 296 547 q 217 515 249 521 q 149 510 186 510 q 74 516 110 510 q 17 533 39 522 l 42 618 m 544 235 q 663 193 632 226 q 694 110 694 160 q 681 55 694 78 q 645 17 668 32 q 592 -4 622 3 q 528 -11 563 -11 q 456 -1 490 -11 q 397 24 421 8 l 419 108 q 472 85 442 94 q 528 76 501 76 q 565 87 556 76 q 575 111 575 97 q 571 126 575 119 q 554 140 567 133 q 519 149 542 146 q 460 153 496 153 l 435 153 q 441 208 439 185 q 444 253 443 232 q 447 297 446 275 q 450 349 449 319 l 679 349 l 679 261 l 547 261 l 544 235 m 660 860 l 219 0 l 81 0 l 521 860 l 660 860 z "},"⅘":{"ha":694,"x_min":0,"x_max":694,"o":"m 544 235 q 663 193 632 226 q 694 110 694 160 q 681 55 694 78 q 645 17 668 32 q 592 -4 622 3 q 528 -11 563 -11 q 456 -1 490 -11 q 397 24 421 8 l 419 108 q 472 85 442 94 q 528 76 501 76 q 565 87 556 76 q 575 111 575 97 q 571 126 575 119 q 554 140 567 133 q 519 149 542 146 q 460 153 496 153 l 435 153 q 441 208 439 185 q 444 253 443 232 q 447 297 446 275 q 450 349 449 319 l 679 349 l 679 261 l 547 261 l 544 235 m 283 869 l 283 664 l 333 664 l 333 576 l 283 576 l 283 522 l 172 522 l 172 576 l 0 576 l 0 639 q 63 751 32 699 q 139 869 94 804 l 283 869 m 172 781 q 134 720 151 749 q 101 664 117 692 l 172 664 l 172 781 m 668 860 l 228 0 l 89 0 l 529 860 l 668 860 z "},"⅙":{"ha":694,"x_min":3,"x_max":664,"o":"m 657 265 q 548 254 590 261 q 485 224 506 247 q 505 228 496 226 q 522 229 514 229 q 630 201 596 229 q 664 118 664 172 q 626 24 664 60 q 515 -12 588 -12 q 406 24 449 -12 q 364 139 364 60 q 438 308 364 253 q 647 360 513 364 l 657 265 m 515 147 q 488 145 500 147 q 465 140 476 143 q 485 85 468 96 q 522 75 503 75 q 552 85 542 75 q 563 111 563 96 q 515 147 563 147 m 3 774 q 85 816 50 794 q 153 869 119 838 l 240 869 l 240 522 l 122 522 l 122 731 q 75 707 94 715 q 29 692 56 699 l 3 774 m 632 860 l 192 0 l 53 0 l 493 860 l 632 860 z "},"⅚":{"ha":694,"x_min":7,"x_max":664,"o":"m 657 265 q 548 254 590 261 q 485 224 506 247 q 505 228 496 226 q 522 229 514 229 q 630 201 596 229 q 664 118 664 172 q 626 24 664 60 q 515 -12 588 -12 q 406 24 449 -12 q 364 139 364 60 q 438 308 364 253 q 647 360 513 364 l 657 265 m 156 756 q 274 714 243 747 q 306 632 306 681 q 292 576 306 599 q 256 538 279 553 q 203 517 233 524 q 139 510 172 510 q 65 519 100 510 q 7 544 31 529 l 29 629 q 82 606 53 615 q 138 597 111 597 q 176 608 165 597 q 186 632 186 618 q 182 647 186 640 q 165 660 178 654 q 130 670 153 667 q 71 674 107 674 l 44 674 q 51 729 49 706 q 55 774 53 753 q 58 818 57 796 q 61 869 60 840 l 290 869 l 290 782 l 157 782 l 156 756 m 515 147 q 488 145 500 147 q 465 140 476 143 q 485 85 468 96 q 522 75 503 75 q 552 85 542 75 q 563 111 563 96 q 515 147 563 147 m 644 860 l 204 0 l 65 0 l 506 860 l 644 860 z "},"":{"ha":694,"x_min":3,"x_max":694,"o":"m 3 774 q 85 816 50 794 q 153 869 119 838 l 240 869 l 240 522 l 122 522 l 122 731 q 75 707 94 715 q 29 692 56 699 l 3 774 m 463 0 q 479 81 471 47 q 498 142 488 114 q 524 198 508 171 q 565 261 540 225 l 426 261 l 426 347 l 694 347 l 694 278 q 642 212 661 240 q 610 153 622 183 q 592 88 599 124 q 576 0 585 51 l 463 0 m 644 860 l 204 0 l 65 0 l 506 860 l 644 860 z "},"":{"ha":694,"x_min":0,"x_max":694,"o":"m 463 0 q 479 81 471 47 q 498 142 488 114 q 524 198 508 171 q 565 261 540 225 l 426 261 l 426 347 l 694 347 l 694 278 q 642 212 661 240 q 610 153 622 183 q 592 88 599 124 q 576 0 585 51 l 463 0 m 297 607 l 297 519 l 7 519 q 5 536 6 528 q 4 551 4 544 q 33 626 4 600 q 101 679 61 653 l 133 700 q 164 724 156 714 q 172 751 172 733 q 136 782 172 782 q 95 771 117 782 q 57 742 74 760 l 0 817 q 67 863 26 847 q 151 879 107 879 q 248 851 206 879 q 290 765 290 824 q 275 704 290 728 q 238 664 260 681 q 190 634 215 647 q 146 607 165 621 l 297 607 m 654 860 l 214 0 l 75 0 l 515 860 l 654 860 z "},"":{"ha":694,"x_min":17,"x_max":694,"o":"m 42 618 q 84 604 57 611 q 139 597 111 597 q 187 603 171 597 q 203 626 203 608 q 121 663 203 663 l 93 663 l 93 742 l 124 742 q 173 749 160 742 q 186 769 186 756 q 176 788 186 782 q 150 793 165 793 q 99 785 126 793 q 58 769 71 776 l 28 844 q 86 869 47 860 q 167 879 125 879 q 272 851 239 879 q 306 786 306 822 q 264 708 306 735 q 322 621 322 681 q 309 568 322 589 q 272 534 296 547 q 217 515 249 521 q 149 510 186 510 q 74 516 110 510 q 17 533 39 522 l 42 618 m 463 0 q 479 81 471 47 q 498 142 488 114 q 524 198 508 171 q 565 261 540 225 l 426 261 l 426 347 l 694 347 l 694 278 q 642 212 661 240 q 610 153 622 183 q 592 88 599 124 q 576 0 585 51 l 463 0 m 647 860 l 207 0 l 68 0 l 508 860 l 647 860 z "},"":{"ha":694,"x_min":0,"x_max":694,"o":"m 463 0 q 479 81 471 47 q 498 142 488 114 q 524 198 508 171 q 565 261 540 225 l 426 261 l 426 347 l 694 347 l 694 278 q 642 212 661 240 q 610 153 622 183 q 592 88 599 124 q 576 0 585 51 l 463 0 m 283 869 l 283 664 l 333 664 l 333 576 l 283 576 l 283 522 l 172 522 l 172 576 l 0 576 l 0 639 q 63 751 32 699 q 139 869 94 804 l 283 869 m 172 781 q 134 720 151 749 q 101 664 117 692 l 172 664 l 172 781 m 660 860 l 219 0 l 81 0 l 521 860 l 660 860 z "},"":{"ha":694,"x_min":7,"x_max":694,"o":"m 156 756 q 274 714 243 747 q 306 632 306 681 q 292 576 306 599 q 256 538 279 553 q 203 517 233 524 q 139 510 172 510 q 65 519 100 510 q 7 544 31 529 l 29 629 q 82 606 53 615 q 138 597 111 597 q 176 608 165 597 q 186 632 186 618 q 182 647 186 640 q 165 660 178 654 q 130 670 153 667 q 71 674 107 674 l 44 674 q 51 729 49 706 q 55 774 53 753 q 58 818 57 796 q 61 869 60 840 l 290 869 l 290 782 l 157 782 l 156 756 m 463 0 q 479 81 471 47 q 498 142 488 114 q 524 198 508 171 q 565 261 540 225 l 426 261 l 426 347 l 694 347 l 694 278 q 642 212 661 240 q 610 153 622 183 q 592 88 599 124 q 576 0 585 51 l 463 0 m 647 860 l 207 0 l 68 0 l 508 860 l 647 860 z "},"":{"ha":694,"x_min":13,"x_max":694,"o":"m 307 788 q 197 776 239 783 q 133 746 154 769 q 153 750 144 749 q 171 751 163 751 q 278 723 244 751 q 313 640 313 694 q 275 546 313 582 q 165 510 238 510 q 56 546 99 510 q 13 661 13 582 q 83 826 13 771 q 281 882 153 882 l 296 882 l 307 788 m 463 0 q 479 81 471 47 q 498 142 488 114 q 524 198 508 171 q 565 261 540 225 l 426 261 l 426 347 l 694 347 l 694 278 q 642 212 661 240 q 610 153 622 183 q 592 88 599 124 q 576 0 585 51 l 463 0 m 164 669 q 137 667 149 669 q 114 663 125 665 q 134 608 117 618 q 171 597 151 597 q 201 608 190 597 q 211 633 211 618 q 164 669 211 669 m 647 860 l 207 0 l 68 0 l 508 860 l 647 860 z "},"":{"ha":694,"x_min":3,"x_max":689,"o":"m 394 82 q 503 92 461 86 q 565 122 546 99 q 529 118 546 118 q 389 229 389 118 q 426 324 389 288 q 536 360 464 360 q 592 351 564 360 q 641 323 619 342 q 676 276 663 304 q 689 208 689 247 q 618 41 689 94 q 404 -12 547 -12 l 394 82 m 3 774 q 85 816 50 794 q 153 869 119 838 l 240 869 l 240 522 l 122 522 l 122 731 q 75 707 94 715 q 29 692 56 699 l 3 774 m 538 200 q 586 207 563 200 q 567 261 585 250 q 529 272 549 272 q 500 262 510 272 q 490 236 490 251 q 538 200 490 200 m 622 860 l 182 0 l 43 0 l 483 860 l 622 860 z "},"":{"ha":694,"x_min":0,"x_max":689,"o":"m 394 82 q 503 92 461 86 q 565 122 546 99 q 529 118 546 118 q 389 229 389 118 q 426 324 389 288 q 536 360 464 360 q 592 351 564 360 q 641 323 619 342 q 676 276 663 304 q 689 208 689 247 q 618 41 689 94 q 404 -12 547 -12 l 394 82 m 538 200 q 586 207 563 200 q 567 261 585 250 q 529 272 549 272 q 500 262 510 272 q 490 236 490 251 q 538 200 490 200 m 297 607 l 297 519 l 7 519 q 5 536 6 528 q 4 551 4 544 q 33 626 4 600 q 101 679 61 653 l 133 700 q 164 724 156 714 q 172 751 172 733 q 136 782 172 782 q 95 771 117 782 q 57 742 74 760 l 0 817 q 67 863 26 847 q 151 879 107 879 q 248 851 206 879 q 290 765 290 824 q 275 704 290 728 q 238 664 260 681 q 190 634 215 647 q 146 607 165 621 l 297 607 m 647 860 l 207 0 l 68 0 l 508 860 l 647 860 z "},"":{"ha":694,"x_min":0,"x_max":694,"o":"m 400 82 q 510 92 468 86 q 572 122 551 99 q 536 118 553 118 q 428 147 463 118 q 394 229 394 175 q 432 324 394 288 q 542 360 469 360 q 598 351 571 360 q 647 323 625 342 q 681 276 668 304 q 694 208 694 247 q 624 41 694 94 q 411 -12 554 -12 l 400 82 m 543 200 q 593 207 568 200 q 573 261 590 250 q 536 272 556 272 q 506 262 517 272 q 496 236 496 251 q 543 200 496 200 m 283 869 l 283 664 l 333 664 l 333 576 l 283 576 l 283 522 l 172 522 l 172 576 l 0 576 l 0 639 q 63 751 32 699 q 139 869 94 804 l 283 869 m 172 781 q 134 720 151 749 q 101 664 117 692 l 172 664 l 172 781 m 657 860 l 217 0 l 78 0 l 518 860 l 657 860 z "},"":{"ha":694,"x_min":7,"x_max":689,"o":"m 394 82 q 503 92 461 86 q 565 122 546 99 q 529 118 546 118 q 389 229 389 118 q 426 324 389 288 q 536 360 464 360 q 592 351 564 360 q 641 323 619 342 q 676 276 663 304 q 689 208 689 247 q 618 41 689 94 q 404 -12 547 -12 l 394 82 m 156 756 q 274 714 243 747 q 306 632 306 681 q 292 576 306 599 q 256 538 279 553 q 203 517 233 524 q 139 510 172 510 q 65 519 100 510 q 7 544 31 529 l 29 629 q 82 606 53 615 q 138 597 111 597 q 176 608 165 597 q 186 632 186 618 q 182 647 186 640 q 165 660 178 654 q 130 670 153 667 q 71 674 107 674 l 44 674 q 51 729 49 706 q 55 774 53 753 q 58 818 57 796 q 61 869 60 840 l 290 869 l 290 782 l 157 782 l 156 756 m 538 200 q 586 207 563 200 q 567 261 585 250 q 529 272 549 272 q 500 262 510 272 q 490 236 490 251 q 538 200 490 200 m 636 860 l 196 0 l 57 0 l 497 860 l 636 860 z "},"":{"ha":694,"x_min":22,"x_max":664,"o":"m 369 82 q 478 92 436 86 q 540 122 521 99 q 504 118 521 118 q 364 229 364 118 q 401 324 364 288 q 511 360 439 360 q 567 351 539 360 q 616 323 594 342 q 651 276 638 304 q 664 208 664 247 q 593 41 664 94 q 379 -12 522 -12 l 369 82 m 79 522 q 96 603 88 569 q 115 665 104 636 q 141 719 125 693 q 182 782 157 746 l 43 782 l 43 869 l 311 869 l 311 800 q 258 734 278 763 q 227 676 239 706 q 208 610 215 646 q 193 522 201 574 l 79 522 m 513 200 q 563 207 538 200 q 542 261 560 250 q 504 272 524 272 q 476 262 486 272 q 465 236 465 251 q 513 200 465 200 m 601 860 l 161 0 l 22 0 l 463 860 l 601 860 z "},"":{"ha":694,"x_min":0,"x_max":694,"o":"m 0 615 q 13 659 0 636 q 54 699 25 682 q 24 732 35 713 q 13 779 13 751 q 26 823 13 804 q 60 854 39 842 q 108 873 81 867 q 163 879 135 879 q 217 873 190 879 q 265 855 244 867 q 299 825 286 843 q 313 783 313 807 q 303 740 313 760 q 269 706 293 721 q 324 618 321 678 q 288 543 325 576 q 161 510 250 510 q 45 536 90 510 q 0 615 0 563 m 400 82 q 510 92 468 86 q 572 122 551 99 q 536 118 553 118 q 428 147 463 118 q 394 229 394 175 q 432 324 394 288 q 542 360 469 360 q 598 351 571 360 q 647 323 625 342 q 681 276 668 304 q 694 208 694 247 q 624 41 694 94 q 411 -12 554 -12 l 400 82 m 217 621 q 192 644 217 636 q 135 663 168 653 q 107 621 107 647 q 124 599 107 606 q 161 592 140 592 q 199 599 182 592 q 217 621 217 606 m 543 200 q 593 207 568 200 q 573 261 590 250 q 536 272 556 272 q 506 262 517 272 q 496 236 496 251 q 543 200 496 200 m 119 776 q 132 759 119 768 q 179 739 144 750 q 198 756 190 747 q 206 775 206 764 q 192 792 206 786 q 163 797 179 797 q 134 793 149 797 q 119 776 119 789 m 646 860 l 206 0 l 67 0 l 507 860 l 646 860 z "},"∂":{"ha":694,"x_min":40,"x_max":629,"o":"m 267 821 q 203 815 235 821 q 129 794 172 810 l 107 926 q 203 956 161 949 q 288 963 244 963 q 461 922 394 963 q 565 813 528 881 q 616 659 603 746 q 629 481 629 572 q 613 305 629 393 q 558 146 596 217 q 456 30 519 75 q 301 -15 393 -15 q 199 5 247 -15 q 116 63 151 25 q 60 155 81 100 q 40 281 40 210 q 61 426 40 360 q 121 538 82 492 q 215 610 160 585 q 338 636 269 636 q 408 627 376 636 q 469 600 440 618 q 410 760 464 700 q 267 821 356 821 m 342 490 q 274 472 301 490 q 228 425 246 454 q 201 359 210 396 q 193 283 193 322 q 223 171 193 210 q 301 132 253 132 q 377 157 346 132 q 428 225 408 182 q 458 326 449 268 q 471 451 468 385 q 406 481 443 471 q 342 490 368 490 z "},"∆":{"ha":694,"x_min":13,"x_max":682,"o":"m 13 0 q 136 463 74 254 q 257 860 199 672 l 443 860 q 565 459 504 671 q 682 0 625 247 l 13 0 m 346 693 q 279 433 310 568 q 217 142 249 297 l 469 142 q 410 435 438 299 q 346 693 382 571 z "}}}
